<?xml version="1.0" standalone="no"?>
<!DOCTYPE svg PUBLIC "-//W3C//DTD SVG 1.1//EN" "http://www.w3.org/Graphics/SVG/1.1/DTD/svg11.dtd" >
<svg xmlns="http://www.w3.org/2000/svg" xmlns:xlink="http://www.w3.org/1999/xlink" version="1.1">
<metadata></metadata>
<defs>
<font id="chopin_scriptregular" horiz-adv-x="872" >
<font-face units-per-em="2048" ascent="1638" descent="-410" />
<missing-glyph horiz-adv-x="620" />
<glyph horiz-adv-x="0" />
<glyph horiz-adv-x="682" />
<glyph unicode="&#xd;" horiz-adv-x="483" d="M-135 92q0 -119 127 -119q133 0 536 473l-16 15q-80 -96 -227 -246q-201 -203 -248 -203q-45 0 -45 54q0 41 16 77l260 496q-12 -4 -40.5 -32.5t-37.5 -28.5q-2 0 -26.5 9t-42.5 9q-31 0 -55 -43q-45 -82 -77 -138.5t-48 -88.5q-76 -137 -76 -234z" />
<glyph horiz-adv-x="348" d="M-365 -74q0 -12 11 -12q2 0 24 35q20 33 35 33q72 0 109 92q29 76 123 231.5t256 390.5q152 221 269.5 382t205.5 265l-35 5q-274 -311 -487.5 -588t-366.5 -529q-143 -229 -144 -305z" />
<glyph horiz-adv-x="907" d="M-915 -524q0 -82 58 -133.5t144 -51.5q160 0 312 164q139 152 321 502l277 547h145l20 37h-112q172 88 325 258q185 198 185 360q0 29 -25.5 52.5t-54.5 23.5q-129 0 -346 -283q-68 -88 -136.5 -190.5t-138.5 -220.5h-120l-21 -37h119q-53 -98 -126 -245.5t-169 -352.5 q-154 -328 -223 -428q-115 -164 -232 -164q-66 0 -116 39q-57 39 -58 104q0 45 31 105q33 68 76 67q43 0 43 -53q0 -25 -64 -33q31 -53 68 -53q43 0 77.5 26.5t34.5 69.5q0 41 -29.5 73t-70.5 32q-78 0 -137 -66q-57 -66 -57 -149zM219 541q35 78 87 173t122 212 q168 276 217 276q35 0 35 -59q0 -96 -98 -240q-127 -188 -363 -362zM285 92q0 -119 127 -119q137 0 540 473l-16 15q-80 -96 -227 -246q-201 -203 -248 -203q-49 0 -49 54q0 43 20 77l281 496q-12 -4 -41 -32.5t-37 -28.5q-2 0 -26.5 9t-43.5 9q-31 0 -55 -43 q-47 -78 -82 -135.5t-57 -91.5q-86 -145 -86 -234zM672 815q0 -33 22.5 -56.5t55.5 -23.5q41 0 70.5 37t29.5 80q0 31 -21.5 50.5t-52.5 19.5q-43 0 -73.5 -32t-30.5 -75z" />
<glyph horiz-adv-x="907" d="M-915 -524q0 -82 58 -133.5t144 -51.5q160 0 312 164q139 152 321 502l277 547h145l20 37h-112q172 88 325 258q185 198 185 360q0 29 -25.5 52.5t-54.5 23.5q-129 0 -346 -283q-68 -88 -136.5 -190.5t-138.5 -220.5h-120l-21 -37h119q-53 -98 -126 -245.5t-169 -352.5 q-154 -328 -223 -428q-115 -164 -232 -164q-66 0 -116 39q-57 39 -58 104q0 45 31 105q33 68 76 67q43 0 43 -53q0 -25 -64 -33q31 -53 68 -53q43 0 77.5 26.5t34.5 69.5q0 41 -29.5 73t-70.5 32q-78 0 -137 -66q-57 -66 -57 -149zM219 541q35 78 87 173t122 212 q168 276 217 276q35 0 35 -59q0 -96 -98 -240q-127 -188 -363 -362zM338 141q0 -70 27 -114q35 -55 96 -54q150 6 295 172q82 94 196 301l-16 15q-74 -141 -176 -268q-143 -180 -244 -181q-43 0 -43 49q0 111 64 246l98 215q276 162 450 424q140 211 144 332 q0 27 -18.5 50.5t-45.5 23.5q-113 0 -362 -318q-88 -113 -161 -219t-130 -207q-174 -303 -174 -467zM678 590q23 63 73 162.5t126 236.5q178 319 235 320q29 0 29 -43q0 -98 -135 -320q-158 -256 -328 -356z" />
<glyph unicode=" "  horiz-adv-x="620" />
<glyph unicode="&#x09;" horiz-adv-x="620" />
<glyph unicode="&#xa0;" horiz-adv-x="620" />
<glyph unicode="!" horiz-adv-x="671" d="M-2 82q0 -98 82 -98q47 0 83 35.5t36 82.5q0 102 -86 103q-47 0 -81 -38t-34 -85zM250 369h22q147 236 222 344q348 502 348 600q0 80 -54 80q-94 0 -178 -195q-104 -248 -178 -423t-121 -281q-10 -27 -25.5 -59t-35.5 -66z" />
<glyph unicode="&#x22;" horiz-adv-x="446" d="M260 1008q0 -12 19 -15q41 0 94 60q104 112 104 225q0 39 -26.5 66.5t-65.5 27.5q-47 0 -81 -39t-34 -86q0 -61 80 -100q14 -6 15 -27q0 -37 -64 -82q-41 -23 -41 -30zM467 1008q0 -12 18 -15q41 0 95 60q104 112 104 225q0 39 -26.5 66.5t-65.5 27.5q-47 0 -81 -39 t-34 -86q0 -61 80 -100q14 -6 14 -27q0 -37 -63 -82q-41 -23 -41 -30z" />
<glyph unicode="#" horiz-adv-x="1013" d="M-98 0h43l202 375h246l-207 -375h43l207 375h207l70 123h-209l127 227h207l69 123h-209l183 332h-45l-183 -332h-243l182 332h-45l-182 -332h-197l-68 -123h197l-125 -227h-195l-67 -123h194zM215 498l127 227h244l-127 -227h-244z" />
<glyph unicode="$" horiz-adv-x="757" d="M-20 418q0 -121 106 -197l-104 -203l30 -12l107 199q49 -12 119 -12q119 0 192.5 68.5t73.5 187.5q0 88 -33 155l-63 137q-35 80 -35 146q0 53 36.5 89t90.5 36q47 0 80.5 -28t33.5 -75q0 -59 -49 -59q-23 0 -63 22q-2 -6 -2 -45q0 -76 78 -75q47 0 78.5 36.5t31.5 83.5 q0 55 -37 100.5t-92 61.5l64 121l-29 12l-68 -125q-4 2 -39 2q-106 0 -178 -59q-76 -63 -76 -170q0 -55 21 -110l68 -187q33 -86 32 -119q0 -31 -14 -60.5t-39 -51t-55.5 -34.5t-61.5 -13q-70 0 -119 44t-49 111q0 25 8.5 51.5t22.5 48t34.5 35t45.5 13.5q51 0 51 -43 q0 -41 -72 -51q47 -72 91 -72q41 0 70.5 34.5t29.5 75.5q0 55 -41 91t-98 36q-37 0 -70 -16t-57.5 -43t-37.5 -62.5t-13 -74.5z" />
<glyph unicode="%" horiz-adv-x="1032" d="M-119 -76l25 -2q25 57 51 58h25q20 0 36 12q98 172 168 258q174 215 317.5 405.5t260.5 364.5q242 131 242 207q0 35 -41 35q-92 0 -246 -220q-78 -33 -180 -41q4 27 7 49.5t3 45.5q0 119 -98 118q-121 0 -228 -137q-104 -129 -104 -252q0 -57 39 -100t94 -43 q84 0 174 102q72 84 106 183l150 26q-94 -125 -194.5 -246.5t-208.5 -244.5q-41 -47 -76 -85t-64 -67q-178 -184 -258 -426zM240 784q0 102 112 295q25 -51 47 -73q30 -17 93 -33q-18 -68 -76 -148q-72 -96 -125 -96q-51 0 -51 55zM348 170q0 -59 37 -105.5t94 -46.5 q121 0 215 150q86 135 86 260t-110 125q-109 0 -217 -139q-104 -133 -105 -244zM397 1090q0 29 18.5 51t45.5 22q53 1 53 -69q0 -33 -16 -88q-100 6 -101 84zM467 123q0 88 70 227q76 156 151 156q53 0 53 -100q0 -84 -75 -209q-80 -135 -156 -136q-43 0 -43 62zM793 1073 q106 160 159 160q19 0 19 -16q0 -39 -178 -144z" />
<glyph unicode="&#x26;" horiz-adv-x="1748" d="M14 512q0 -125 105 -205q94 -74 223 -74q55 0 129 19q53 -127 195 -203q127 -66 276 -65q190 0 326 104q145 117 145 303q0 55 -18.5 104.5t-52 86t-79.5 59.5t-102 27l365 166q250 114 250 288q0 74 -76 148l-14 -15q53 -72 53 -131q0 -127 -199 -215 q-29 -12 -103.5 -37.5t-197.5 -64.5q-393 -123 -412 -334q-47 -18 -84.5 -37.5t-70.5 -40.5q-2 10 -2 49q0 143 90 265q94 129 237 129q29 0 54.5 -2t50.5 -7l-6 23q-113 76 -113 201q0 129 92 221q94 94 223 94q72 0 126.5 -37t54.5 -106q0 -55 -40 -96.5t-96 -41.5 q-74 0 -124 76l-33 -4q57 -104 155 -104q33 0 65 14t54.5 36.5t36.5 53.5t14 66q0 104 -108 170q-94 53 -207 53q-160 0 -266 -88q-117 -96 -117 -248q0 -94 72 -190q-203 0 -328 -138q-125 -133 -125 -335q0 -63 19 -150q-35 -4 -58.5 -7t-40.5 -3q-111 0 -178.5 82 t-67.5 194l5 86q-49 -4 -74 -49q-23 -39 -23 -90zM680 348q57 35 94 55.5t55 30.5q4 -96 72 -155q72 -59 166 -60q70 0 123 39t53 107q0 33 -15.5 63.5t-40 53t-57 35.5t-67.5 13q-37 0 -117 -20q45 63 76 86q43 31 106 31q49 0 93.5 -18.5t77 -50.5t52 -76t19.5 -93 q0 -141 -100 -242q-102 -102 -240 -102q-123 0 -229 90q-104 90 -121 213zM920 395q0 31 10 72q80 33 127 33q57 0 98 -36t41 -91q0 -51 -38 -86t-89 -35q-66 0 -107.5 39t-41.5 104z" />
<glyph unicode="'" horiz-adv-x="0" d="M63 1008q0 -12 19 -15q41 0 94 60q105 112 105 225q0 39 -27 66.5t-66 27.5q-47 0 -80.5 -39t-33.5 -86q0 -61 80 -100q14 -6 14 -27q0 -37 -64 -82q-41 -23 -41 -30z" />
<glyph unicode="(" horiz-adv-x="696" d="M231 299q0 -383 258 -666q88 -98 138 -98q23 0 22 33q0 8 -104 131q-98 113 -139 238q-35 111 -35 272q0 377 207 729q119 203 294 365q41 39 102.5 85t143.5 101q103 71 103 100q0 16 -41 17q-43 0 -230 -138q-252 -184 -452 -428q-266 -322 -267 -741z" />
<glyph unicode=")" horiz-adv-x="696" d="M-330 -449q0 -16 41 -16q43 0 230 137q252 186 448 424q266 322 266 742q0 387 -258 669q-90 98 -137 99q-23 0 -22 -33q0 -8 104 -131q174 -205 174 -514q0 -377 -207 -729q-59 -100 -133 -189.5t-162 -171.5q-41 -41 -102.5 -87t-138.5 -99q-102 -72 -103 -101z" />
<glyph unicode="*" horiz-adv-x="548" d="M258 881q0 -51 55 -52q39 0 99 66q57 68 86 68q4 -4 4 -29q0 -10 -14.5 -41t-14.5 -41q0 -55 57 -55q35 0 64 22.5t29 54.5q0 14 -60 80q-14 14 -14 29q2 20 20 21q8 0 24.5 -3.5t34 -8.5t33 -8t25.5 -3q39 0 75 19.5t36 56.5q0 49 -56 49q-41 0 -75 -27q-63 -45 -88 -45 q-6 0 -11 4q0 14 64 60q72 66 71 92q0 49 -59 49q-49 0 -80 -45l-22 -107q-10 -43 -25 -49q-16 0 -31 39q-4 14 -10 27.5t-10 28.5q-16 25 -49 24q-35 0 -61.5 -19.5t-26.5 -52.5q0 -37 39 -51q14 -2 27.5 -4t27.5 -6q41 -10 41 -18q0 -27 -129 -54q-76 -14 -76 -71z" />
<glyph unicode="+" horiz-adv-x="688" d="M-2 535h176l-141 -252h143l141 252h189l31 30h-203l141 250h-143l-142 -250h-165z" />
<glyph unicode="," horiz-adv-x="499" d="M43 -156q0 -12 18 -14q41 0 95 59q104 113 104 222q0 39 -26.5 66.5t-65.5 27.5q-47 0 -81 -39t-34 -86q0 -63 80 -96q14 -6 14 -27q0 -37 -63 -82q-41 -23 -41 -31z" />
<glyph unicode="-" horiz-adv-x="548" d="M37 309q0 -12 12 -12q6 0 28.5 7t33.5 7q33 0 104 -12q35 -4 61.5 -7t42.5 -3q51 0 101 22q59 29 59 78q0 12 -8 12l-39 -6q-20 -4 -37.5 -6t-32.5 -2q-12 0 -33.5 2t-43 5l-43 6t-33.5 3q-47 0 -121 -43q-51 -31 -51 -51z" />
<glyph unicode="." horiz-adv-x="499" d="M37 82q0 -98 86 -98q47 0 83 35.5t36 82.5q0 102 -86 103q-47 0 -83 -38t-36 -85z" />
<glyph unicode="/" horiz-adv-x="737" d="M-180 -74q0 -12 10 -12q2 0 25 35q20 33 34 33q72 0 109 92q55 152 379 622q152 221 269.5 382t205.5 265l-35 5q-283 -319 -494.5 -597t-359.5 -520q-143 -231 -143 -305z" />
<glyph unicode="0" horiz-adv-x="1069" d="M-68 252q0 -55 19.5 -104.5t55.5 -84t84 -55t104 -20.5q199 0 393 174q168 154 280 383q121 245 121 456q0 117 -70.5 177.5t-187.5 60.5q-193 0 -389 -178q-160 -143 -281 -369q-129 -244 -129 -440zM59 141q0 135 129 400q94 197 234 393q199 283 317 283 q109 0 109 -160t-133 -439q-57 -121 -117.5 -220t-124.5 -179q-164 -207 -285 -207q-49 0 -89 40t-40 89z" />
<glyph unicode="1" horiz-adv-x="612" d="M-184 -131q25 25 43 44t28 36q16 -2 37 -2h45h13q8 0 20 2q14 2 16 2q4 0 -2 0q14 8 62 135q33 86 61.5 154.5t55.5 126.5q41 86 110.5 198.5t169.5 259.5q78 117 123 181.5t55 80.5q0 10 -10 11q-49 0 -293 -232q-197 -188 -246 -252l48 23q182 170 202 170 q-25 -37 -61.5 -87t-87.5 -116q-117 -150 -191.5 -270.5t-113.5 -214.5q-18 -47 -40 -109.5t-44 -140.5z" />
<glyph unicode="2" horiz-adv-x="927" d="M-317 -18v-7q2 -10 14 -14q0 12 92 25q86 12 156 12q23 0 57.5 -5t79.5 -16q96 -23 139 -22q96 0 207 80q113 80 113 172q0 16 -2 20q-137 -113 -215 -112q-47 0 -139.5 18.5t-139.5 18.5q-39 0 -104 -15q-72 -12 -105 -12q0 27 92 98q104 84 172 113l281 113 q201 80 309 165q162 129 162 295q0 123 -70.5 196t-193.5 73q-131 0 -248 -86q-129 -92 -129 -220q0 -68 40 -111.5t107 -43.5q53 0 91 32.5t38 84.5q0 96 -84 96q-4 0 -12 -1t-18 -3q0 -8 8 -32t8 -34q0 -18 -17.5 -33.5t-35.5 -15.5q-37 0 -59.5 30.5t-22.5 67.5 q0 90 78 158q76 68 170 68q76 0 132 -46.5t56 -119.5q0 -92 -90 -226q-66 -98 -162 -188q-66 -63 -268 -166q-104 -53 -173 -96t-108 -76q-207 -182 -206 -235z" />
<glyph unicode="3" horiz-adv-x="995" d="M-119 184q0 -55 20.5 -101t56.5 -80t84 -52.5t103 -18.5q197 0 359 131q172 143 172 336q0 111 -64.5 191t-175.5 90l627 444q-109 -49 -172 -49q-53 0 -157.5 24.5t-158.5 24.5q-193 0 -317 -209q86 35 146.5 52.5t99.5 19.5q68 4 250 -49l-539 -373q0 -14 31 -14l47 27 q45 25 80 24q57 0 100 -32.5t43 -90.5q0 -141 -123 -297q-135 -174 -297 -174q-84 0 -133 43q-57 45 -57 127q0 59 34.5 105.5t90.5 46.5q61 0 61 -66q0 -31 -69 -49q27 -57 73 -57q49 0 81 33.5t32 82.5q0 53 -41 94.5t-94 41.5q-76 0 -133 -74q-59 -72 -60 -152z" />
<glyph unicode="4" horiz-adv-x="968" d="M-84 338q0 -63 168 -66l207 -6q-37 -63 -58.5 -100t-29.5 -49q-74 -125 -86 -205q29 23 47 42t29 34q63 -20 104 -21q23 0 76 115q10 27 29.5 71t46.5 107l112 -6q39 -2 70 -3t55 -1q18 35 30.5 58.5t16.5 37.5l-264 -20q348 594 348 604q-16 0 -53 -41 q-205 -223 -326 -402q-41 -63 -70.5 -106t-45.5 -68l-150 -8q-49 -4 -111 6q-86 12 -86 45q0 70 256 252q233 164 360.5 254t149.5 107q137 106 166 184q4 12 4 45l-57 -51l-115 6q-94 -104 -158.5 -174t-99.5 -106.5t-126 -115.5t-238 -202q-201 -170 -201 -217z" />
<glyph unicode="5" horiz-adv-x="923" d="M-162 178q0 -102 82 -166q76 -57 178 -57q227 0 404 162q178 162 178 385q0 111 -70 198q-78 96 -180 97q-92 0 -190 -41l127 219q78 59 147 59q23 0 56.5 -2t78.5 -6q47 -4 81 -6t56 -2q16 0 70 35q16 10 34.5 26.5t39.5 36.5q51 51 51 80q0 8 -6 8l-19 -9 q-18 -9 -57 -26q-80 -35 -115 -34q-33 0 -96 20q-68 23 -100 23q-57 0 -115.5 -31t-85.5 -78l-217 -379q-23 -43 -29 -69q0 -6 4 -7q-14 0 68 72q80 74 131 74q78 0 125 -54.5t47 -134.5q0 -147 -137 -352q-152 -221 -305 -221q-88 0 -146 41q-63 49 -63 137q0 25 10 50.5 t26.5 46t39 32.5t47.5 12q68 0 67 -59q0 -49 -57 -57q23 -59 61 -60q45 0 76 33t31 78q0 55 -41 95t-96 40q-78 0 -133 -65q-57 -63 -58 -144z" />
<glyph unicode="6" horiz-adv-x="985" d="M-39 231q0 -117 80 -196q82 -80 199 -80q193 0 352 182q152 176 151 373q0 102 -61 180q-68 84 -166 84q-96 0 -192 -59q250 489 462 489q135 0 136 -92q0 -80 -62 -80q-25 0 -57 43q-31 -10 -31 -43q0 -39 27.5 -66.5t66.5 -27.5q53 0 94 39t41 92q0 72 -73 119 q-63 39 -142 39q-307 0 -573 -350q-252 -336 -252 -646zM104 109q0 86 46 227q123 395 323 395q129 0 129 -135q0 -131 -127 -360q-139 -244 -256 -244q-115 0 -115 117z" />
<glyph unicode="7" horiz-adv-x="892" d="M-203 -49v-19q70 88 137 88q2 0 13.5 -4t23 -7t20.5 -6l9 -3q8 8 29.5 46t60.5 104q53 94 98 160.5t80 105.5l477 526q218 237 218 268q0 16 -23 17l-70 -33q-41 -20 -73 -20q-49 0 -162 22q-109 25 -156 25q-115 0 -184 -68q-49 -47 -113 -170q113 70 185 86q27 6 61 6 q16 0 42 -2t58 -6q35 -4 60.5 -6t42.5 -2q18 0 46 3t62 11q76 16 109 17q-16 -27 -54 -66t-98 -92q-84 -76 -174 -143.5t-190 -131.5q-172 -104 -361 -374q-170 -242 -170 -303q0 -2 -1 -9.5t-3 -19.5z" />
<glyph unicode="8" horiz-adv-x="1064" d="M-61 281q0 -137 110 -226q106 -80 246 -80q188 0 319 107q145 115 146 297q0 127 -117 291q150 31 250 96q133 86 133 215q0 106 -96 172q-84 57 -199 57q-158 0 -270 -94q-117 -102 -117 -256q0 -96 55 -203q-461 -109 -460 -376zM92 264q0 133 98 242q100 111 232 119 q174 -193 174 -295q0 -121 -92 -226q-90 -104 -209 -104q-94 0 -152 88q-51 76 -51 176zM489 952q0 84 78 162q76 76 164 76q166 0 166 -166q0 -117 -88 -205q-76 -82 -193 -121q-55 27 -92 111q-35 76 -35 143z" />
<glyph unicode="9" horiz-adv-x="1003" d="M-178 145q0 -76 82 -125q70 -39 151 -38q201 0 402 172q168 145 288 370q134 244 134 445q0 57 -18.5 106t-52.5 86t-82 57.5t-105 20.5q-205 0 -365 -170q-158 -170 -158 -375q0 -98 49 -174q59 -84 152 -84q102 0 186 37q-115 -209 -184 -295q-139 -172 -283 -172 q-113 0 -112 103q0 70 57 69q27 0 62 -49q12 27 19 42t9 24q0 80 -90 79q-47 0 -94 -40.5t-47 -88.5zM233 602q0 137 142 369q150 246 274 246q45 0 69.5 -39t24.5 -86q0 -186 -118 -398q-127 -227 -263 -227q-55 0 -92 40t-37 95z" />
<glyph unicode=":" horiz-adv-x="499" d="M-49 72q0 -98 82 -99q47 0 83 36t36 83q0 102 -86 103q-47 0 -81 -38t-34 -85zM184 498q0 -102 86 -103q47 0 83 38t36 85q0 102 -86 103q-47 0 -83 -38t-36 -85z" />
<glyph unicode=";" horiz-adv-x="499" d="M-43 -156q0 -12 18 -14q37 0 91 59q104 113 104 222q0 39 -26.5 66.5t-65.5 27.5q-47 0 -79 -39t-32 -86q0 -63 76 -96q14 -6 14 -27q0 -35 -59 -82l-29 -14q-12 -6 -12 -17zM164 498q0 -102 86 -103q47 0 83 38t36 85q0 102 -86 103q-47 0 -83 -38t-36 -85z" />
<glyph unicode="&#x3c;" horiz-adv-x="1953" d="M20 639q0 -115 78 -203q80 -84 195 -84q135 0 278 107q-39 -76 -39 -172q0 -111 84 -195q82 -82 197 -82q113 0 197 68q82 70 82 182q0 45 -16.5 87t-44 74t-67.5 50t-85 18q-76 0 -131.5 -47t-55.5 -123q0 -61 44 -110t106 -49q47 0 76.5 38t29.5 85q0 53 -37 53 l-20 -31q-20 -29 -49 -33q-63 -2 -64 74q0 47 26.5 80t74.5 33q88 0 140 -55.5t52 -143.5q0 -207 -258 -207q-82 0 -164 76q-84 78 -84 158q0 129 47 194.5t123 114.5q84 53 160 53q47 0 94 -10q0 -109 76 -193q78 -84 180 -84q55 0 125 17q207 -150 371 -150q59 0 99 33 t40 90q0 66 -53 101q-45 33 -113 32q-117 0 -313 -69q-4 4 -32 27.5t-77 68.5q-109 96 -250 143q0 55 60 105q57 49 117 49q121 0 227 -78q68 -51 168 -178l37 -4q-225 313 -432 313q-90 0 -160 -55q-72 -55 -72 -141q-68 6 -92 6q-131 0 -309 -172q-98 -66 -137 -86 q-76 -35 -156 -35q-104 0 -172 75.5t-68 182.5q0 88 80 156q78 70 170 69q100 0 159.5 -57t59.5 -158q0 -152 -164 -151q-37 0 -67.5 26.5t-30.5 63.5q0 68 53 73q8 2 20.5 -1t25 -7t22.5 -8t12 -4q6 0 6 6q0 121 -100 121q-55 0 -94 -44t-39 -99q0 -74 61 -119 q53 -45 129 -45q80 0 133.5 53t53.5 133q0 100 -72 172t-172 72q-113 0 -193 -68q-86 -72 -86 -182zM1040 629q41 -16 75 -31.5t56 -32.5q49 -43 93.5 -84t83.5 -82q-31 -4 -56.5 -7t-46.5 -3q-84 0 -145 80q-59 76 -60 160zM1423 393q156 66 291 66q55 0 96 -25 q48 -29 48 -82q0 -45 -35 -70.5t-82 -25.5q-106 0 -318 137z" />
<glyph unicode="=" horiz-adv-x="985" d="M0 315q0 -10 10 -10q41 0 119 6q41 4 70.5 6t50.5 2q51 0 160 -12q53 -4 94 -7t67 -3q119 0 226 78q28 23 28 35q0 18 -22 18q-14 0 -34.5 -2t-49.5 -6t-49.5 -6t-34.5 -2q-31 0 -77 3t-107 7q-121 12 -183 12q-70 0 -180 -41q-88 -33 -88 -78zM0 594q0 -10 10 -10 q41 0 119 6q41 4 70.5 6t50.5 2q51 0 160 -12q53 -4 94 -7.5t67 -3.5q119 0 226 78q28 23 28 35q0 18 -22 19q-14 0 -34.5 -2.5t-49.5 -6.5t-49.5 -6t-34.5 -2q-31 0 -77 3t-107 7q-121 12 -183 13q-70 0 -180 -41q-88 -33 -88 -78z" />
<glyph unicode="&#x3e;" horiz-adv-x="1953" d="M49 352q0 -57 40 -90t99 -33q164 0 371 150q70 -16 125 -17q102 0 180 84q76 84 76 193q47 10 94 10q76 0 160 -53q76 -49 123 -114.5t47 -194.5q0 -80 -84 -158q-82 -76 -164 -76q-258 0 -258 207q0 88 52.5 143.5t140.5 55.5q47 0 73.5 -33t26.5 -80q0 -76 -64 -74 q-27 2 -47 33l-22 31q-37 0 -37 -53q0 -47 29.5 -85t76.5 -38q61 0 105.5 49t44.5 110q0 76 -55.5 123t-130.5 47q-47 0 -86 -18t-67 -50t-44 -74t-16 -87q0 -113 82 -182q82 -68 196 -68q115 0 197 82q84 84 84 195q0 96 -39 172q143 -106 278 -107q115 0 193 84 q80 86 80 203q0 109 -84 180q-82 70 -195 70q-102 0 -174 -72q-70 -70 -70 -172q0 -80 53.5 -133t133.5 -53q37 0 71.5 12t60.5 33.5t42 51.5t16 67q0 55 -38.5 99t-94.5 44q-100 0 -100 -121q0 -6 6 -6q2 0 11 4t21.5 8t26 7.5t21.5 0.5q53 -6 53 -73q0 -37 -30.5 -63.5 t-67.5 -26.5q-164 0 -164 151q0 100 59.5 157.5t159.5 57.5q92 0 170 -69q80 -68 80 -156q0 -106 -67.5 -182t-172.5 -76q-80 0 -155 35q-39 20 -138 86q-178 172 -309 172q-25 0 -92 -6q0 86 -71.5 141t-159.5 55q-209 0 -432 -313l36 4q100 127 168 178q106 78 228 78 q57 0 116.5 -49t59.5 -105q-80 -29 -121 -49q-63 -35 -129 -94q-49 -45 -77 -68.5t-32 -27.5q-197 70 -313 69q-68 0 -113 -32q-53 -35 -53 -101zM72 352q0 53 47 82q39 25 96 25q135 0 291 -66q-211 -137 -318 -137q-47 0 -81.5 25.5t-34.5 70.5zM582 399q82 78 125 120 t51 46q41 29 131 64q0 -84 -60 -160q-61 -80 -145 -80q-20 0 -46 3t-56 7z" />
<glyph unicode="?" horiz-adv-x="1069" d="M23 82q0 -98 86 -98q47 0 82.5 35.5t35.5 82.5q0 102 -86 103q-47 0 -82.5 -38t-35.5 -85zM195 428q0 -84 86 -84q29 0 94 16l-23 15q-23 -8 -51 -8q-78 0 -78 61q0 25 21.5 53.5t44.5 40.5l426 211q119 59 211 164q110 123 110 236q0 115 -98 188q-88 70 -207 70 q-195 0 -356 -125q-176 -133 -176 -320q0 -51 32.5 -86t83.5 -35q59 0 138 54l-21 6q-66 -37 -113 -37q-43 0 -70.5 28.5t-27.5 71.5q0 139 156 262q145 115 291 115q92 0 155.5 -49t63.5 -137q0 -117 -160 -267q-104 -98 -170 -139q-131 -80 -206 -129t-97 -65 q-59 -47 -59 -111z" />
<glyph unicode="@" horiz-adv-x="1415" d="M-12 313q0 -211 131 -329q133 -121 346 -121q303 0 557 217q53 45 98 99t84 120h-41q-276 -393 -682 -393q-201 0 -317 92q-127 102 -127 295q0 86 29 196q74 281 292 472q229 199 512 198q162 0 256 -76q109 -84 109 -237q0 -156 -117 -340q-29 -45 -62.5 -89t-74.5 -85 q-109 -111 -176 -111q-90 0 -90 78q18 59 43 107l268 503q-10 -4 -35 -28q-25 -27 -33 -27q-14 0 -42.5 6t-43.5 6q-18 0 -43 -30q-35 49 -104 49q-172 0 -315.5 -135.5t-143.5 -307.5q0 -203 140 -202q104 0 194 120q-4 -27 -7 -45t-3 -30q0 -115 162 -115q104 0 225 104 q96 82 166 193q135 209 135 381t-119 264q-109 84 -285 84q-295 0 -544 -207q-248 -205 -322 -495q-20 -84 -20 -181zM387 338q0 111 117 299q131 211 252 211q43 0 43 -49q0 -37 -209 -393q-80 -135 -162 -136q-41 0 -41 68z" />
<glyph unicode="A" horiz-adv-x="2172" d="M227 -186q229 -205 576 -205q289 0 631 184q51 29 84.5 48.5t54.5 29.5q59 -41 105 -71.5t81 -49.5q176 -90 374 -90h9q133 4 248 90q127 98 127 223q0 102 -88 170q-78 63 -186 64q-113 0 -220 -49q-84 -39 -434 -252l-61 57q197 102 342 309q74 109 102 187 q31 84 43 207q430 168 430 536q0 254 -231 412q-207 139 -471 139q-256 0 -475 -149q-248 -168 -248 -410q0 -301 237 -399l7 26q-215 94 -215 373q0 231 239 389q211 141 455 141q256 0 450 -131q223 -150 224 -391q0 -342 -398 -500q25 338 228 527q69 62 69 85v1 q0 33 -20 33q-336 -98 -594 -443q-111 -145 -160 -258h-510q-211 0 -366 -112q-176 -127 -177 -328q0 -131 99 -201q88 -61 223 -61q299 0 588 426q59 90 99 150.5t63 94.5q158 0 249 19q0 -96 -75 -281q-29 -72 -51.5 -125t-38.5 -90q-10 -23 -76 -82q-63 -57 -84 -57 q-98 45 -164 45q-51 0 -51 -41q0 -61 112 -61q20 0 44 3t53 7l73 -66q-436 -258 -749 -258q-338 0 -561 199q-236 203 -236 537q0 315 195 516q192 198 507 198h3q53 0 118 -26v24q-68 25 -118 25q-332 0 -529 -203q-194 -204 -194 -531q0 -345 239 -554zM586 207 q0 178 176 299q156 106 344 106h412q-190 -295 -277 -389q-225 -250 -430 -250q-225 0 -225 234zM1313 0q0 12 18 12h2q26 0 92 -28q-45 -10 -67 -11q-45 0 -45 27zM1583 647q51 141 211 326q33 35 76 78t100 90q144 123 193 123q2 0 2 -2q-10 -16 -80 -99 q-236 -272 -273 -497q-98 -18 -229 -19zM1610 -113q338 205 409 238q117 53 226 53q49 0 93 -15.5t77.5 -42t53 -65.5t19.5 -84q0 -117 -116 -202q-109 -80 -230 -80q-297 0 -532 198z" />
<glyph unicode="B" horiz-adv-x="2179" d="M20 522q0 -266 175 -422q163 -149 430 -149h4q315 0 526 131q174 111 344 373q43 68 100 262q51 182 105 254q152 207 229 246q82 -45 82 -246q0 -133 -164 -287q-51 45 -98 45q-65 0 -65 -44q0 -26 28.5 -43t52.5 -17q12 0 25.5 1t28.5 3q12 -66 12 -125 q0 -166 -68 -228q-147 0 -276 -40q-184 -59 -184 -191q0 -90 139 -94q88 0 171 21.5t151.5 65.5t122 107.5t83.5 145.5q137 57 250 155l-16 17q-113 -100 -221 -137q0 195 -99 315q121 70 176 131q76 82 76 199q0 80 -55 157q-10 12 -35 41t-65 74q174 72 286 72 q106 0 223 -47q145 -61 146 -154q0 -45 -62 -82q-49 -33 -100 -41l21 -20q61 10 112 45q60 43 60 98q0 102 -156 170q-129 55 -244 55q-127 0 -200 -26q-45 -16 -77 -27.5t-48 -19.5q-45 23 -82 39t-66 26q-117 41 -266 41q-188 0 -332 -53q-35 -14 -201 -111 q-147 59 -254 60q-301 0 -512 -224q-213 -223 -213 -522zM43 522q0 285 209 504q211 221 493 221q123 0 232 -59q-88 -82 -109 -111q-77 -108 -77 -230q0 -142 75 -231q82 -94 219 -94q49 0 146 31q-39 -123 -166 -188q-82 -41 -166 -41v-29q66 0 125 21.5t109.5 60.5 t88.5 92t60 117q111 111 111 209q0 43 -17 88q-2 2 -9 14t-21 39l-23 -6q43 -83 43 -129v-8q0 -33 -21.5 -71t-41.5 -73q4 29 6 47.5t4 24.5q0 289 -293 471q121 84 217 117q123 43 295 43q205 0 375 -109q-164 -63 -312 -225q-135 -147 -202 -328q-33 -86 -52.5 -134 t-23.5 -60q-72 -160 -176.5 -267.5t-233.5 -175.5q-143 -76 -278 -76q-258 0 -418 142q-168 150 -168 403zM813 842q0 109 57 192q31 45 129 144q289 -160 289 -457q0 -35 -31 -105q-73 -67 -169 -67h-3q-129 0 -200.5 82t-71.5 211zM1331 45q0 115 168 166q115 35 262 35 q-35 -47 -61.5 -82t-44.5 -58q-118 -118 -232 -118h-6q-86 2 -86 57zM1729 684q0 18 24 18h2q30 0 62 -38q-23 -8 -48 -9q-41 0 -40 29z" />
<glyph unicode="C" horiz-adv-x="1910" d="M6 178q0 -305 174 -500q181 -206 481 -206h3q172 0 368 82q135 53 226.5 91t142.5 60q203 82 393 82q170 0 334 -70q209 -90 209 -233q0 -41 -31 -98q2 -2 4 -5.5t6 -7.5q45 64 45 111q0 166 -213 256q-160 70 -354 70q-186 0 -395 -82q-137 -53 -231.5 -91t-147.5 -61 q-203 -82 -356 -82q-287 0 -465 203q-170 195 -170 481q0 362 268 627q270 264 633 264q41 0 94 -2t119 -6q164 -10 164 -27q-63 -35 -127 -90t-129 -129q-213 -242 -213 -481q0 -262 194 -359q83 -114 197 -114h2q215 0 434 293l-16 18q-225 -283 -418 -283q-78 0 -129 64 q12 -2 21.5 -3t17.5 -1q201 0 383 194q180 193 180 400q0 188 -162 188q-233 0 -401 -235q-143 -199 -144 -390q0 -29 2 -34q-45 45 -45 117v6q2 111 74 258q82 170 191 290q143 156 264 258q141 -20 238.5 -29t154.5 -9q117 0 207 36q123 51 123 150q0 119 -207 119 q-291 0 -666 -209q-14 2 -47 5t-86 9q-158 18 -270 19q-377 0 -651 -269q-272 -266 -273 -645zM1032 119q0 176 144 368q154 207 323 207q135 0 135 -137q0 -168 -161 -367q-169 -202 -332 -202h-2q-45 0 -84 24q-23 63 -23 107zM1526 1022q297 223 473 223q184 0 184 -96 q0 -164 -307 -164q-102 0 -350 37z" />
<glyph unicode="D" horiz-adv-x="1744" d="M14 588q0 -100 66 -242l18 12q-59 160 -59 230q0 176 115 321q29 -102 79 -182q121 -182 332 -182q115 0 207 80t92 194q0 141 -119 228q-108 77 -249 77h-4q-154 0 -322 -153v20q-2 10 -2 21q0 197 139 358q184 213 527 213q303 0 516 -182q68 -57 69 -76l-86 -49 q-260 -147 -481 -592q-47 -96 -141 -344q-61 -168 -107 -195q-41 29 -71.5 48.5t-51.5 29.5q-102 57 -200 58q-76 0 -131 -37q-63 -39 -64 -113q0 -98 88 -143q70 -39 176 -39q158 0 301 96q143 -96 301 -98h4q274 0 482 299q190 272 190 563q0 287 -143 504q150 24 205 24 h4q100 0 159 -20q33 -10 70 -29.5t78 -48.5l8 16q-100 106 -315 107q-129 0 -228 -33q-233 279 -632 279q-295 0 -484 -156q-205 -168 -205 -453v-32q0 -12 2 -23q-51 -76 -71 -113q-61 -115 -62 -243zM121 131q0 55 37 89t92 34q123 -4 235 -70q49 -28 86 -65 q-158 -135 -270 -135q-72 0 -123 36q-57 43 -57 111zM174 936q158 164 318 164q139 0 235 -70q113 -76 113 -211q0 -104 -86 -178q-84 -72 -189 -72q-158 0 -262 109q-92 94 -129 258zM686 76q117 96 145 131q104 129 164 305q31 94 52.5 159.5t31.5 102.5q127 399 363 512 q31 -16 59 -145q21 -96 21 -166q0 -309 -179 -617q-207 -354 -491 -354q-39 0 -166 72z" />
<glyph unicode="E" horiz-adv-x="1992" d="M0 602q0 -63 33 -127l24 17q-30 59 -30 109q0 234 290 353q221 90 484 90q168 0 381 -36q2 -2 12 -33l8 -27q8 -29 22.5 -57.5t35.5 -59.5q-10 2 -25 3h-31q-203 0 -327 -123q-125 -119 -125 -322q0 -223 155 -342q138 -108 365 -108h4q201 0 346 141q147 143 147 344 q0 100 -53 170q-57 76 -155 76q-135 0 -250 -109q-113 -106 -113 -244q0 -39 12.5 -73.5t36 -61t55 -42t68.5 -15.5q139 0 205 145q35 82 35 222h-25q0 -133 -43 -222q-55 -116 -170 -116h-2q-63 0 -103 49t-40 114q0 121 106 222q109 102 228 102q88 0 137 -68 q43 -59 43 -149q0 -184 -139 -318q-137 -131 -326 -131q-147 0 -244 127q-86 117 -86 273q0 139 96 258q94 119 236 119q51 0 92 -23q37 -47 82 -47q25 2 25 25q0 20 -35 38q-43 23 -45 29q-23 31 -33 100q-4 47 -6 66q131 -47 211 -47q102 0 184 57q90 66 90 162 q0 104 -86 178q-84 68 -188 68q-322 0 -387 -318q-262 31 -381 31q-276 0 -504 -96q-297 -125 -297 -373zM1352 1020q0 98 90 182t192 84q74 0 129.5 -50t55.5 -124q0 -98 -80 -149q-70 -45 -170 -45q-111 0 -209 61q-8 14 -8 41z" />
<glyph unicode="F" horiz-adv-x="2101" d="M16 496q0 -350 217 -570q217 -223 566 -223q186 0 389 84q211 88 323 225q125 156 277 705l123 -19q-16 -186 -19 -206q-16 -98 -63 -99q-27 0 -57 15l-15 -15q33 -33 70 -33q176 0 176 273v35q0 16 -2 26q43 6 82 39t39 74q0 70 -66 70q-92 0 -135 -140l-121 23 q82 199 178 246q37 16 146 34q96 16 104 27v8q-166 -6 -239 -24q-109 -29 -209 -111q-47 -53 -79 -92t-48 -62l-82 17l-10 -31l77 -16q-100 -272 -165.5 -437t-96.5 -229q-47 -90 -129 -172q-198 -194 -445 -194h-3q-322 0 -525 229q-192 216 -192 540q0 312 201 541 q209 236 516 236q174 0 315 -86q-20 -25 -50 -62t-71 -86q-104 -158 -104 -313q0 -127 59 -211q68 -92 193 -92q10 0 23.5 1t31.5 3v22q-16 -2 -28.5 -3t-20.5 -1q-115 0 -178 86q-57 76 -58 195q0 100 76 250q78 154 160 192q80 -61 143 -166q92 -154 92 -319 q0 -213 -139 -395q-152 -197 -354 -197q-117 0 -211 80q-96 80 -96 192q0 78 26 150q0 14 -14 29q-35 -117 -35 -179q0 -121 107 -208q100 -86 223 -86q215 0 371 204q145 193 145 410q0 182 -102 346q-78 123 -132 152q130 122 450 122h5q197 0 473 -83q59 -20 275 -130 q154 -81 289 -81h3q80 0 158 51q92 57 92 129q-102 -160 -250 -160q-139 0 -311 98q-117 66 -194.5 111t-122.5 72q-184 98 -412 98q-258 0 -496 -201q-172 86 -331 86q-336 0 -559.5 -229.5t-223.5 -564.5zM1997 748q0 23 20 55q20 37 39 37q31 0 31 -23q0 -31 -27.5 -53.5 t-58.5 -22.5q-4 0 -4 7z" />
<glyph unicode="G" horiz-adv-x="1869" d="M0 211q0 -371 258 -588q-2 -8 -2 -39q0 -147 96 -243q94 -98 244 -99q293 0 524 301q98 129 170 301l150 185q135 -59 356 -197q121 -76 208 -126t140 -77q137 -69 271 -69h4h2q303 0 379 321h-21q-27 -143 -120 -222t-240 -79q-156 0 -367 129q-446 272 -594 338 q47 47 121 86q113 57 221 57l-4 21q-201 0 -356 -156l-47 27q47 92 139 245.5t227 374.5l-20 9l-62 -86q-66 28 -90 28h-2q-92 0 -295 -540q-145 29 -213 30q-22 1 -46 1q-59 0 -128 -7q4 117 21 182q18 70 71 170q143 270 371 443q31 -4 56.5 -6t47.5 -2q29 0 64 3t78 7 q76 10 153.5 26.5t155.5 43.5q233 76 233 172q0 61 -77 96q-53 26 -124 26h-5q-358 0 -785 -313q-225 43 -350 43q-354 0 -584 -233q-229 -229 -229 -584zM18 211q0 340 226 569q227 229 569 230q53 0 133 -12t191 -35q-96 -104 -160 -179t-96 -127q-117 -178 -117 -370 q0 -45 35 -174q-336 -102 -486 -351q-35 -57 -51 -114q-82 70 -145 184q-98 172 -99 379zM279 -395q20 -23 122 -56q129 -41 244 -41q269 1 580 269q0 -35 -70 -148q-226 -368 -557 -368h-2q-147 0 -236 100q-82 94 -81 244zM283 -369q47 178 227 322q127 98 297 141 q109 -127 229 -127q78 0 254 109q-37 -195 -67 -269q-23 -29 -69 -66.5t-118 -82.5q-203 -129 -391 -129q-168 0 -362 102zM909 109q45 4 87 7t81 3q128 -17 183 -31q-139 -98 -226 -98q-98 0 -125 119zM1313 -98l69 155l39 -20zM1382 956q385 299 615 299q45 0 82 -18 q47 -22 47 -61q0 -78 -221 -148q-176 -57 -291 -65q-72 -6 -232 -7z" />
<glyph unicode="H" horiz-adv-x="1925" d="M4 438q0 -197 119 -321q43 -47 141 -107q-53 -172 -53 -270q0 -248 147 -422q158 -188 398 -188q305 0 395 282l-21 -6q-90 -258 -374 -258q-195 0 -346 145q-176 170 -177 447q0 143 52 260q59 -35 141 -35q344 0 590 260q86 90 133 193q18 33 86 215l352 69 q-29 -74 -56.5 -147.5t-55.5 -146.5q-90 -213 -152 -279q-10 -10 -36.5 -32.5t-74.5 -61.5q-72 41 -110 41q-68 0 -68 -58q0 -53 66 -53q51 0 117 35q102 -59 165 -59q125 0 265 141v24q-158 -147 -265 -147q-47 0 -135 51q104 35 285 215q104 104 280 508q225 57 408 158 q238 133 238 266q0 80 -123 80q-143 0 -305 -74q-160 -72 -254 -182q-66 -78 -111 -141.5t-72 -112.5q-98 -20 -186 -36.5t-166 -31.5q10 47 19.5 78t13.5 47q84 180 147 244q49 33 87 55.5t67 32.5q94 -61 147 -61q74 0 74 55q0 53 -115 53q-51 0 -108 -12q-43 31 -164 149 q-98 98 -170 138q-100 57 -231 57q-150 0 -287 -86q-141 -88 -211 -219q-37 -68 -37 -217q-133 -29 -246 -105q-223 -150 -223 -430zM23 438q0 391 450 516q35 -225 242 -225q55 0 153 25q37 -78 37 -174q-68 -27 -117 -47.5t-81 -36.5q-190 -92 -320 -271q-29 0 -53 60 q-20 49 -21 86q0 213 228 303l-4 12q-244 -84 -244 -315q0 -106 78 -160q-14 -8 -56 -84q-31 -57 -45 -96q-25 16 -43 27.5t-30 19.5q-174 129 -174 360zM291 23l37 79q14 29 29.5 52.5t31.5 44.5q45 -31 96 -31q330 0 445 399q64 19 80 19q-27 -70 -45.5 -118t-28.5 -75 q-74 -178 -195 -287q-140 -122 -312 -122h-3q-72 0 -135 39zM406 213q10 20 34.5 48t59.5 63q113 106 215 153q124 55 190 80q-106 -371 -416 -371q-39 0 -83 27zM494 954q131 0 208 -36q86 -40 154 -146q-111 -24 -141 -24h-2q-184 0 -219 206zM494 973q0 152 30 205 q57 94 185 159q123 59 239 60q307 0 588 -256q-39 -16 -81 -39t-89 -49q-25 -14 -100 -84q-102 -96 -136 -148q-35 -59 -63.5 -111.5t-50.5 -99.5l-86 -18q0 102 -41 174q49 27 99 59.5t102 73.5l-9 14q-41 -35 -93 -67.5t-111 -61.5q-82 111 -164 150q-78 39 -219 39z M1057 16q0 35 33 35q37 0 96 -35q0 -12 -39 -20q-20 -4 -32.5 -7t-20.5 -3q-37 0 -37 30zM1610 1126q63 18 108 19q58 0 58 -35q0 -33 -35 -33q-45 0 -131 49zM1819 762q39 125 194 280q176 176 322 177q104 -1 104 -62q0 -111 -207 -233q-92 -53 -194.5 -94.5t-218.5 -67.5 z" />
<glyph unicode="I" horiz-adv-x="1615" d="M6 750q0 -125 19 -220q0 -299 206 -458q164 -125 390 -125q289 0 466 128t269 402q145 29 241 133q45 47 89 150q33 74 32 98l-18 8q-55 -172 -117 -235q-29 -29 -104 -74q-84 -49 -115 -49q0 49 45 170q158 436 459 532q101 33 246 37q-4 20 -5 21q-10 25 -75 43 q-14 4 -37 9t-55 11q-127 25 -242 25q-383 0 -596 -195q-102 -94 -143 -215q-147 111 -326 111q-313 0 -485 -228q-72 -98 -109 -227q-8 51 -12 88t-4 60q0 246 174 432q176 188 419 188q106 0 205 -45l4 18q-90 45 -206 46q-254 0 -435 -193q-180 -188 -180 -446zM47 492 q78 -154 127 -216q137 -165 354 -165h13q401 2 540 417q35 -23 59 -36t38 -17q-63 -162 -224 -323q-182 -182 -333 -183q-244 0 -402 140q-154 137 -172 383zM49 545q117 493 584 493h2q184 0 317 -114q4 -123 19 -193q22 -98 92 -186q-63 -160 -119 -232 q-145 -184 -403 -184q-340 0 -492 416zM975 901q61 -90 74 -172q4 -35 8 -69.5t6 -69.5q-57 90 -70 147q-14 111 -18 164zM981 928q66 213 287 319q186 92 432 92q84 0 198 -18q156 -24 179 -61q-190 -8 -281 -31q-301 -72 -496 -447q-18 -35 -46.5 -105.5t-67.5 -176.5 q-68 33 -101 55q-8 203 -59 303q-10 16 -20.5 34.5t-24.5 35.5z" />
<glyph unicode="J" horiz-adv-x="1925" d="M18 215q0 -276 172 -451q174 -178 449 -178q254 0 467 148q201 139 311 377q29 -4 49.5 -6.5t34.5 -2.5q121 0 223 127q90 115 97 207q-2 6 -4 16.5t-7 26.5q-98 -352 -307 -352q-12 0 -73 12q139 311 217.5 483.5t99.5 213.5q182 348 547 348q18 0 52 -8.5t46 -8.5 q25 0 25 37q0 35 -54 41l-147 55q-147 55 -350 56q-332 0 -580 -172q-14 -10 -34.5 -27.5t-49.5 -40.5q-162 150 -399 150q-328 0 -508 -271q-96 -147 -139 -352q-37 -63 -56.5 -98t-23.5 -41q-57 -106 -58 -289zM43 215q0 207 125 399q-2 -18 -3 -33.5t-1 -25.5 q0 -223 137 -405q160 -213 414 -213q295 0 463 266q37 -21 53 -37q-72 -195 -215 -354q-180 -199 -377 -199q-258 0 -426 174q-170 176 -170 428zM188 670q63 209 131 311q174 264 484 264q127 0 256 -61q94 -47 129 -86q-18 -14 -47 -54t-68 -110q-35 -61 -61 -123 q-176 115 -318 115q-178 0 -291 -58q-125 -57 -215 -198zM193 631q61 102 120 153q143 117 381 117q131 0 310 -117q-18 -135 -19 -202q0 -193 166 -361q0 -16 -47 -76q-152 -184 -389 -184q-254 0 -398 215q-125 186 -124 455zM1016 665q4 46 12 101q162 -150 162 -367 q0 -72 -25 -147q-153 159 -153 328q0 39 4 85zM1036 797q80 207 170 282q63 -70 101 -161l16 16q-45 100 -102 164q66 47 110.5 76.5t71.5 44.5q217 114 459 114h4q147 0 303 -45q135 -39 145 -55v-16q-80 -2 -139 -5.5t-100 -11.5q-272 -49 -447 -254q-94 -109 -176 -293 l-207 -456q-18 0 -51 30q25 113 25 172q0 152 -78 277q-12 20 -38 50t-67 71z" />
<glyph unicode="K" horiz-adv-x="2154" d="M0 418q0 -203 143 -334q139 -127 344 -127q315 0 523 270q45 59 84 134t71 167q16 47 28.5 88t23.5 76q45 0 86 -49q41 -45 45 -94l22 -365q6 -111 94 -174q84 -59 195 -59q139 0 248 98q108 101 108 236q0 94 -54 150.5t-146 56.5q-27 0 -27 -19v-2q92 0 145.5 -48 t53.5 -136q0 -106 -80 -201q-84 -98 -187 -98q-102 0 -172 153q-8 20 -12 82q-2 25 -1 58.5t3 79t3 79t1 56.5q0 111 -110 170q-90 47 -213 47l10 37q104 -18 190 -19q199 0 283 109q33 43 86 172q70 168 92 211q119 221 328 221q49 0 145 -39v14q-78 43 -145 43 q-217 0 -365 -196q-82 -111 -137 -184.5t-84 -112.5q-39 -51 -79 -86t-86 -57.5t-100 -33t-122 -12.5q72 342 248 437q63 -27 108 -39.5t74 -14.5h8q64 0 64 64q0 51 -72 55h-6q-60 0 -160 -35q-141 104 -219 160.5t-92 67.5q-100 59 -221 59q-223 0 -393.5 -151.5 t-170.5 -372.5q0 -10 1.5 -23.5t3.5 -32.5q-49 -16 -78 -25t-39 -14q-145 -57 -223 -200q-68 -127 -68 -297zM20 418q0 358 285 477q35 10 62.5 19.5t46.5 13.5q23 -74 94 -129q76 -55 154 -56q23 0 49 3.5t59 7.5q78 12 78 26q45 -57 45 -198q0 -166 -115 -281 q-113 -113 -278 -113q-86 0 -130 55.5t-44 141.5q0 190 190 283l-4 18q-92 -39 -151.5 -121t-59.5 -180q0 -94 53.5 -157.5t145.5 -63.5q143 0 264 94q154 117 154 324q0 129 -48 213q47 29 101 75q10 10 30.5 30t49.5 52l-15 17q-80 -94 -180 -156q-137 156 -336 156 q-23 0 -45 -2t-43 -6q-2 18 -3 31.5t-1 21.5q0 180 162 303q150 115 334 115q115 0 284 -62q168 -57 260 -135q-127 -57 -260 -203q-141 -154 -174 -278q-94 -344 -166 -488q-149 -284 -379 -284h-2q-190 0 -327 124q-139 127 -140 312zM436 934q23 4 43.5 7t38.5 3 q193 0 316 -143q-72 -33 -175 -33q-35 0 -70.5 13.5t-66 36t-53.5 52t-33 64.5zM1526 1229q78 23 135 26q7 1 13 1q40 0 40 -29q0 -35 -53 -35q-96 20 -135 37z" />
<glyph unicode="L" horiz-adv-x="2002" d="M8 131q0 -94 103 -141q76 -37 186 -37q78 0 166 35q27 10 64.5 29.5t88.5 48.5q86 -41 153 -72t118 -47q143 -49 289 -49q252 0 456 143q232 163 232 403q0 176 -178 281l-13 -23q158 -117 158 -258q0 -219 -199 -325q-158 -84 -397 -84q-227 0 -510 96q135 178 188 287 q31 63 54.5 145t40.5 182q207 86 346 232q166 172 166 371q0 143 -162 143q-78 0 -172 -74q-78 -59 -135 -135q-96 -127 -123 -184q-59 -121 -125 -393q-104 -61 -211 -62q-172 0 -287 133q-110 124 -110 298q0 234 170 380q164 139 397 139q10 0 55 -4t123 -12 q-66 37 -178 37q-244 0 -412 -144q-176 -154 -176 -393q0 -184 115 -317q119 -137 303 -137q74 0 203 49q-35 -131 -87.5 -253t-117.5 -239q-211 113 -338 113q-86 0 -156 -39q-88 -45 -88 -123zM35 131q0 53 61 94q53 35 113 35q119 0 346 -147q-29 -27 -64.5 -50.5 t-76.5 -41t-82 -27.5t-78 -10q-78 0 -141 32q-78 43 -78 115zM1006 780q0 186 86 412q106 278 265 278h1h2q133 0 133 -122q0 -152 -172 -338q-158 -170 -315 -230z" />
<glyph unicode="M" horiz-adv-x="2295" d="M-4 440q0 -211 182 -356q170 -131 391 -131q137 0 291 65q168 74 223 189q70 147 117 249.5t74 159.5q133 283 248 408q-90 -188 -111 -307q-25 -133 -25 -467q0 -98 -14 -135q-10 -31 -23.5 -66t-29.5 -74q0 -10 10 -26q61 68 211 284q98 141 170 239.5t119 158.5 q150 186 348 338q-434 -551 -434 -799q0 -88 39 -141q45 -63 127 -64q123 0 231 228q-10 -2 -15 -3.5t-7 -1.5q-8 -20 -21.5 -45.5t-36.5 -54.5q-68 -92 -123 -92q-65 0 -65 91q0 128 139 423q254 535 412 627q154 90 260 129q139 47 305 59l2 23q-195 -12 -330 -60 q-68 -25 -254 -129q-453 -256 -872 -866q74 217 80 276q1 7 1 46t-1 110q0 96 6 156q29 225 109 331q25 -10 40 -10q47 0 48 35q0 31 -43 31q-37 0 -80 -25q-338 111 -402 111q-211 0 -342 -78q-159 -97 -159 -295q0 -113 63 -182q68 -78 174 -78q80 0 143 94h-12 q-43 -43 -104 -43q-90 0 -148 76q-51 70 -51 162q0 172 139 258q111 69 292 69h5q72 0 383 -106q-129 -78 -264 -287q-43 -66 -121 -201t-192 -342q-236 -426 -529 -426q-256 0 -417 162q-137 137 -138 303q0 201 129 353q132 157 331 157h3q147 0 260 -90q117 -96 117 -244 q0 -139 -100 -247q-104 -117 -240 -117q-106 0 -164.5 72.5t-58.5 183.5q0 68 43 172l-25 6q-41 -119 -41 -178q0 -121 62 -197q63 -82 184 -82q145 0 256 123q106 115 107 264q0 158 -123 261q-119 96 -277 96q-209 0 -346 -162q-135 -160 -135 -371z" />
<glyph unicode="N" horiz-adv-x="2131" d="M0 342q0 -248 170 -387q158 -133 412 -133q430 0 731 577q166 315 325 645q-29 -195 -30 -307q-1 -14 -1 -29q0 -31 3 -70q4 -58 12 -134q8 -80 12 -138.5t4 -95.5q0 -61 -41 -172q-14 -35 -23 -59.5t-15 -38.5q0 -20 26 -20q25 0 84 92l148 235q113 180 239 418 q16 29 71.5 135.5t151.5 292.5q20 39 41 76t43 71q97 -34 186 -34h5q74 0 141 28q80 37 80 107q0 90 -135 90q-139 0 -289 -166q-47 23 -131 51.5t-207 67.5q-319 98 -471 98q-283 0 -409 -57q-129 -57 -224 -199q-96 -141 -104 -285q-39 4 -74 7.5t-63 3.5 q-276 0 -473 -197q-195 -199 -195 -473zM16 342q0 274 189 463q186 190 463 190q27 0 60.5 -3t76.5 -11q0 -131 80 -231q84 -98 211 -117q0 -225 -107 -375q-72 -102 -194 -172q-125 -70 -242 -70q-129 0 -213 90q-82 88 -82 224q0 166 111 301q119 143 280 143 q104 0 180 -76q78 -74 78 -176q0 -53 -47 -160q2 0 7 1.5t16 3.5q45 88 45 155q0 117 -82 193q-84 78 -197 78q-176 0 -295 -148q-116 -138 -116 -312q0 -75 22.5 -135.5t64.5 -104.5t99 -68.5t129 -24.5q127 0 254 72q307 172 307 559q299 41 299 315q0 49 -37 152l-18 -4 q35 -94 35 -148q0 -256 -283 -289q-33 131 -92 205q-57 76 -176 127q55 309 319 436q205 98 381 99q215 0 799 -217q-41 -61 -80 -140q-176 -342 -227 -448q-45 -86 -117 -209t-174 -283q70 195 69 283l-40 256q-20 129 -30.5 194.5t-10.5 69.5q0 117 69 211q23 29 64 68 t102 90q-188 63 -315 63q-168 0 -346 -73q-225 -96 -226 -236q0 -72 82 -109l4 19q-65 40 -65 89q0 128 221 218q180 74 330 74q98 0 270 -55q-240 -209 -307 -345q-119 -236 -199 -396.5t-125 -248.5q-285 -561 -708 -561q-246 0 -400 129q-166 135 -166 375zM842 969 q115 -45 172 -125q39 -56 78 -187q-111 23 -180.5 111t-69.5 201zM2376 1319q119 154 264 154q37 0 77 -19.5t40 -52.5q0 -59 -76 -90q-61 -23 -127 -23q-55 0 -178 31z" />
<glyph unicode="O" horiz-adv-x="1228" d="M0 324q0 -152 84 -258q88 -111 240 -111q199 0 399 168q166 137 283 340q55 94 106 250q55 166 55 262q0 104 -59 194q-70 100 -168 101q-170 0 -324 -211q-143 -199 -143 -375q0 -74 40 -125t112 -51q137 0 243 137q100 125 101 268q0 49 -27 95.5t-72 46.5 q-53 0 -133 -80l15 -14q62 73 117 73h1q37 0 58 -45q18 -37 18 -76q0 -104 -88 -231q-102 -152 -233 -152q-63 0 -99 48q-30 38 -30 102q0 172 137 364q147 207 307 207q115 0 115 -166q0 -244 -221 -645q-100 -180 -209 -299q-160 -174 -301 -174q-80 0 -129 62 q-43 57 -43 139q0 358 337 829q84 117 160 180.5t211 129.5h-86q-164 -23 -352 -195q-174 -158 -287 -356q-135 -233 -135 -432z" />
<glyph unicode="P" horiz-adv-x="2142" d="M0 512q0 -276 184 -432q176 -145 455 -146q270 0 500 132q285 164 379 475q57 -6 145 -6q190 0 336 102q164 115 164 297q0 84 -52 172q-41 51 -77.5 92t-67.5 74q143 69 283 69h4q170 0 321 -63l4 12q-152 68 -325 68q-139 0 -326 -66q-188 109 -454 109 q-326 0 -510 -193q-115 51 -232 52q-301 0 -516 -224q-215 -225 -215 -524zM16 512q0 287 213 510q211 221 502 221q94 0 219 -53q-104 -152 -104 -268q0 -68 21.5 -126.5t61.5 -100.5t95 -66.5t123 -24.5q55 0 102 21q-31 -123 -112 -232q-164 -219 -432 -219 q-201 0 -340 127q-143 131 -144 332q0 43 37 153l-20 -6q-37 -74 -37 -147q0 -215 147 -346q139 -131 357 -131q418 0 573 481q57 63 78 96l-6 31q-47 -74 -72 -98q0 311 -166 452q-20 16 -53 37t-78 43q186 186 492 186h5q259 0 400 -112q-88 -51 -166 -112.5t-143 -137.5 q-61 -68 -144 -197l-141 -295q-131 -276 -180 -325q-236 -236 -529 -236q-248 0 -405 146q-154 147 -154 397zM868 922q0 102 101 258q150 -66 229 -213q55 -97 55 -316q-51 -28 -102 -28h-4q-125 0 -201 88q-78 90 -78 211zM1530 586l141 372q68 176 250 285 q94 -70 94 -246q0 -166 -121 -290q-121 -123 -286 -123h-45q-18 0 -33 2z" />
<glyph unicode="Q" horiz-adv-x="1359" d="M8 78q0 -51 49 -82q41 -27 99 -27q147 0 311 92q43 -18 74.5 -32.5t52.5 -24.5q99 -37 214 -37h23q117 4 193 51q88 57 88 172q0 98 -98 146l-4 -27q45 -29 51 -33q29 -29 29 -86q0 -61 -44.5 -101t-105.5 -40q-106 0 -330 78q701 481 701 891q0 147 -115 257.5 t-260 110.5q-186 0 -356 -149q-178 -154 -179 -334q0 -94 45 -151q53 -66 140 -66q119 0 209 139q79 123 79 247t-100 124q-180 0 -250 -301q2 -23 17 -35q8 55 25.5 104.5t43.5 94.5q68 115 164 115q82 0 82 -99q0 -115 -78 -235q-86 -133 -192 -133q-57 0 -94 57 q-33 47 -33 108q0 90 71 209q84 137 164 203q106 86 242 86q98 0 161.5 -54t63.5 -149q0 -115 -74 -288q-68 -162 -110 -205q-111 -156 -299 -344q-43 -43 -83 -81t-77 -71q-4 2 -38 10.5t-93 24.5q-74 20 -135 20q-82 0 -156 -34q-88 -43 -88 -121zM35 78q0 37 32.5 61.5 t69.5 24.5q88 0 287 -72q-136 -108 -266 -108h-2q-43 0 -82 26.5t-39 67.5z" />
<glyph unicode="R" horiz-adv-x="2332" d="M0 537q0 -266 176 -431q167 -153 438 -153h4q225 0 451 92q262 109 340 291q72 166 125 280q90 -59 90 -139q0 -23 -2 -56.5t-6 -80.5q-4 -45 -6 -79t-2 -56q0 -119 100 -189q88 -63 211 -63q106 0 178 49q82 57 82 160q0 102 -82 215l-16 -12q73 -125 73 -201 q0 -41 -15 -74t-41.5 -57.5t-61.5 -37.5t-74 -13q-76 0 -124 49t-48 125v188q0 90 -35 150q-10 16 -35.5 45.5t-66.5 70.5q203 27 332 113q163 110 163 291q0 154 -161 278q-43 33 -56 43q137 76 316 76q150 0 276 -55l4 12q-145 61 -280 62q-174 0 -310 -56 q-41 -14 -47 -20q-164 98 -399 98q-373 0 -549 -207q-121 37 -221 37q-295 0 -508 -225.5t-213 -519.5zM16 537q0 285 211 508t494 223q86 0 205 -41q-94 -106 -95 -271q0 -329 248 -329h2q92 0 158 32q-53 -225 -190 -362q-152 -152 -373 -152q-330 0 -477 338 q-29 0 -29 17q145 -373 506 -373q227 0 389 162q154 150 199 379q76 43 92 114l-10 29q-8 -61 -78 -115q6 27 6 66q0 231 -180 385q-45 39 -133 90q174 199 530 199q236 -1 367 -101q-313 -178 -441 -465q-84 -193 -139 -321.5t-84 -194.5q-170 -372 -574 -372h-2 q-268 0 -432 139q-170 152 -170 416zM854 956q0 119 90 258q135 -66 219 -178q86 -121 86 -266q0 -41 -10 -86q-74 -33 -158 -33q-227 0 -227 305zM1542 649q23 104 46.5 187.5t49.5 142.5q104 254 252 338q109 -77 109 -270q0 -162 -121 -283q-119 -119 -287 -119 q-8 0 -20 1t-29 3z" />
<glyph unicode="S" horiz-adv-x="1454" d="M4 352q0 -279 197 -477q199 -199 475 -199q258 0 448 185v16q-215 -178 -448 -178q-270 0 -461 192q-188 193 -188 461q0 238 127 408q39 51 83 90t97 65q20 -80 59 -127q-141 -176 -141 -358q0 -190 131 -319t326 -129q211 0 362 141q154 141 154 350q0 109 -49 420 q16 0 127 133q122 148 122 236q0 98 -73 110q-70 0 -97 -24q-83 108 -284 108h-4q-229 0 -424 -139q-213 -154 -213 -377q-123 -82 -187 -160q-139 -176 -139 -428zM272 435q0 168 134 335q76 -88 270 -88q119 0 252 63q33 -63 33 -129q0 -90 -62 -159q-57 -70 -147 -70 q-92 0 -93 86q0 63 115 74q-45 76 -92 76q-55 0 -92 -42t-37 -100q0 -61 46 -102t110 -41q98 0 188 74q92 76 92 172t-41 174q109 57 164 96v-98q0 -233 -121 -457q-145 -262 -362 -262q-178 0 -279 160q-78 123 -78 238zM352 946q6 221 230 369q188 125 385 125 q182 -1 270 -101q-47 -25 -82 -104q-29 -74 -29 -133q-98 0 -199.5 -6t-205.5 -21q-231 -29 -369 -129zM354 926q37 20 62.5 34.5t40.5 22.5q113 57 274 74q196 20 393 24l-10 -196q-109 -74 -178 -105q-33 35 -61.5 58.5t-51.5 35.5q-57 29 -141 29q-147 0 -270 -98 q-37 43 -58 121zM426 786q98 98 256 99q139 0 229 -117q-121 -66 -235 -66q-178 0 -250 84zM1169 1081q25 6 46.5 23.5t38 41t25.5 51.5t9 54q0 43 -20 76q4 0 21.5 10.5t27.5 10.5q53 0 53 -70q0 -170 -196 -350zM1169 1108q0 105 80 207q14 -27 15 -60q0 -45 -27 -90 q-29 -55 -68 -57z" />
<glyph unicode="T" horiz-adv-x="2027" d="M4 881l19 -2q8 117 92 286q113 227 291 353q193 137 434 137q315 0 512 -221q-78 -35 -217 -217q-152 49 -220 49q-311 0 -514 -211q-200 -212 -200 -522q0 -306 204.5 -510.5t509.5 -204.5q326 0 570 182q246 182 327 498q80 328 105 442q49 233 412 279l4 22 q-238 -23 -357 -86q-166 -90 -225 -266q-63 -195 -110.5 -338t-79.5 -242q-72 -211 -250 -340q-180 -133 -396 -133q-287 0 -491 203q-205 205 -205 491q0 301 198.5 506t497.5 205q43 0 207 -49q-104 -158 -104 -295q0 -166 86 -279q95 -126 252 -126h2q55 0 92 12 q-20 -72 -50 -136.5t-71 -123.5q-37 -55 -149 -174l16 -13q225 195 293 473q72 78 84 97q65 100 65 217q0 154 -96 352q-63 131 -125 205q147 37 342 37q154 0 486 -127q330 -125 456 -125q82 0 172 20q4 4 13.5 14.5t13.5 14.5q-113 -23 -166 -23q-133 0 -305 86 q-113 57 -189.5 96.5t-119.5 61.5q-176 86 -361 86q-164 0 -375 -96q-209 229 -544 229q-369 0 -617 -291q-203 -238 -219 -503zM1044 903q0 63 43 160q33 80 68 117q311 -164 311 -518q0 -33 -2 -63.5t-6 -59.5q-57 -23 -100 -23q-145 0 -234 125q-80 111 -80 262z M1167 1202q96 117 219 189q41 -41 117 -187q107 -198 107 -356q0 -170 -117 -277q2 33 3 55.5t1 37.5q0 197 -78 321.5t-252 216.5z" />
<glyph unicode="U" horiz-adv-x="1771" d="M10 707q0 -141 96 -238q100 -96 242 -96q207 0 340 86l-6 12q-141 -80 -334 -80q-131 0 -227 90q-92 92 -92 226q0 203 190 378q217 199 543 199q162 0 264 -80q109 -90 109 -248q0 -78 -105 -221q-72 -98 -120 -165.5t-76 -106.5q-104 -152 -105 -285q0 -80 45 -143 q49 -72 123 -72q125 0 291 199q0 -199 121 -199q150 0 258 139v37q-115 -139 -228 -139q-31 0 -30 31q0 86 227 471q170 289 502 553q399 -424 813 -424q92 0 170 43q139 77 139 192q0 193 -182 301q-158 92 -361 93q-172 0 -270 -27q-84 -23 -301 -105q-70 53 -129 89 t-111 57q-113 41 -276 41h-94v-12h110q164 0 443 -199q-418 -270 -660 -658q-53 -86 -89 -145t-56 -92q-143 -223 -287 -223q-76 0 -76 92q0 90 99 225q66 90 110.5 150.5t71.5 95.5q41 57 65.5 91t32.5 48q35 66 35 150q0 221 -126 343t-347 122q-342 0 -559 -205 q-193 -180 -193 -391zM2083 1094q301 145 534 145q197 0 344 -86q179 -105 179 -287q0 -94 -101 -157q-88 -57 -188 -58q-313 0 -768 443z" />
<glyph unicode="V" horiz-adv-x="1222" d="M4 1018q0 -92 54.5 -164t142.5 -94q-23 27 -40.5 46t-31.5 36q-59 78 -59 162q0 162 108.5 258t272.5 96q156 0 423 -113q-98 -61 -151 -225q-33 -98 -57 -262q-8 -297 -13 -453q-2 -98 -24 -151l-86 -195q14 -6 37 -6q303 311 520 625q51 74 107.5 159.5t115.5 186.5 q78 127 219 229q201 145 410 145q193 0 319 -96q139 -109 139 -295q0 -201 -137 -362q-143 -174 -340 -174q-150 0 -250 98t-100 246q0 258 250 344v14q-18 0 -70 -26q-200 -103 -200 -330q0 -160 106.5 -264.5t263.5 -104.5q209 0 357 178q139 170 139 381 q0 201 -139.5 324t-339.5 123q-279 0 -461 -168q-82 -74 -193 -250q-367 -590 -653 -879q221 346 221 516q0 78 -24 230q-25 150 -25 229q0 141 86 207q12 -2 21.5 -3t17.5 -1q96 0 96 53q0 29 -32 29q-45 0 -111 -53l-156 53q-166 57 -286 57q-180 0 -306 -86 q-141 -98 -141 -270zM918 1255q39 39 71 39q21 0 21 -12q0 -31 -62 -31q-4 0 -12 1t-18 3z" />
<glyph unicode="W" horiz-adv-x="1837" d="M6 1026q0 -172 191 -246v13q-68 53 -95 90q-34 52 -34 121q0 176 120 278q113 92 291 92q172 0 416 -123q-123 -154 -139 -184q-86 -145 -86 -283q0 -193 -7.5 -331t-21.5 -226t-106 -250q0 -23 22 -22q29 0 174 145q90 92 155.5 166t106.5 131q178 242 295 437v-304 q0 -106 -2 -129q-4 -92 -17.5 -161.5t-35.5 -116.5q-66 -141 -66 -154q0 -12 19 -12q51 0 315 332q119 150 206 265.5t140 199.5q190 289 324 397q181 149 446 149h4q186 0 305 -112.5t119 -296.5q0 -190 -131 -352q-139 -172 -321 -172q-162 0 -275 96q-108 97 -108 257 q0 230 266 343l-6 18q-285 -111 -285 -358q0 -168 119 -274.5t289 -106.5q199 0 344 176q135 166 135 373q0 209 -145 336q-139 123 -349 123q-172 0 -358 -113q-186 -111 -272 -260q-193 -338 -381 -567q-76 -92 -146.5 -175t-138.5 -161q53 88 87 147.5t50 91.5 q70 141 70 262q0 35 -6 88.5t-17 122.5q-10 72 -16 125.5t-6 87.5q0 106 80 246q-102 -90 -135 -153q-219 -422 -400 -658q-39 -51 -88 -106.5t-110 -118.5q-51 -51 -91.5 -92t-72.5 -70q239 381 239 527q0 83 -24 253q-25 168 -25 252q0 53 98 156q18 0 37 3t39 7 q53 16 53 43t-49 27q-37 0 -88 -49q0 4 -145 59q-164 61 -283 61q-195 0 -321 -81q-152 -96 -152 -279zM934 1260q27 35 61 38q23 4 23 -14q0 -24 -78 -24h-6z" />
<glyph unicode="X" horiz-adv-x="1503" d="M6 203q0 -59 21.5 -107.5t58.5 -83.5t88 -54t113 -19q168 0 381 159q47 35 123.5 106.5t187.5 180.5q6 -57 12 -105.5t10 -89.5q33 -241 248 -241h2q55 0 121 31l-6 18q-66 -31 -115 -31q-106 0 -106 174q0 88 43 267q43 180 43 260q154 186 248 299.5t129 154.5 q113 131 250 181q53 18 88 24l-19 12q-45 0 -137 -39q-195 -78 -522 -417q-45 340 -205 385q-10 2 -31 2h-53q-57 51 -125 51q-111 0 -207 -59q-68 -43 -180 -168l10 -13q59 63 105.5 105.5t79.5 62.5q86 55 190 56q59 0 104 -45q-420 -180 -530 -541q-174 -59 -291 -195 q-129 -147 -129 -321zM145 510q113 129 279 186q-2 -10 -3 -18t-1 -16q0 -51 32.5 -87t84.5 -36q74 0 153 55q2 -12 3 -21.5t1 -17.5q0 -123 -135 -270q-133 -145 -254 -146q-47 0 -77.5 31t-30.5 78q0 78 108 205l-12 8q-115 -109 -115 -213q0 -49 39 -88t88 -39 q133 0 273 147q141 150 141 283q0 25 -10 55q131 82 215 232q84 152 84 301q0 45 -17 104q82 -81 82 -194l-39 -416q-168 -203 -267 -319.5t-132 -149.5q-201 -197 -348 -197q-109 0 -183 62q-79 67 -79 171q0 167 120 310zM438 670q0 6 1 14t3 18l31.5 3.5t24.5 1.5 q131 -1 182 -95q-84 -53 -143 -53q-98 0 -99 111zM446 723q51 170 203 315q137 131 320 203q20 -47 20 -104q0 -141 -88 -287q-84 -137 -203 -225q-59 102 -196 102q-10 0 -23.5 -1t-32.5 -3z" />
<glyph unicode="Y" horiz-adv-x="2148" d="M4 1251q0 -119 115 -196q100 -68 227 -68q96 0 170 27q70 25 163 70.5t212 115.5q0 -109 -14 -164q-41 -109 -66 -155l16 -4q84 139 84 288q0 33 -2 43q184 84 336 84q68 0 124 -22.5t97 -62.5t63.5 -96t22.5 -124q0 -113 -82 -237l-153 -240q-82 -125 -82 -279 q0 -100 39 -170q49 -84 143 -84q74 0 164 84q16 16 48 52.5t79 91.5q-63 -317 -98 -410q-16 -41 -43 -78q-66 59 -105 95t-53 49q-280 239 -593 239h-3q-242 0 -428 -114q-215 -135 -215 -365q0 -229 217 -360q182 -113 426 -113q510 0 770 518q539 -508 1038 -508 q283 0 480 185q198 183 198 464q0 213 -139 371q-143 162 -360 162q-147 0 -254 -84q-113 -88 -113 -236q0 -125 80 -206q82 -82 209 -82q20 0 20 22q-280 37 -280 264q0 137 104 218q95 71 230 71h4q193 0 338 -153q137 -150 137 -347q0 -270 -190.5 -448t-463.5 -178 q-350 0 -716 244q-186 125 -312 262q10 23 21.5 45t21.5 45q78 184 130.5 308t80.5 194q156 381 377 663q309 395 612 395q293 0 328 -245l23 -13q0 86 -33 138q-86 137 -354 137q-483 0 -897 -670q-51 -80 -144 -285q-78 -170 -125 -241q-102 -158 -196 -158q-86 0 -86 119 q0 70 20 137q35 76 119 205q43 66 72.5 116t46.5 85q55 117 55 225q0 176 -123 297q-121 123 -297 123q-106 0 -192 -23l-146 -53q-49 160 -150.5 227.5t-273.5 67.5q-479 0 -479 -275zM18 1251q0 262 465 262h2q326 0 402 -290q-377 -217 -541 -217q-123 0 -217 61 q-111 70 -111 184zM209 -379q0 223 199 352q168 106 405 107q246 0 461 -141q53 -35 122.5 -95.5t157.5 -146.5q-78 -145 -190 -246q-231 -207 -551 -207q-203 0 -381 88q-223 106 -223 289z" />
<glyph unicode="Z" horiz-adv-x="1384" d="M-37 -702q78 -41 195 -41q229 0 442 182q215 184 248 409l137 -26l2 18l-141 33q-6 193 -148 246q160 113 279 209t197 174q274 278 274 520q0 145 -121 242q-109 86 -262 90h-6q-152 0 -332 -99q-35 6 -55 7q-74 0 -228 -50q-96 -31 -196 -122q-160 -145 -240 -369 q4 -2 7 -4t8 -4q61 182 178 311q43 49 97 89t114.5 68.5t125 44t126.5 15.5q8 0 18 -1t23 -3q-23 -14 -57 -37.5t-77 -56.5q-383 -291 -383 -563q0 -53 17.5 -99.5t49.5 -80t75 -54t96 -20.5q199 0 350 249q131 217 131 435q0 154 -147 237q45 31 127 58q83 28 132 28h3 q104 0 162.5 -66.5t58.5 -170.5q0 -223 -250 -547q-109 -139 -375 -405q-344 -4 -344 -115q0 -53 80 -54q70 0 314 123q31 0 53 -47q20 -39 20 -71q0 -31 -20 -84h-41t-57.5 -2.5t-57.5 -2.5h-41q-201 0 -418 -114q-245 -134 -245 -320q0 -106 102 -159zM-125 -545 q0 139 188 273q211 147 492 147q33 0 72 -1t86 -3q-47 -207 -285 -363q-228 -151 -441 -151h-3q-109 0 -109 98zM207 580q0 305 526 655q156 -63 156 -225q0 -203 -127 -420q-145 -246 -336 -246q-90 0 -156 72q-63 70 -63 164zM311 27q0 49 105 71q18 4 42.5 6t53.5 5 q25 2 39 0.5t18 -3.5q-162 -106 -219 -106q-39 0 -39 27z" />
<glyph unicode="[" horiz-adv-x="614" d="M-166 -244h402l24 45h-225l1153 2059h225l25 45h-406z" />
<glyph unicode="\" horiz-adv-x="485" d="M16 -8l13 -23q341 194 503 477l-16 15q-96 -154 -221 -266q-106 -96 -279 -203z" />
<glyph unicode="]" horiz-adv-x="614" d="M-373 -244h402l1202 2149h-406l-24 -45h225l-1149 -2059h-225z" />
<glyph unicode="^" horiz-adv-x="542" d="M145 1010l234 77l233 -77v82l-233 75l-234 -75v-82z" />
<glyph unicode="_" horiz-adv-x="1024" d="M-16 -150v-102h1046v102h-1046z" />
<glyph unicode="`" horiz-adv-x="614" d="M154 983q0 -43 43 -82l204 -153h54l-131 274q-37 47 -82 47q-37 0 -62.5 -24.5t-25.5 -61.5z" />
<glyph unicode="a" d="M-104 172q0 -199 135 -199q104 0 194 117q55 -117 156 -117q148 0 539 473l-17 15q-49 -59 -109.5 -125t-131.5 -137q-199 -199 -269 -199q-45 0 -45 41q0 29 35 94l268 504q-10 -4 -35 -29q-25 -27 -32 -26q-14 0 -43 6t-43 6q-18 0 -43 -31q-35 49 -105 49 q-174 0 -315 -135q-139 -133 -139 -307zM12 68q0 111 117 299q131 211 252 211q43 -1 43 -50q0 -37 -209 -393q-80 -135 -162 -135q-41 0 -41 68z" />
<glyph unicode="b" horiz-adv-x="817" d="M-68 127q0 -66 34 -110t100 -44q102 0 237 93q125 88 180 184q236 1 381 196l-16 15q-137 -180 -352 -187q49 74 49 187q0 153 -152 153h-2q-57 0 -90 -69q-25 -53 -25 -119q0 -117 74 -156q-37 -78 -110 -166q-86 -104 -139 -104h-5q-65 0 -65 59q0 63 102 258 q68 129 103.5 197t39.5 76q115 47 295 217q233 223 234 410q0 31 -17.5 58.5t-46.5 27.5q-180 0 -520 -469q-53 -76 -100 -156t-88 -168q-100 -221 -101 -383zM289 625q37 86 71.5 155.5t67.5 128.5q27 45 57.5 93.5t65.5 101.5q106 156 145 156q23 -1 23 -55v-9 q-4 -78 -119 -260q-139 -221 -311 -311zM305 426q0 49 14 92q20 63 60 64q39 0 39 -74q0 -78 -56 -213q-57 43 -57 131z" />
<glyph unicode="c" horiz-adv-x="796" d="M-104 154q0 -180 202 -181q211 0 424 148q175 122 320 325l-17 15q-137 -190 -315 -316q-213 -147 -412 -147q-92 0 -92 74q0 115 125 313q131 209 223 209q70 0 70 -43q0 -18 -22.5 -43t-41.5 -25q-27 0 -59 27q-20 -27 -20 -70q0 -53 73 -53q47 0 85 37t38 84t-38 76.5 t-85 29.5q-195 0 -325 -135q-133 -133 -133 -325z" />
<glyph unicode="d" horiz-adv-x="884" d="M-100 158q0 -72 39 -125q47 -59 108 -60q57 0 92 27q23 16 94 104q29 -76 56 -102q41 -35 108 -35q72 0 203 121q43 41 126 130t206 228l-17 15q-113 -125 -191.5 -209t-125.5 -129q-133 -123 -192 -123q-43 0 -44 49q0 45 232 473q164 76 377 301q231 244 231 394 q0 71 -57 71h-2q-139 0 -375 -303q-143 -182 -285 -426q-55 55 -104 55q-199 0 -338 -131q-141 -133 -141 -325zM10 68q0 102 133 307q141 213 236 213q20 0 40.5 -18t20.5 -38q0 -74 -170 -315q-53 -78 -80 -116l-28 -38q-49 -63 -107 -63q-45 0 -45 68zM629 586 q374 661 450 661q37 0 37 -45q0 -143 -182 -350q-147 -168 -305 -266z" />
<glyph unicode="e" horiz-adv-x="630" d="M-104 154q0 -78 50 -129.5t126 -51.5q150 0 364 197q166 153 240 276l-17 15q-78 -129 -243 -275q-209 -184 -344 -184q-55 0 -56 76q0 63 37 143q94 0 238 66q186 86 186 215q0 47 -34.5 79.5t-82.5 32.5q-143 0 -292 -122q-172 -141 -172 -338zM74 270q160 317 258 318 q43 0 43 -47q0 -72 -113 -172q-115 -98 -188 -99z" />
<glyph unicode="f" horiz-adv-x="485" d="M-915 -524q0 -82 58 -133.5t144 -51.5q160 0 312 164q139 152 321 502l277 547h145l20 37h-112q172 88 325 258q185 198 185 360q0 29 -25.5 52.5t-54.5 23.5q-129 0 -346 -283q-68 -88 -136.5 -190.5t-138.5 -220.5h-120l-21 -37h119q-53 -98 -126 -245.5t-169 -352.5 q-154 -328 -223 -428q-115 -164 -232 -164q-66 0 -116 39q-57 39 -58 104q0 45 31 105q33 67 75 67h1q43 0 43 -53q0 -25 -64 -33q31 -53 68 -53q43 0 77.5 26.5t34.5 69.5q0 41 -29.5 73t-70.5 32q-78 0 -137 -66q-57 -66 -57 -149zM219 541q35 78 87 173t122 212 q168 276 217 276q35 0 35 -59q0 -96 -98 -240q-127 -188 -363 -362z" />
<glyph unicode="g" horiz-adv-x="710" d="M-381 -498q0 -35 15.5 -63.5t40 -48t57 -30.5t69.5 -11q111 0 201 108q66 82 129 224q14 33 38 92t56 151q367 229 531 522l-17 15q-174 -291 -506 -500q53 127 94.5 214t69.5 136q57 102 106.5 183t90.5 145q-4 -2 -13.5 -10t-25.5 -23q-35 -29 -35 -28l-24 10 q-25 8 -54 8q-16 0 -43 -18q-34 36 -78 36h-2q-160 0 -296 -143q-135 -141 -136 -301q0 -197 144 -197q53 0 123 82l-62 -157q-78 -29 -150.5 -65t-138.5 -81q-184 -127 -184 -250zM-350 -492q0 100 170 222q137 98 262 135q-47 -143 -129 -266q-115 -170 -217 -170 q-86 0 -86 79zM4 55q0 109 113 310q121 219 213 219q37 0 37 -39q0 -74 -123 -297q-133 -244 -203 -244q-37 0 -37 51z" />
<glyph unicode="h" horiz-adv-x="700" d="M-242 -49q18 10 45 37q20 14 33 14q10 0 36 -6t38 -6q29 0 82 98q27 53 54.5 108.5t55.5 110.5q72 129 148 190.5t125 61.5q16 0 16 -20q0 -16 -133 -222q-131 -199 -131 -249q0 -45 33 -70t80 -25q92 0 245 158q27 27 91.5 105.5t171.5 209.5l-17 15 q-102 -121 -161.5 -189.5t-77.5 -89.5q-158 -166 -218 -166q-29 0 -28 37l135 207q133 205 133 268q0 86 -84 86q-102 0 -264 -153q10 23 20.5 45t20.5 45q152 78 334 254q258 247 258 440q0 61 -74 62q-139 0 -424 -412q-82 -119 -163 -253t-163 -284q-35 -63 -88 -164.5 t-129 -242.5zM231 606q203 350 271 455q131 205 184 205q21 -1 21 -52q0 -109 -123 -276q-141 -195 -353 -332z" />
<glyph unicode="i" horiz-adv-x="483" d="M-135 92q0 -119 127 -119q133 0 536 473l-16 15q-80 -96 -227 -246q-201 -203 -248 -203q-45 0 -45 54q0 41 16 77l260 496q-12 -4 -40.5 -32.5t-37.5 -28.5q-2 0 -26.5 9t-42.5 9q-31 0 -55 -43q-45 -82 -77 -138.5t-48 -88.5q-76 -137 -76 -234zM227 815 q0 -33 22.5 -56.5t55.5 -23.5q41 0 71 37t30 80q0 31 -22 50.5t-52 19.5q-43 0 -74 -32t-31 -75z" />
<glyph unicode="j" horiz-adv-x="405" d="M-721 -522q0 -70 59 -111q51 -39 125 -39q186 0 289 232q53 123 88 209t54 133q164 106 559 544l-17 15q-199 -213 -333 -344t-203 -185l368 707q-8 -2 -39 -31q-29 -29 -39 -28q-10 0 -33.5 9t-31.5 9q-35 0 -76 -72q-180 -317 -299 -657q-76 -16 -149.5 -51t-145.5 -86 q-176 -127 -176 -254zM-694 -516q0 104 164 225q153 111 266 119q-35 -98 -111 -221q-125 -199 -233 -199q-86 0 -86 76zM201 809q0 -78 75 -78q45 0 77 35t32 80q0 76 -72 76q-43 0 -77.5 -35t-34.5 -78z" />
<glyph unicode="k" horiz-adv-x="694" d="M-246 -51q8 4 41 31q29 23 37 22q10 0 32.5 -6t33.5 -6q41 0 77 69q47 98 78 154.5t43 75.5h76q61 -4 61 -19q0 -18 -40 -106q-39 -84 -39 -115q0 -76 90 -76t266 189q27 29 83 98.5t148 185.5l-16 15q-354 -442 -426 -443q-23 0 -23 17q0 8 43 86q43 80 43 106 q0 25 -36 80q215 113 215 228q0 79 -80 79h-2q-100 0 -269 -143q27 41 43.5 65.5t22.5 34.5q145 66 354 281q232 242 232 387q0 27 -28 45.5t-56 18.5q-133 0 -436 -406q-117 -154 -195 -270.5t-123 -202.5q-86 -166 -147.5 -283.5t-102.5 -191.5zM111 319q33 61 110 136 q88 86 141 86q44 0 44 -39q0 -55 -56 -107q-45 -41 -104 -63q-35 -12 -135 -13zM283 621q16 49 65 139t135 221q180 285 238 285q22 0 22 -43q-4 -102 -147 -301q-154 -213 -313 -301z" />
<glyph unicode="l" horiz-adv-x="479" d="M-82 141q0 -70 27 -114q34 -54 90 -54h2q152 6 295 174q82 94 194 299l-16 15q-70 -137 -176 -268q-143 -180 -242 -181q-43 0 -43 49q0 111 64 246l98 215q276 162 451 424q139 211 143 332q0 27 -18.5 50.5t-45.5 23.5q-113 0 -362 -318q-86 -111 -159 -216t-132 -210 q-170 -299 -170 -467zM254 590q23 63 73 162.5t126 236.5q178 319 235 320q29 0 29 -43q0 -98 -135 -320q-158 -256 -328 -356z" />
<glyph unicode="m" horiz-adv-x="1091" d="M-258 -51q57 57 74 57q4 0 14 -2t23.5 -5t27 -5t21.5 -2q25 0 98 145q90 176 147 238q182 188 234 188q23 0 22 -28q0 -23 -305 -586q57 57 74 57q6 0 31.5 -7t36.5 -7q41 0 55 26q57 102 100 181.5t72 136.5q186 227 240 227q37 0 36 -35q0 -25 -122 -211 q-123 -188 -123 -219q0 -53 34.5 -89t88.5 -36q66 0 131 54q33 27 135 141l250 278l-17 15l-248 -277q-162 -180 -210 -180q-41 0 -41 49q0 18 30 68l199 321q35 59 35 72q0 39 -28 69.5t-66 30.5q-70 0 -115 -30q-35 -23 -129 -111q0 141 -92 141q-123 0 -291 -172l104 197 q-12 -4 -39 -31q-29 -25 -34 -24q-10 0 -38 6t-42 6q-27 0 -41 -27q-10 -10 -49 -86z" />
<glyph unicode="n" horiz-adv-x="790" d="M-246 -51q57 57 76 57q10 0 37 -7t39 -7q31 0 67 67q33 61 51.5 97.5t24.5 46.5q31 53 69 105t83 106q125 143 205 143q31 0 30 -18q0 -16 -28 -62l-170 -260q-43 -67 -43 -120q0 -126 118 -126q96 0 207 121q141 158 220.5 246t95.5 108l-17 15l-301 -332 q-111 -123 -170 -123q-43 0 -43 37q0 10 37 70l190 297q39 59 39 110q0 94 -94 94q-111 0 -307 -172l104 197q-4 -2 -14 -10t-27 -23q-33 -27 -34 -26q-8 0 -34 8t-38 8q-35 0 -61 -49z" />
<glyph unicode="o" horiz-adv-x="755" d="M-100 160q0 -70 41 -127q47 -59 112 -60q115 0 234 76q106 74 172 178q61 18 92 31q180 100 252 188l-17 15q-137 -127 -247 -180q-23 -10 -38.5 -15.5t-23.5 -7.5q10 23 18.5 41t12.5 29q18 45 18 94q0 78 -45 135t-121 57q-174 0 -319 -139q-141 -139 -141 -315zM14 66 q0 109 119 309q125 215 221 215q49 0 49 -51q0 -106 -79 -275q-61 8 -78 62q55 6 55 41q0 43 -43 43q-63 0 -63 -66q0 -63 112 -100q-147 -244 -254 -244q-39 0 -39 66z" />
<glyph unicode="p" horiz-adv-x="761" d="M-633 -739l86 75q57 -26 100 -26h3q41 0 129 217q131 322 229 496q18 -90 86 -91q68 0 145 54q41 -47 93 -47q150 0 331 188q131 137 240 319l-16 15q-109 -176 -236 -309q-182 -188 -319 -189q-35 0 -68 37q301 221 301 446q0 66 -35 113q-41 55 -100 55q-63 0 -103 -39 l35 64q-10 -4 -41 -31q-29 -29 -37 -28q-8 0 -33.5 8t-35.5 8q-27 0 -41 -19.5t-19 -25.5q-78 -141 -159.5 -295t-169.5 -322q-106 -205 -196.5 -372.5t-168.5 -300.5zM-55 68q0 24 49 24h4q41 0 94 -49l-31 -31q-6 -4 -14 -12q-23 -12 -47 -12q-25 0 -40 26.5t-15 53.5z M-35 113q45 113 123 241q131 217 219 217q41 0 41 -43q0 -84 -88 -241q-35 -66 -70.5 -120t-74.5 -101q-72 53 -101 53q-35 0 -49 -6z" />
<glyph unicode="q" horiz-adv-x="759" d="M-113 -522q0 -178 131 -178t230 176q88 156 88 297q0 94 -72 219q178 43 316 170q53 47 109.5 118.5t115.5 165.5l-17 15q-76 -113 -147.5 -194t-136.5 -132q-47 -35 -105.5 -65.5t-128.5 -53.5l361 623q-12 -4 -39 -30.5t-37 -26.5t-33.5 7t-36.5 7q-31 0 -49 -18 q-46 36 -84 36h-2q-164 0 -307 -135q-141 -133 -141 -295q0 -211 123 -211q68 0 163 74q-72 -104 -117.5 -169.5t-66.5 -98.5q-117 -197 -117 -301zM25 72q0 104 125 297q130 202 216 202h1q36 1 36 -30q0 -45 -20 -86q-57 -123 -110.5 -217.5t-104.5 -159.5 q-47 -61 -90 -62q-53 0 -53 56zM41 -528q0 133 59 262q8 16 43 75.5t97 163.5q65 -134 65 -200q0 -92 -55 -228q-66 -159 -138 -159h-1q-70 0 -70 86z" />
<glyph unicode="r" horiz-adv-x="602" d="M-25 506q0 -78 48 -78q35 0 75 31q41 33 54 33q8 0 8 -15q0 -18 -84 -163.5t-84 -192.5q2 -147 106 -148q158 0 324 170q92 94 227 303l-16 15q-307 -442 -469 -443q-53 0 -53 56q0 20 39 84l161 276q43 74 43 101q0 33 -20.5 56t-50.5 23q-47 0 -215 -141q71 83 71 139 q0 49 -49 50q-47 0 -80 -56q-35 -53 -35 -100zM6 506q0 35 26.5 80t57.5 45q19 -1 19 -19q0 -41 -80 -141q-23 0 -23 35z" />
<glyph unicode="s" horiz-adv-x="507" d="M-279 111q0 -141 162 -142q129 0 226 109q117 18 198 72q117 79 246 296l-16 15q-119 -197 -224 -275q-72 -53 -192 -80q37 57 37 187q0 82 -62 223q63 113 64 158q0 37 -51 37q-59 0 -86 -74q-23 -57 -23 -123q0 -35 18 -102q20 -61 21 -97q0 -45 -20.5 -100t-53.5 -80 q-10 4 -69 53q-43 37 -76 37q-45 0 -72 -33.5t-27 -80.5zM-203 147q0 41 37 41q14 0 60 -34q43 -37 51 -39q-16 -25 -82 -25q-66 12 -66 57zM72 606q0 18 10 49q12 37 29 37q24 1 24 -22q0 -59 -51 -129q-12 20 -12 65z" />
<glyph unicode="t" horiz-adv-x="483" d="M-129 104q0 -51 29.5 -91t79.5 -40q156 0 317 168q47 51 105 126t126 179l-16 15q-59 -78 -108.5 -142.5t-88.5 -113.5q-55 -68 -122 -121q-94 -72 -152 -72q-20 0 -35.5 28t-15.5 50q0 31 43 109l213 372h153l13 31h-154l207 363h-23q-45 -70 -79.5 -120t-61.5 -81 q-84 -98 -182 -162h-162l-33 -31h148l-158 -325q-43 -90 -43 -142z" />
<glyph unicode="u" horiz-adv-x="851" d="M-39 -27q70 0 123 37q16 14 48 46t77 85q14 -168 121 -168q141 0 336 189q59 59 116.5 128.5t114.5 155.5l-16 15q-92 -133 -217 -260q-176 -182 -267 -183q-53 0 -53 41q0 31 33 91l260 489q-10 -2 -39 -31q-27 -27 -35 -26q-10 0 -35.5 7t-38.5 7q-33 0 -47 -27 l-159 -284q-29 -51 -109 -154q-94 -119 -131 -119q-49 0 -49 54q0 51 33 114l243 459q-10 -4 -36.5 -30.5t-36.5 -26.5q-12 0 -36 7t-32 7q-39 0 -55 -29l-150 -278q-67 -125 -67 -214q0 -101 104 -102z" />
<glyph unicode="v" horiz-adv-x="772" d="M-131 86q0 -45 34 -79t79 -34q150 0 301 105q129 92 166 184q186 8 368 184l-16 15q-197 -172 -336 -172q57 76 57 184q0 53 -33 105q-35 53 -83 53q-63 0 -109 -68q-41 -59 -41 -125q0 -72 66 -149q-139 -289 -267 -289q-61 0 -61 78q0 39 26 92l244 467 q-14 -4 -40.5 -30.5t-30.5 -26.5q-8 0 -35 8t-41 8q-29 0 -45 -29l-144 -268q-59 -113 -59 -213zM281 436q0 45 24 92q27 55 70 56q49 0 49 -92q0 -31 -86 -179q-57 70 -57 123z" />
<glyph unicode="w" horiz-adv-x="1130" d="M-141 104q0 -55 26 -90q31 -41 82 -41q80 0 158 60q23 18 54.5 49t70.5 76q-12 -41 -12 -76q0 -25 8 -39q39 -70 121 -70q119 0 258 84q129 80 198 187q273 52 355 202l-17 15q-25 -59 -141 -121q-102 -55 -180 -66q63 94 63 197q0 55 -33 102q-33 57 -86 58 q-74 0 -116 -64q-41 -57 -41 -131q0 -96 67 -160q-145 -276 -276 -276q-57 0 -58 66q0 41 39 112l244 461q-12 -4 -38.5 -30.5t-37.5 -26.5q-12 0 -37.5 7t-37.5 7q-29 0 -46 -29l-155 -288q-23 -45 -51.5 -85t-63.5 -79q-90 -102 -160 -103q-28 0 -28 50q0 36 24 90 l258 487q-10 -2 -39 -31q-27 -27 -34 -26q-12 0 -40 7t-40 7q-29 0 -51 -41l-160 -301q-47 -90 -47 -150zM655 436q0 51 19 94q20 57 67 58q39 0 39 -43q0 -51 -24 -127q-10 -37 -23.5 -64.5t-27.5 -48.5q-49 39 -50 131z" />
<glyph unicode="x" horiz-adv-x="796" d="M-295 41q0 -68 74 -68q88 0 256 199q70 -199 184 -199q250 0 623 473l-17 15q-51 -70 -113.5 -138.5t-138.5 -134.5q-187 -165 -289 -165h-1q-113 0 -113 344q10 25 100 88q105 73 170 73h2q43 0 109 -49q33 51 33 80q0 55 -80 55q-61 0 -158 -65q-55 -37 -176 -143 l-4 268q-6 -4 -18.5 -35t-20.5 -31h-72q-47 0 -47 -88q0 -25 2 -61.5t6 -88t6.5 -88t2.5 -61.5q-27 -43 -70 -92q-72 -74 -111 -74q-37 0 -90 60q-49 -41 -49 -74z" />
<glyph unicode="y" horiz-adv-x="784" d="M-406 -451q0 -70 48.5 -113.5t117.5 -43.5q111 0 207 96q33 35 68 86t74 121q8 16 36.5 72.5t79.5 156.5q125 70 185 123q53 51 91 86t58 55q202 190 270 258l-16 15l-270 -254l-142 -135q-82 -76 -157 -117q78 111 145.5 215t120.5 209l135 260q-12 -4 -39 -31 q-29 -29 -37 -28q-10 0 -34.5 8t-38.5 8q-31 0 -58 -49l-215 -385q-35 -66 -117 -111q-66 -37 -92 -37t-26 54q0 43 30 104l250 467q-12 -4 -39 -31q-29 -29 -34 -28q-12 0 -39 8t-41 8q-31 0 -58 -49l-163 -311q-35 -66 -35 -127q0 -135 108 -136q66 0 199 99l-86 -170 q-221 -70 -328 -135q-158 -96 -158 -218zM-389 -449q0 111 149 199q41 23 119 56.5t195 74.5q-53 -90 -91 -150.5t-65 -95.5q-127 -170 -221 -170q-86 0 -86 86z" />
<glyph unicode="z" horiz-adv-x="638" d="M-535 -549q0 -74 46.5 -113.5t119.5 -39.5q201 0 351 143q151 144 151 337q0 47 -3 80t-7 56q313 147 563 532l-16 15q-281 -395 -559 -527q-8 37 -56 91q88 29 191 143q129 143 129 297q0 61 -39 105t-98 44q-137 0 -238 -198v-35q86 121 145 121q74 0 74 -72 q0 -80 -59 -209q-57 -121 -123 -174q-66 37 -129 37q-27 0 -54.5 -15.5t-27.5 -39.5q0 -47 74 -47q39 0 110 24q12 -29 13 -110q-188 -51 -347 -154q-211 -135 -211 -291zM-481 -596q0 139 192 295q167 135 312 172q0 -141 -132 -340q-145 -213 -274 -213q-39 0 -68.5 24.5 t-29.5 61.5zM-147 29q0 37 50 37h5q45 -4 92 -39q-69 -27 -96 -27h-4q-47 0 -47 29z" />
<glyph unicode="{" horiz-adv-x="1767" d="M10 532q0 -154 129 -260q121 -102 275 -102q94 0 297 86q45 -59 91 -99t96 -65.5t108.5 -37t132.5 -11.5q147 0 268 68q143 80 143 219q0 90 -100 147q-80 43 -184 47q-53 55 -86 74q-16 10 -43 20.5t-66 20.5q63 117 195 117q119 0 231 -82q69 -51 184 -174v22 q-113 139 -186 197q-119 90 -250 90q-184 0 -223 -160q-113 10 -207 -35q-145 -66 -145 -231q0 -39 28 -102q-170 -68 -274 -68q-133 0 -248 102q-113 104 -113 238q0 111 89 186q88 80 198 80q100 0 185 -59q92 -68 92 -164q0 -72 -49.5 -121t-120.5 -49q-43 0 -75 27.5 t-32 68.5q0 63 53 64q23 0 54 -33q10 25 10 43q0 39 -28.5 62.5t-67.5 23.5q-55 0 -91 -41t-36 -98q0 -35 16 -63.5t43 -50t61.5 -34t71.5 -12.5q84 0 148 63q66 66 65 150q0 111 -94 178q-92 68 -205 68q-143 0 -237 -82q-102 -90 -103 -228zM733 416q0 113 90 172 q78 51 199 41q6 -74 41 -137q-94 -57 -170 -103.5t-135 -83.5q-25 70 -25 111zM770 283q104 59 181 105t124 79q63 -94 148 -94q76 0 75 69q0 29 -22 58q94 -10 162 -45q94 -49 94 -125q0 -115 -121 -193q-102 -63 -229 -63q-246 0 -412 209zM1067 618q102 -24 170 -92 q-98 -4 -137 -24q-33 63 -33 116zM1108 477q55 20 94 23h53q11 -27 11 -43q0 -51 -43 -51q-68 0 -115 71z" />
<glyph unicode="}" horiz-adv-x="1767" d="M6 500q115 123 184 174q113 82 232 82q129 0 194 -117q-39 -10 -66.5 -20.5t-43.5 -20.5q-29 -16 -84 -74q-104 -4 -184 -47q-100 -57 -101 -147q0 -139 144 -219q119 -68 268 -68q74 0 132 11.5t108.5 37t95.5 65.5t92 99q203 -86 297 -86q154 0 274 102 q129 106 129 260q0 137 -102 228q-94 82 -238 82q-113 0 -202 -66q-96 -72 -97 -180q0 -86 63.5 -149.5t149.5 -63.5q37 0 72 12.5t61.5 34t43 50t16.5 63.5q0 57 -36 98t-91 41q-39 0 -67.5 -23.5t-28.5 -62.5q0 -18 10 -43q31 33 53 33q53 0 53 -64q0 -41 -31.5 -68.5 t-74.5 -27.5q-72 0 -121 49t-49 121q0 96 92 164q84 59 184 59q109 0 199 -80q88 -76 88 -186q0 -133 -113 -238q-115 -102 -247 -102q-106 0 -275 68q29 63 29 102q0 166 -146 231q-94 45 -206 35q-41 160 -224 160q-131 0 -249 -90q-74 -57 -187 -197v-22zM156 330 q0 76 94 125q68 35 162 45q-23 -29 -23 -58q0 -70 76 -69q84 0 147 94q96 -55 172.5 -101t133.5 -83q-166 -209 -412 -209q-127 0 -230 63q-121 78 -120 193zM422 457q0 16 10 43h53q40 -3 95 -23q-47 -72 -115 -71q-43 0 -43 51zM451 526q68 67 170 92q0 -53 -33 -116 q-29 14 -68 20q-10 2 -26 2t-43 2zM625 492q35 63 41 137q121 10 198 -41q90 -59 90 -172q0 -41 -24 -111q-109 66 -184.5 112t-120.5 75z" />
<glyph unicode="~" horiz-adv-x="1013" d="M82 319h113q14 119 110 119q27 0 209 -59q145 -47 197 -47q55 0 108 30q96 57 113 211h-113q-23 -117 -110 -116q-35 0 -183 49q-166 57 -225 57q-94 0 -160 -84q-53 -72 -59 -160z" />
<glyph unicode="&#xa1;" horiz-adv-x="671" d="M-2 61q0 -78 51 -77q96 0 178 192q104 248 178 423t121 282q10 27 25.5 58.5t36.5 66.5h-23q-147 -238 -221 -344q-346 -501 -346 -601zM639 1272q0 -102 86 -103q47 0 82 38t35 85q0 100 -84 101q-47 0 -83 -37t-36 -84z" />
<glyph unicode="&#xa2;" horiz-adv-x="727" d="M8 453q0 -133 115 -170l-98 -185l32 -14l101 188q33 0 59.5 3.5t48.5 7.5q63 14 162 100l-18 27q-109 -90 -177 -91q-39 0 -63.5 32t-24.5 73q0 135 109 291q147 209 262 209q86 0 86 -68q0 -29 -24.5 -57.5t-51.5 -28.5q-29 0 -28 39q0 18 34 41q-29 23 -43 22 q-90 0 -90 -104q0 -82 99 -82q63 0 105 44.5t42 107.5q0 111 -108 145l73 137l-32 10l-74 -137q-295 0 -438 -309q-57 -121 -58 -231z" />
<glyph unicode="&#xa4;" horiz-adv-x="1058" d="M203 764l90 -90q-63 -84 -64 -189q0 -104 66 -186l-90 -92l47 -47l92 90q84 -66 186 -66q98 0 187 66l92 -92l47 49l-90 92q66 94 65 186q0 94 -63 189l88 90l-47 49l-90 -90q-88 63 -189 63q-100 0 -188 -63l-90 90zM303 485q0 47 18.5 88t49 72t71.5 49.5t88 18.5 q94 0 160 -66q68 -66 68 -162q0 -47 -18.5 -88t-49.5 -71.5t-71.5 -49t-88.5 -18.5q-47 0 -88 18.5t-71.5 49t-49 71.5t-18.5 88z" />
<glyph unicode="&#xa6;" horiz-adv-x="497" d="M182 -356h135v714h-135v-714zM182 666h135v716h-135v-716z" />
<glyph unicode="&#xa7;" horiz-adv-x="948" d="M-94 -352q0 -14 18 -21q51 -18 197 -18q258 0 401 115q104 82 105 172q0 41 -22.5 71.5t-35.5 40.5q162 86 185 105q102 78 102 172q0 70 -61 135q-80 72 -142.5 123t-107.5 86q-178 143 -178 186q0 20 54 41t132 21q242 0 242 -119q0 -29 -25 -86l23 -6q98 168 98 215 q0 45 -47 80q-51 39 -150 38q-176 0 -307 -112q-117 -102 -117 -201q0 -47 41 -104q-70 -45 -118 -80t-74 -62q-82 -82 -82 -178q0 -55 43 -100t248 -205q27 -23 45 -37t28 -22q88 -74 88 -115q0 -100 -153 -100q-90 0 -170 36l29 56q-152 8 -215 18zM182 393q0 90 146 168 q14 -12 34.5 -30.5t49.5 -41.5l102 -81q113 -92 139 -123q39 -41 39 -92q0 -94 -141 -170q-57 47 -105.5 87t-89.5 72q-29 25 -47 40.5t-22 19.5q-104 88 -105 151z" />
<glyph unicode="&#xa8;" horiz-adv-x="614" d="M82 840q0 -92 78 -92q41 0 73.5 33.5t32.5 74.5q0 92 -76 92q-41 0 -74.5 -33.5t-33.5 -74.5zM356 840q0 -92 76 -92q41 0 75 33.5t34 74.5q0 92 -78 92q-41 0 -74 -33.5t-33 -74.5z" />
<glyph unicode="&#xa9;" horiz-adv-x="1638" d="M106 739q0 -305 213 -524q211 -215 517 -215q301 0 514 215q211 217 211 524q0 313 -211 527q-211 217 -514 217t-516.5 -219.5t-213.5 -524.5zM229 739q0 262 178.5 457t428.5 195t426 -195t176 -457t-178 -454q-174 -193 -424 -193t-428.5 192.5t-178.5 454.5zM426 760 q0 -215 131 -326q119 -100 320 -100q115 0 225 37q57 18 57 41l33 147h-41q-68 -172 -254 -172q-307 0 -303 381q2 160 79 256t212 96q219 0 233 -180h41v147q0 33 -49 46q-111 41 -217 41q-223 0 -354 -142q-113 -119 -113 -272z" />
<glyph unicode="&#xad;" horiz-adv-x="548" d="M37 309q0 -12 12 -12q6 0 28.5 7t33.5 7q33 0 104 -12q35 -4 61.5 -7t42.5 -3q51 0 101 22q59 29 59 78q0 12 -8 12l-39 -6q-20 -4 -37.5 -6t-32.5 -2q-12 0 -33.5 2t-43 5l-43 6t-33.5 3q-47 0 -121 -43q-51 -31 -51 -51z" />
<glyph unicode="&#xae;" horiz-adv-x="860" d="M57 1014q0 -154 109 -262q106 -106 262 -107q150 0 258 109q111 106 111 260t-109 262q-109 111 -262 110q-152 0 -260.5 -108.5t-108.5 -263.5zM129 1012q0 123 86 213q90 90 213 90q125 0 211 -90t86 -213t-88 -211q-90 -86 -209 -86q-125 0 -213 86q-86 88 -86 211z M242 825h155v13q-47 0 -47 53v117h43l150 -183h90v13q-25 0 -43 22l-127 152q111 18 110 102q0 104 -159 105h-172v-15q45 -2 45 -55v-250q0 -37 -7.5 -48t-37.5 -13v-13zM350 1024v137q0 35 31 35q125 0 125 -84q0 -88 -156 -88z" />
<glyph unicode="&#xb0;" horiz-adv-x="940" d="M86 868q0 -143 131 -143q125 0 234 123q110 125 110 252q0 119 -125 119q-115 0 -233 -119q-117 -117 -117 -232zM211 825q0 86 80 207q86 131 166 131q53 0 53 -84q0 -100 -107 -207q-96 -96 -151 -96q-41 0 -41 49z" />
<glyph unicode="&#xb4;" horiz-adv-x="614" d="M109 748h61l309 161q43 39 43 82q0 78 -90 78q-41 0 -82 -47z" />
<glyph unicode="&#xbf;" horiz-adv-x="1069" d="M23 240q0 -115 98 -189q88 -68 207 -67q193 0 356 122q176 133 176 320q0 51 -32.5 86t-84.5 35q-59 0 -137 -53l21 -7q63 37 112 37q43 0 71 -28.5t28 -71.5q0 -139 -156 -262q-145 -115 -291 -115q-88 0 -151 47q-68 51 -68 139q0 115 160 267q104 98 170 139 q131 80 205.5 129t97.5 66q59 47 59 110q0 84 -86 84q-29 0 -94 -16l23 -15q23 8 51 9q78 0 78 -62q0 -25 -21.5 -53.5t-44.5 -40.5l-426 -211q-119 -59 -211 -164q-110 -122 -110 -235zM831 1270q0 -102 87 -103q47 0 82.5 38t35.5 85q0 100 -86 101q-47 0 -83 -37t-36 -84 z" />
<glyph unicode="&#xc0;" horiz-adv-x="2172" d="M-12 365q0 -342 239 -551q229 -205 576 -205q289 0 631 184q51 29 84.5 48.5t54.5 29.5q59 -41 105 -71.5t81 -49.5q180 -92 383 -90q133 4 248 90q127 98 127 223q0 102 -88 170q-78 63 -186 64q-113 0 -220 -49q-84 -39 -434 -252l-61 57q197 102 342 309 q74 109 102 187q31 84 43 207q430 168 430 536q0 254 -231 412q-147 100 -318 127q-33 45 -79 45q-43 0 -70 -33h-4q-252 0 -475 -149q-248 -168 -248 -410q0 -301 237 -399l7 26q-215 94 -215 373q0 227 235 387q207 139 449 143q-4 -16 -4 -24q0 -43 43 -82l204 -154h54 l-117 244q154 -27 280 -115q223 -150 224 -391q0 -342 -398 -500q25 338 228 527q70 63 69 86q0 33 -20 33q-336 -98 -594 -443q-111 -145 -160 -258h-510q-211 0 -366 -112q-176 -127 -177 -328q0 -131 99 -201q88 -61 223 -61q299 0 588 426q59 90 99 150.5t63 94.5 q158 0 249 19q0 -96 -75 -281q-29 -72 -51.5 -125t-38.5 -90q-10 -23 -76 -82q-63 -57 -84 -57q-98 45 -164 45q-51 0 -51 -41q0 -61 112 -61q20 0 44 3t53 7l73 -66q-436 -258 -749 -258q-338 0 -561 199q-236 203 -236 537q0 315 195 516q193 199 510 198q53 0 118 -26v24 q-68 25 -118 25q-332 0 -529 -203q-195 -205 -194 -534zM586 207q0 178 176 299q156 106 344 106h412q-190 -295 -277 -389q-225 -250 -430 -250q-225 0 -225 234zM1313 0q0 12 18 12q26 1 94 -28q-45 -10 -67 -11q-45 0 -45 27zM1583 647q51 141 211 326q33 35 76 78 t100 90q144 123 193 123q2 0 2 -2q-10 -16 -80 -99q-236 -272 -273 -497q-98 -18 -229 -19zM1610 -113q338 205 409 238q117 53 226 53q49 0 93 -15.5t77.5 -42t53 -65.5t19.5 -84q0 -117 -116 -202q-109 -80 -230 -80q-297 0 -532 198z" />
<glyph unicode="&#xc1;" horiz-adv-x="2172" d="M-12 365q0 -342 239 -551q229 -205 576 -205q289 0 631 184q51 29 84.5 48.5t54.5 29.5q59 -41 105 -71.5t81 -49.5q180 -92 383 -90q133 4 248 90q127 98 127 223q0 102 -88 170q-78 63 -186 64q-113 0 -220 -49q-84 -39 -434 -252l-61 57q197 102 342 309 q74 109 102 187q31 84 43 207q430 168 430 536q0 160 -92 283l264 137q43 39 43 82q0 78 -90 78q-41 0 -82 -47l-178 -201q-39 41 -96 80q-207 139 -471 139q-256 0 -475 -149q-248 -168 -248 -410q0 -301 237 -399l7 26q-215 94 -215 373q0 231 239 389q211 141 455 141 q256 0 450 -131q59 -39 99 -82l-45 -51h61l21 10q88 -113 88 -268q0 -342 -398 -500q25 338 228 527q70 63 69 86q0 33 -20 33q-336 -98 -594 -443q-111 -145 -160 -258h-510q-211 0 -366 -112q-176 -127 -177 -328q0 -131 99 -201q88 -61 223 -61q299 0 588 426 q59 90 99 150.5t63 94.5q158 0 249 19q0 -96 -75 -281q-29 -72 -51.5 -125t-38.5 -90q-10 -23 -76 -82q-63 -57 -84 -57q-98 45 -164 45q-51 0 -51 -41q0 -61 112 -61q20 0 44 3t53 7l73 -66q-436 -258 -749 -258q-338 0 -561 199q-236 203 -236 537q0 315 195 516 q193 199 510 198q53 0 118 -26v24q-68 25 -118 25q-332 0 -529 -203q-195 -205 -194 -534zM586 207q0 178 176 299q156 106 344 106h412q-190 -295 -277 -389q-225 -250 -430 -250q-225 0 -225 234zM1313 0q0 12 18 12q26 1 94 -28q-45 -10 -67 -11q-45 0 -45 27zM1583 647 q51 141 211 326q33 35 76 78t100 90q144 123 193 123q2 0 2 -2q-10 -16 -80 -99q-236 -272 -273 -497q-98 -18 -229 -19zM1610 -113q338 205 409 238q117 53 226 53q49 0 93 -15.5t77.5 -42t53 -65.5t19.5 -84q0 -117 -116 -202q-109 -80 -230 -80q-297 0 -532 198z" />
<glyph unicode="&#xc2;" horiz-adv-x="2172" d="M-12 365q0 -342 239 -551q229 -205 576 -205q289 0 631 184q51 29 84.5 48.5t54.5 29.5q59 -41 105 -71.5t81 -49.5q180 -92 383 -90q133 4 248 90q127 98 127 223q0 102 -88 170q-78 63 -186 64q-113 0 -220 -49q-84 -39 -434 -252l-61 57q197 102 342 309 q74 109 102 187q31 84 43 207q430 168 430 536q0 199 -143 340l113 43l49 -112h39l-17 309l-256 -180q-211 152 -487 151q-256 0 -475 -149q-248 -168 -248 -410q0 -301 237 -399l7 26q-215 94 -215 373q0 231 239 389q211 141 455 141q258 0 450 -131l13 -8l-160 -112h78 l149 57q143 -131 144 -328q0 -342 -398 -500q25 338 228 527q70 63 69 86q0 33 -20 33q-336 -98 -594 -443q-111 -145 -160 -258h-510q-211 0 -366 -112q-176 -127 -177 -328q0 -131 99 -201q88 -61 223 -61q299 0 588 426q59 90 99 150.5t63 94.5q158 0 249 19 q0 -96 -75 -281q-29 -72 -51.5 -125t-38.5 -90q-10 -23 -76 -82q-63 -57 -84 -57q-98 45 -164 45q-51 0 -51 -41q0 -61 112 -61q20 0 44 3t53 7l73 -66q-436 -258 -749 -258q-338 0 -561 199q-236 203 -236 537q0 315 195 516q193 199 510 198q53 0 118 -26v24 q-68 25 -118 25q-332 0 -529 -203q-195 -205 -194 -534zM586 207q0 178 176 299q156 106 344 106h412q-190 -295 -277 -389q-225 -250 -430 -250q-225 0 -225 234zM1313 0q0 12 18 12q26 1 94 -28q-45 -10 -67 -11q-45 0 -45 27zM1583 647q51 141 211 326q33 35 76 78 t100 90q144 123 193 123q2 0 2 -2q-10 -16 -80 -99q-236 -272 -273 -497q-98 -18 -229 -19zM1610 -113q338 205 409 238q117 53 226 53q49 0 93 -15.5t77.5 -42t53 -65.5t19.5 -84q0 -117 -116 -202q-109 -80 -230 -80q-297 0 -532 198z" />
<glyph unicode="&#xc3;" horiz-adv-x="2172" d="M-12 365q0 -342 239 -551q229 -205 576 -205q289 0 631 184q51 29 84.5 48.5t54.5 29.5q59 -41 105 -71.5t81 -49.5q180 -92 383 -90q133 4 248 90q127 98 127 223q0 102 -88 170q-78 63 -186 64q-113 0 -220 -49q-84 -39 -434 -252l-61 57q197 102 342 309 q74 109 102 187q31 84 43 207q430 168 430 536q0 254 -229 410q31 55 74 55q2 0 25.5 -5t68.5 -15q92 -18 110 -19q47 0 78 43l74 107l-35 20q-35 -55 -74 -55q-37 0 -106 18q-68 20 -104 21q-39 0 -74 -47l-70 -101q-193 119 -440 119q-256 0 -475 -149 q-248 -168 -248 -410q0 -301 237 -399l7 26q-215 94 -215 373q0 231 239 389q211 141 455 141q256 0 450 -131q223 -150 224 -391q0 -342 -398 -500q25 338 228 527q70 63 69 86q0 33 -20 33q-336 -98 -594 -443q-111 -145 -160 -258h-510q-211 0 -366 -112 q-176 -127 -177 -328q0 -131 99 -201q88 -61 223 -61q299 0 588 426q59 90 99 150.5t63 94.5q158 0 249 19q0 -96 -75 -281q-29 -72 -51.5 -125t-38.5 -90q-10 -23 -76 -82q-63 -57 -84 -57q-98 45 -164 45q-51 0 -51 -41q0 -61 112 -61q20 0 44 3t53 7l73 -66 q-436 -258 -749 -258q-338 0 -561 199q-236 203 -236 537q0 315 195 516q193 199 510 198q53 0 118 -26v24q-68 25 -118 25q-332 0 -529 -203q-195 -205 -194 -534zM586 207q0 178 176 299q156 106 344 106h412q-190 -295 -277 -389q-225 -250 -430 -250q-225 0 -225 234z M1313 0q0 12 18 12q26 1 94 -28q-45 -10 -67 -11q-45 0 -45 27zM1583 647q51 141 211 326q33 35 76 78t100 90q144 123 193 123q2 0 2 -2q-10 -16 -80 -99q-236 -272 -273 -497q-98 -18 -229 -19zM1610 -113q338 205 409 238q117 53 226 53q49 0 93 -15.5t77.5 -42t53 -65.5 t19.5 -84q0 -117 -116 -202q-109 -80 -230 -80q-297 0 -532 198z" />
<glyph unicode="&#xc4;" horiz-adv-x="2172" d="M-12 365q0 -342 239 -551q229 -205 576 -205q289 0 631 184q51 29 84.5 48.5t54.5 29.5q59 -41 105 -71.5t81 -49.5q180 -92 383 -90q133 4 248 90q127 98 127 223q0 102 -88 170q-78 63 -186 64q-113 0 -220 -49q-84 -39 -434 -252l-61 57q197 102 342 309 q74 109 102 187q31 84 43 207q430 168 430 536q0 242 -211 397q52 34 52 91q0 92 -76 92q-41 0 -74 -32t-35 -73q-160 76 -358 76q-256 0 -475 -149q-248 -168 -248 -410q0 -301 237 -399l7 26q-215 94 -215 373q0 231 239 389q211 141 455 141q197 0 360 -79q8 -63 76 -64 q10 0 27 4q211 -147 211 -383q0 -342 -398 -500q25 338 228 527q70 63 69 86q0 33 -20 33q-336 -98 -594 -443q-111 -145 -160 -258h-510q-211 0 -366 -112q-176 -127 -177 -328q0 -131 99 -201q88 -61 223 -61q299 0 588 426q59 90 99 150.5t63 94.5q158 0 249 19 q0 -96 -75 -281q-29 -72 -51.5 -125t-38.5 -90q-10 -23 -76 -82q-63 -57 -84 -57q-98 45 -164 45q-51 0 -51 -41q0 -61 112 -61q20 0 44 3t53 7l73 -66q-436 -258 -749 -258q-338 0 -561 199q-236 203 -236 537q0 315 195 516q193 199 510 198q53 0 118 -26v24 q-68 25 -118 25q-332 0 -529 -203q-195 -205 -194 -534zM586 207q0 178 176 299q156 106 344 106h412q-190 -295 -277 -389q-225 -250 -430 -250q-225 0 -225 234zM1313 0q0 12 18 12q26 1 94 -28q-45 -10 -67 -11q-45 0 -45 27zM1583 647q51 141 211 326q33 35 76 78 t100 90q144 123 193 123q2 0 2 -2q-10 -16 -80 -99q-236 -272 -273 -497q-98 -18 -229 -19zM1610 -113q338 205 409 238q117 53 226 53q49 0 93 -15.5t77.5 -42t53 -65.5t19.5 -84q0 -117 -116 -202q-109 -80 -230 -80q-297 0 -532 198zM2376 1673q0 -92 75 -92q41 0 75 34 t34 75q0 92 -78 92q-41 0 -73.5 -34t-32.5 -75z" />
<glyph unicode="&#xc5;" horiz-adv-x="2172" d="M-12 365q0 -342 239 -551q229 -205 576 -205q289 0 631 184q51 29 84.5 48.5t54.5 29.5q59 -41 105 -71.5t81 -49.5q180 -92 383 -90q133 4 248 90q127 98 127 223q0 102 -88 170q-78 63 -186 64q-113 0 -220 -49q-84 -39 -434 -252l-61 57q197 102 342 309 q74 109 102 187q31 84 43 207q430 168 430 536q0 207 -157 352q33 39 32 93q0 63 -43 106t-104 43q-100 0 -137 -90q-141 47 -293 47q-256 0 -475 -149q-248 -168 -248 -410q0 -301 237 -399l7 26q-215 94 -215 373q0 231 239 389q211 141 455 141q147 0 282 -47 q-2 -10 -2 -30q0 -61 44 -104.5t106 -43.5q51 0 96 35q147 -135 148 -332q0 -342 -398 -500q25 338 228 527q70 63 69 86q0 33 -20 33q-336 -98 -594 -443q-111 -145 -160 -258h-510q-211 0 -366 -112q-176 -127 -177 -328q0 -131 99 -201q88 -61 223 -61q299 0 588 426 q59 90 99 150.5t63 94.5q158 0 249 19q0 -96 -75 -281q-29 -72 -51.5 -125t-38.5 -90q-10 -23 -76 -82q-63 -57 -84 -57q-98 45 -164 45q-51 0 -51 -41q0 -61 112 -61q20 0 44 3t53 7l73 -66q-436 -258 -749 -258q-338 0 -561 199q-236 203 -236 537q0 315 195 516 q193 199 510 198q53 0 118 -26v24q-68 25 -118 25q-332 0 -529 -203q-195 -205 -194 -534zM586 207q0 178 176 299q156 106 344 106h412q-190 -295 -277 -389q-225 -250 -430 -250q-225 0 -225 234zM1313 0q0 12 18 12q26 1 94 -28q-45 -10 -67 -11q-45 0 -45 27zM1583 647 q51 141 211 326q33 35 76 78t100 90q144 123 193 123q2 0 2 -2q-10 -16 -80 -99q-236 -272 -273 -497q-98 -18 -229 -19zM1610 -113q338 205 409 238q117 53 226 53q49 0 93 -15.5t77.5 -42t53 -65.5t19.5 -84q0 -117 -116 -202q-109 -80 -230 -80q-297 0 -532 198z M2085 1647v6q37 -16 70.5 -36t64.5 -42q-20 -14 -47 -14q-37 0 -62.5 25.5t-25.5 60.5zM2093 1681q23 53 80 54q35 0 60.5 -26t25.5 -62q0 -32 -18 -52q-68 51 -148 86z" />
<glyph unicode="&#xc7;" horiz-adv-x="1910" d="M6 178q0 -305 174 -500q182 -207 484 -206q172 0 368 82q135 53 226.5 91t142.5 60q203 82 393 82q170 0 334 -70q209 -90 209 -233q0 -41 -31 -98q2 -2 4 -5.5t6 -7.5q45 64 45 111q0 166 -213 256q-160 70 -354 70q-186 0 -395 -82q-137 -53 -231.5 -91t-147.5 -61 q-203 -82 -356 -82q-287 0 -465 203q-170 195 -170 481q0 362 268 627q270 264 633 264q41 0 94 -2t119 -6q164 -10 164 -27q-63 -35 -127 -90t-129 -129q-213 -242 -213 -481q0 -262 194 -359q84 -115 199 -114q215 0 434 293l-16 18q-225 -283 -418 -283q-78 0 -129 64 q12 -2 21.5 -3t17.5 -1q201 0 383 194q180 193 180 400q0 188 -162 188q-233 0 -401 -235q-143 -199 -144 -390q0 -29 2 -34q-47 47 -45 123q2 111 74 258q82 170 191 290q143 156 264 258q141 -20 238.5 -29t154.5 -9q117 0 207 36q123 51 123 150q0 119 -207 119 q-291 0 -666 -209q-14 2 -47 5t-86 9q-158 18 -270 19q-377 0 -651 -269q-272 -266 -273 -645zM676 -389l6 -23q115 29 213 93q129 82 129 178q0 57 -59 57q-37 0 -72 -26.5t-35 -61.5q0 -12 10.5 -38t10.5 -28q0 -45 -82 -96q-61 -35 -121 -55zM1032 119q0 176 144 368 q154 207 323 207q135 0 135 -137q0 -168 -161 -367q-170 -203 -334 -202q-45 0 -84 24q-23 63 -23 107zM1526 1022q297 223 473 223q184 0 184 -96q0 -164 -307 -164q-102 0 -350 37z" />
<glyph unicode="&#xc8;" horiz-adv-x="1992" d="M0 602q0 -63 33 -127l24 17q-31 61 -30 112q0 231 290 350q221 90 484 90q168 0 381 -36q2 -2 12 -33l8 -27q8 -29 22.5 -57.5t35.5 -59.5q-10 2 -25 3h-31q-203 0 -327 -123q-125 -119 -125 -322q0 -223 155 -342q139 -109 369 -108q201 0 346 141q147 143 147 344 q0 100 -53 170q-57 76 -155 76q-135 0 -250 -109q-113 -106 -113 -244q0 -39 12.5 -73.5t36 -61t55 -42t68.5 -15.5q139 0 205 145q35 82 35 222h-25q0 -133 -43 -222q-55 -117 -172 -116q-63 0 -103 49t-40 114q0 121 106 222q109 102 228 102q88 0 137 -68q43 -59 43 -149 q0 -184 -139 -318q-137 -131 -326 -131q-147 0 -244 127q-86 117 -86 273q0 139 96 258q94 119 236 119q51 0 92 -23q37 -47 82 -47q25 2 25 25q0 20 -35 38q-43 23 -45 29q-23 31 -33 100q-4 47 -6 66q131 -47 211 -47q102 0 184 57q90 66 90 162q0 104 -86 178 q-84 68 -188 68q-322 0 -387 -318q-262 31 -381 31q-276 0 -504 -96q-297 -125 -297 -373zM1286 1696q0 -43 43 -82l205 -154h53l-131 275q-37 47 -82 47q-37 0 -62.5 -24.5t-25.5 -61.5zM1352 1020q0 98 90 182t192 84q74 0 129.5 -50t55.5 -124q0 -98 -80 -149 q-70 -45 -170 -45q-111 0 -209 61q-8 14 -8 41z" />
<glyph unicode="&#xc9;" horiz-adv-x="1992" d="M0 602q0 -63 33 -127l24 17q-31 61 -30 112q0 231 290 350q221 90 484 90q168 0 381 -36q2 -2 12 -33l8 -27q8 -29 22.5 -57.5t35.5 -59.5q-10 2 -25 3h-31q-203 0 -327 -123q-125 -119 -125 -322q0 -223 155 -342q139 -109 369 -108q201 0 346 141q147 143 147 344 q0 100 -53 170q-57 76 -155 76q-135 0 -250 -109q-113 -106 -113 -244q0 -39 12.5 -73.5t36 -61t55 -42t68.5 -15.5q139 0 205 145q35 82 35 222h-25q0 -133 -43 -222q-55 -117 -172 -116q-63 0 -103 49t-40 114q0 121 106 222q109 102 228 102q88 0 137 -68q43 -59 43 -149 q0 -184 -139 -318q-137 -131 -326 -131q-147 0 -244 127q-86 117 -86 273q0 139 96 258q94 119 236 119q51 0 92 -23q37 -47 82 -47q25 2 25 25q0 20 -35 38q-43 23 -45 29q-23 31 -33 100q-4 47 -6 66q131 -47 211 -47q102 0 184 57q90 66 90 162q0 104 -86 178 q-84 68 -188 68q-322 0 -387 -318q-262 31 -381 31q-276 0 -504 -96q-297 -125 -297 -373zM1352 1020q0 98 90 182t192 84q74 0 129.5 -50t55.5 -124q0 -98 -80 -149q-70 -45 -170 -45q-111 0 -209 61q-8 14 -8 41zM1573 1460h61l310 162q43 39 43 82q0 78 -91 78 q-41 0 -81 -47z" />
<glyph unicode="&#xca;" horiz-adv-x="1992" d="M0 602q0 -63 33 -127l24 17q-31 61 -30 112q0 231 290 350q221 90 484 90q168 0 381 -36q2 -2 12 -33l8 -27q8 -29 22.5 -57.5t35.5 -59.5q-10 2 -25 3h-31q-203 0 -327 -123q-125 -119 -125 -322q0 -223 155 -342q139 -109 369 -108q201 0 346 141q147 143 147 344 q0 100 -53 170q-57 76 -155 76q-135 0 -250 -109q-113 -106 -113 -244q0 -39 12.5 -73.5t36 -61t55 -42t68.5 -15.5q139 0 205 145q35 82 35 222h-25q0 -133 -43 -222q-55 -117 -172 -116q-63 0 -103 49t-40 114q0 121 106 222q109 102 228 102q88 0 137 -68q43 -59 43 -149 q0 -184 -139 -318q-137 -131 -326 -131q-147 0 -244 127q-86 117 -86 273q0 139 96 258q94 119 236 119q51 0 92 -23q37 -47 82 -47q25 2 25 25q0 20 -35 38q-43 23 -45 29q-23 31 -33 100q-4 47 -6 66q131 -47 211 -47q102 0 184 57q90 66 90 162q0 104 -86 178 q-84 68 -188 68q-322 0 -387 -318q-262 31 -381 31q-276 0 -504 -96q-297 -125 -297 -373zM1352 1020q0 98 90 182t192 84q74 0 129.5 -50t55.5 -124q0 -98 -80 -149q-70 -45 -170 -45q-111 0 -209 61q-8 14 -8 41zM1409 1473h78l291 112l49 -112h39l-17 309z" />
<glyph unicode="&#xcb;" horiz-adv-x="1992" d="M0 602q0 -63 33 -127l24 17q-31 61 -30 112q0 231 290 350q221 90 484 90q168 0 381 -36q2 -2 12 -33l8 -27q8 -29 22.5 -57.5t35.5 -59.5q-10 2 -25 3h-31q-203 0 -327 -123q-125 -119 -125 -322q0 -223 155 -342q139 -109 369 -108q201 0 346 141q147 143 147 344 q0 100 -53 170q-57 76 -155 76q-135 0 -250 -109q-113 -106 -113 -244q0 -39 12.5 -73.5t36 -61t55 -42t68.5 -15.5q139 0 205 145q35 82 35 222h-25q0 -133 -43 -222q-55 -117 -172 -116q-63 0 -103 49t-40 114q0 121 106 222q109 102 228 102q88 0 137 -68q43 -59 43 -149 q0 -184 -139 -318q-137 -131 -326 -131q-147 0 -244 127q-86 117 -86 273q0 139 96 258q94 119 236 119q51 0 92 -23q37 -47 82 -47q25 2 25 25q0 20 -35 38q-43 23 -45 29q-23 31 -33 100q-4 47 -6 66q131 -47 211 -47q102 0 184 57q90 66 90 162q0 104 -86 178 q-84 68 -188 68q-322 0 -387 -318q-262 31 -381 31q-276 0 -504 -96q-297 -125 -297 -373zM1352 1020q0 98 90 182t192 84q74 0 129.5 -50t55.5 -124q0 -98 -80 -149q-70 -45 -170 -45q-111 0 -209 61q-8 14 -8 41zM1421 1673q0 -92 78 -92q41 0 74 34t33 75q0 92 -76 92 q-41 0 -75 -34t-34 -75zM1696 1673q0 -92 76 -92q41 0 74.5 34t33.5 75q0 92 -78 92q-41 0 -73.5 -34t-32.5 -75z" />
<glyph unicode="&#xcc;" horiz-adv-x="1615" d="M6 750q0 -125 19 -220q0 -299 206 -458q164 -125 390 -125q289 0 466 128t269 402q145 29 241 133q45 47 89 150q33 74 32 98l-18 8q-55 -172 -117 -235q-29 -29 -104 -74q-84 -49 -115 -49q0 49 45 170q158 436 459 532q101 33 246 37q-4 20 -5 21q-10 25 -75 43 q-14 4 -37 9t-55 11q-127 25 -242 25q-383 0 -596 -195q-102 -94 -143 -215q-147 111 -326 111q-313 0 -485 -228q-72 -98 -109 -227q-8 51 -12 88t-4 60q0 246 174 432q176 188 419 188q106 0 205 -45l4 18q-90 45 -206 46q-254 0 -435 -193q-180 -188 -180 -446zM47 492 q78 -154 127 -216q141 -170 367 -165q401 2 540 417q35 -23 59 -36t38 -17q-63 -162 -224 -323q-182 -182 -333 -183q-244 0 -402 140q-154 137 -172 383zM49 545q117 494 586 493q184 0 317 -114q4 -123 19 -193q22 -98 92 -186q-63 -160 -119 -232q-145 -184 -403 -184 q-340 0 -492 416zM975 901q61 -90 74 -172q4 -35 8 -69.5t6 -69.5q-57 90 -70 147q-14 111 -18 164zM981 928q66 213 287 319q186 92 432 92q84 0 198 -18q156 -24 179 -61q-190 -8 -281 -31q-301 -72 -496 -447q-18 -35 -46.5 -105.5t-67.5 -176.5q-68 33 -101 55 q-8 203 -59 303q-10 16 -20.5 34.5t-24.5 35.5zM1397 1696q0 -43 43 -82l205 -154h53l-131 275q-37 47 -82 47q-37 0 -62.5 -24.5t-25.5 -61.5z" />
<glyph unicode="&#xcd;" horiz-adv-x="1615" d="M6 750q0 -125 19 -220q0 -299 206 -458q164 -125 390 -125q289 0 466 128t269 402q145 29 241 133q45 47 89 150q33 74 32 98l-18 8q-55 -172 -117 -235q-29 -29 -104 -74q-84 -49 -115 -49q0 49 45 170q158 436 459 532q101 33 246 37q-4 20 -5 21q-10 25 -75 43 q-14 4 -37 9t-55 11q-127 25 -242 25q-383 0 -596 -195q-102 -94 -143 -215q-147 111 -326 111q-313 0 -485 -228q-72 -98 -109 -227q-8 51 -12 88t-4 60q0 246 174 432q176 188 419 188q106 0 205 -45l4 18q-90 45 -206 46q-254 0 -435 -193q-180 -188 -180 -446zM47 492 q78 -154 127 -216q141 -170 367 -165q401 2 540 417q35 -23 59 -36t38 -17q-63 -162 -224 -323q-182 -182 -333 -183q-244 0 -402 140q-154 137 -172 383zM49 545q117 494 586 493q184 0 317 -114q4 -123 19 -193q22 -98 92 -186q-63 -160 -119 -232q-145 -184 -403 -184 q-340 0 -492 416zM975 901q61 -90 74 -172q4 -35 8 -69.5t6 -69.5q-57 90 -70 147q-14 111 -18 164zM981 928q66 213 287 319q186 92 432 92q84 0 198 -18q156 -24 179 -61q-190 -8 -281 -31q-301 -72 -496 -447q-18 -35 -46.5 -105.5t-67.5 -176.5q-68 33 -101 55 q-8 203 -59 303q-10 16 -20.5 34.5t-24.5 35.5zM1681 1460h62l309 162q43 39 43 82q0 78 -90 78q-41 0 -82 -47z" />
<glyph unicode="&#xce;" horiz-adv-x="1615" d="M6 750q0 -125 19 -220q0 -299 206 -458q164 -125 390 -125q289 0 466 128t269 402q145 29 241 133q45 47 89 150q33 74 32 98l-18 8q-55 -172 -117 -235q-29 -29 -104 -74q-84 -49 -115 -49q0 49 45 170q158 436 459 532q101 33 246 37q-4 20 -5 21q-10 25 -75 43 q-14 4 -37 9t-55 11q-127 25 -242 25q-383 0 -596 -195q-102 -94 -143 -215q-147 111 -326 111q-313 0 -485 -228q-72 -98 -109 -227q-8 51 -12 88t-4 60q0 246 174 432q176 188 419 188q106 0 205 -45l4 18q-90 45 -206 46q-254 0 -435 -193q-180 -188 -180 -446zM47 492 q78 -154 127 -216q141 -170 367 -165q401 2 540 417q35 -23 59 -36t38 -17q-63 -162 -224 -323q-182 -182 -333 -183q-244 0 -402 140q-154 137 -172 383zM49 545q117 494 586 493q184 0 317 -114q4 -123 19 -193q22 -98 92 -186q-63 -160 -119 -232q-145 -184 -403 -184 q-340 0 -492 416zM975 901q61 -90 74 -172q4 -35 8 -69.5t6 -69.5q-57 90 -70 147q-14 111 -18 164zM981 928q66 213 287 319q186 92 432 92q84 0 198 -18q156 -24 179 -61q-190 -8 -281 -31q-301 -72 -496 -447q-18 -35 -46.5 -105.5t-67.5 -176.5q-68 33 -101 55 q-8 203 -59 303q-10 16 -20.5 34.5t-24.5 35.5zM1436 1473h77l291 112l49 -112h39l-16 309z" />
<glyph unicode="&#xcf;" horiz-adv-x="1615" d="M6 750q0 -125 19 -220q0 -299 206 -458q164 -125 390 -125q289 0 466 128t269 402q145 29 241 133q45 47 89 150q33 74 32 98l-18 8q-55 -172 -117 -235q-29 -29 -104 -74q-84 -49 -115 -49q0 49 45 170q158 436 459 532q101 33 246 37q-4 20 -5 21q-10 25 -75 43 q-14 4 -37 9t-55 11q-127 25 -242 25q-383 0 -596 -195q-102 -94 -143 -215q-147 111 -326 111q-313 0 -485 -228q-72 -98 -109 -227q-8 51 -12 88t-4 60q0 246 174 432q176 188 419 188q106 0 205 -45l4 18q-90 45 -206 46q-254 0 -435 -193q-180 -188 -180 -446zM47 492 q78 -154 127 -216q141 -170 367 -165q401 2 540 417q35 -23 59 -36t38 -17q-63 -162 -224 -323q-182 -182 -333 -183q-244 0 -402 140q-154 137 -172 383zM49 545q117 494 586 493q184 0 317 -114q4 -123 19 -193q22 -98 92 -186q-63 -160 -119 -232q-145 -184 -403 -184 q-340 0 -492 416zM975 901q61 -90 74 -172q4 -35 8 -69.5t6 -69.5q-57 90 -70 147q-14 111 -18 164zM981 928q66 213 287 319q186 92 432 92q84 0 198 -18q156 -24 179 -61q-190 -8 -281 -31q-301 -72 -496 -447q-18 -35 -46.5 -105.5t-67.5 -176.5q-68 33 -101 55 q-8 203 -59 303q-10 16 -20.5 34.5t-24.5 35.5zM1462 1673q0 -92 78 -92q41 0 74 34t33 75q0 92 -76 92q-41 0 -75 -34t-34 -75zM1737 1673q0 -92 75 -92q41 0 75 34t34 75q0 92 -78 92q-41 0 -73.5 -34t-32.5 -75z" />
<glyph unicode="&#xd1;" horiz-adv-x="2131" d="M0 342q0 -248 170 -387q158 -133 412 -133q430 0 731 577q166 315 325 645q-29 -195 -30 -307q-2 -41 2 -99t12 -134q8 -80 12 -138.5t4 -95.5q0 -61 -41 -172q-14 -35 -23 -59.5t-15 -38.5q0 -20 26 -20q25 0 84 92l148 235q113 180 239 418q16 29 71.5 135.5 t151.5 292.5q20 39 41 76t43 71q100 -35 191 -34q74 0 141 28q80 37 80 107q0 90 -135 90q-139 0 -289 -166q-47 23 -131 51.5t-207 67.5q-319 98 -471 98q-283 0 -409 -57q-129 -57 -224 -199q-96 -141 -104 -285q-39 4 -74 7.5t-63 3.5q-276 0 -473 -197 q-195 -199 -195 -473zM16 342q0 274 189 463q186 190 463 190q27 0 60.5 -3t76.5 -11q0 -131 80 -231q84 -98 211 -117q0 -225 -107 -375q-72 -102 -194 -172q-125 -70 -242 -70q-129 0 -213 90q-82 88 -82 224q0 166 111 301q119 143 280 143q104 0 180 -76q78 -74 78 -176 q0 -53 -47 -160q2 0 7 1.5t16 3.5q45 88 45 155q0 117 -82 193q-84 78 -197 78q-176 0 -295 -148q-117 -139 -116 -315q0 -72 22.5 -132.5t64.5 -104.5t99 -68.5t129 -24.5q127 0 254 72q307 172 307 559q299 41 299 315q0 49 -37 152l-18 -4q35 -94 35 -148 q0 -256 -283 -289q-33 131 -92 205q-57 76 -176 127q55 309 319 436q205 98 381 99q215 0 799 -217q-41 -61 -80 -140q-176 -342 -227 -448q-45 -86 -117 -209t-174 -283q70 195 69 283l-40 256q-20 129 -30.5 194.5t-10.5 69.5q0 117 69 211q23 29 64 68t102 90 q-188 63 -315 63q-168 0 -346 -73q-225 -96 -226 -236q0 -72 82 -109l4 19q-66 41 -65 90q0 127 221 217q180 74 330 74q98 0 270 -55q-240 -209 -307 -345q-119 -236 -199 -396.5t-125 -248.5q-285 -561 -708 -561q-246 0 -400 129q-166 135 -166 375zM842 969 q115 -45 172 -125q39 -56 78 -187q-111 23 -180.5 111t-69.5 201zM1985 1628l34 -18q31 57 76 57q2 0 25.5 -5t68.5 -15q92 -18 111 -19q47 0 78 43l73 107l-34 20q-35 -55 -74 -55q-37 0 -107 18q-68 20 -104 21q-39 0 -74 -47zM2376 1319q119 154 264 154q37 0 77 -19.5 t40 -52.5q0 -59 -76 -90q-61 -23 -127 -23q-55 0 -178 31z" />
<glyph unicode="&#xd2;" horiz-adv-x="1228" d="M0 324q0 -152 84 -258q88 -111 240 -111q199 0 399 168q166 137 283 340q55 94 106 250q55 166 55 262q0 104 -59 194q-70 100 -168 101q-170 0 -324 -211q-143 -199 -143 -375q0 -74 40 -125t112 -51q137 0 243 137q100 125 101 268q0 49 -27 95.5t-72 46.5 q-53 0 -133 -80l15 -14q63 74 118 73q37 0 58 -45q18 -37 18 -76q0 -104 -88 -231q-102 -152 -233 -152q-63 0 -99 48q-31 39 -30 106q0 168 137 360q147 207 307 207q115 0 115 -166q0 -244 -221 -645q-100 -180 -209 -299q-160 -174 -301 -174q-80 0 -129 62 q-43 57 -43 139q0 358 337 829q84 117 160 180.5t211 129.5h-86q-164 -23 -352 -195q-174 -158 -287 -356q-135 -233 -135 -432zM670 1696q0 -43 43 -82l205 -154h53l-131 275q-37 47 -82 47q-37 0 -62.5 -24.5t-25.5 -61.5z" />
<glyph unicode="&#xd3;" horiz-adv-x="1228" d="M0 324q0 -152 84 -258q88 -111 240 -111q199 0 399 168q166 137 283 340q55 94 106 250q55 166 55 262q0 104 -59 194q-70 100 -168 101q-170 0 -324 -211q-143 -199 -143 -375q0 -74 40 -125t112 -51q137 0 243 137q100 125 101 268q0 49 -27 95.5t-72 46.5 q-53 0 -133 -80l15 -14q63 74 118 73q37 0 58 -45q18 -37 18 -76q0 -104 -88 -231q-102 -152 -233 -152q-63 0 -99 48q-31 39 -30 106q0 168 137 360q147 207 307 207q115 0 115 -166q0 -244 -221 -645q-100 -180 -209 -299q-160 -174 -301 -174q-80 0 -129 62 q-43 57 -43 139q0 358 337 829q84 117 160 180.5t211 129.5h-86q-164 -23 -352 -195q-174 -158 -287 -356q-135 -233 -135 -432zM1092 1460h61l309 162q43 39 43 82q0 78 -90 78q-41 0 -82 -47z" />
<glyph unicode="&#xd4;" horiz-adv-x="1228" d="M0 324q0 -152 84 -258q88 -111 240 -111q199 0 399 168q166 137 283 340q55 94 106 250q55 166 55 262q0 104 -59 194q-70 100 -168 101q-170 0 -324 -211q-143 -199 -143 -375q0 -74 40 -125t112 -51q137 0 243 137q100 125 101 268q0 49 -27 95.5t-72 46.5 q-53 0 -133 -80l15 -14q63 74 118 73q37 0 58 -45q18 -37 18 -76q0 -104 -88 -231q-102 -152 -233 -152q-63 0 -99 48q-31 39 -30 106q0 168 137 360q147 207 307 207q115 0 115 -166q0 -244 -221 -645q-100 -180 -209 -299q-160 -174 -301 -174q-80 0 -129 62 q-43 57 -43 139q0 358 337 829q84 117 160 180.5t211 129.5h-86q-164 -23 -352 -195q-174 -158 -287 -356q-135 -233 -135 -432zM772 1473h78l291 112l49 -112h39l-17 309z" />
<glyph unicode="&#xd5;" horiz-adv-x="1228" d="M0 324q0 -152 84 -258q88 -111 240 -111q199 0 399 168q166 137 283 340q55 94 106 250q55 166 55 262q0 104 -59 194q-70 100 -168 101q-170 0 -324 -211q-143 -199 -143 -375q0 -74 40 -125t112 -51q137 0 243 137q100 125 101 268q0 49 -27 95.5t-72 46.5 q-53 0 -133 -80l15 -14q63 74 118 73q37 0 58 -45q18 -37 18 -76q0 -104 -88 -231q-102 -152 -233 -152q-63 0 -99 48q-31 39 -30 106q0 168 137 360q147 207 307 207q115 0 115 -166q0 -244 -221 -645q-100 -180 -209 -299q-160 -174 -301 -174q-80 0 -129 62 q-43 57 -43 139q0 358 337 829q84 117 160 180.5t211 129.5h-86q-164 -23 -352 -195q-174 -158 -287 -356q-135 -233 -135 -432zM946 1628l35 -18q31 57 76 57q2 0 25.5 -5t68.5 -15q92 -18 111 -19q47 0 77 43l74 107l-35 20q-35 -55 -73 -55q-37 0 -107 18q-68 20 -104 21 q-39 0 -74 -47z" />
<glyph unicode="&#xd6;" horiz-adv-x="1228" d="M0 324q0 -152 84 -258q88 -111 240 -111q199 0 399 168q166 137 283 340q55 94 106 250q55 166 55 262q0 104 -59 194q-70 100 -168 101q-170 0 -324 -211q-143 -199 -143 -375q0 -74 40 -125t112 -51q137 0 243 137q100 125 101 268q0 49 -27 95.5t-72 46.5 q-53 0 -133 -80l15 -14q63 74 118 73q37 0 58 -45q18 -37 18 -76q0 -104 -88 -231q-102 -152 -233 -152q-63 0 -99 48q-31 39 -30 106q0 168 137 360q147 207 307 207q115 0 115 -166q0 -244 -221 -645q-100 -180 -209 -299q-160 -174 -301 -174q-80 0 -129 62 q-43 57 -43 139q0 358 337 829q84 117 160 180.5t211 129.5h-86q-164 -23 -352 -195q-174 -158 -287 -356q-135 -233 -135 -432zM952 1673q0 -92 78 -92q41 0 74 34t33 75q0 92 -76 92q-41 0 -75 -34t-34 -75zM1227 1673q0 -92 76 -92q41 0 74.5 34t33.5 75q0 92 -78 92 q-41 0 -73.5 -34t-32.5 -75z" />
<glyph unicode="&#xd7;" horiz-adv-x="1128" d="M274 176l86 -88l205 203l203 -203l88 88l-205 203l205 203l-88 88l-203 -203l-205 203l-86 -88l203 -203z" />
<glyph unicode="&#xd8;" horiz-adv-x="1767" d="M117 532q0 -135 125 -217q106 -70 250 -69q121 0 368 125q250 127 354 127q119 0 216 -78q94 -76 94 -197q0 -80 -45 -137q-49 -63 -127 -63q-74 0 -162 36l-8 -22q94 -37 170 -37q49 0 91 19.5t71.5 52t46 78t16.5 96.5q0 141 -115 213q-98 61 -248 61q-111 0 -364 -127 q-248 -125 -358 -125q-123 0 -217.5 82t-94.5 203q0 96 72 152q63 51 164 51q90 0 166 -47q82 -55 82 -144q0 -68 -48.5 -113.5t-115.5 -45.5q-100 0 -101 75q0 14 7 31q35 31 63 41q-4 53 -43 53q-45 0 -76 -30.5t-31 -75.5q0 -63 52 -97q45 -31 108 -30q86 0 146.5 53 t60.5 139q0 100 -90 160q-78 53 -182 53q-297 0 -297 -246z" />
<glyph unicode="&#xd9;" horiz-adv-x="1771" d="M10 707q0 -141 96 -238q100 -96 242 -96q207 0 340 86l-6 12q-141 -80 -334 -80q-131 0 -227 90q-92 92 -92 226q0 203 190 378q217 199 543 199q162 0 264 -80q109 -90 109 -248q0 -78 -105 -221q-72 -98 -120 -165.5t-76 -106.5q-104 -152 -105 -285q0 -80 45 -143 q49 -72 123 -72q125 0 291 199q0 -199 121 -199q150 0 258 139v37q-115 -139 -228 -139q-31 0 -30 31q0 86 227 471q170 289 502 553q399 -424 813 -424q92 0 170 43q139 77 139 192q0 193 -182 301q-158 92 -361 93q-172 0 -270 -27q-84 -23 -301 -105q-70 53 -129 89 t-111 57q-113 41 -276 41h-94v-12h110q164 0 443 -199q-418 -270 -660 -658q-53 -86 -89 -145t-56 -92q-143 -223 -287 -223q-76 0 -76 92q0 90 99 225q66 90 110.5 150.5t71.5 95.5q41 57 65.5 91t32.5 48q35 66 35 150q0 221 -126 343t-347 122q-342 0 -559 -205 q-193 -180 -193 -391zM1341 1696q0 -43 43 -82l205 -154h53l-131 275q-37 47 -81 47q-37 0 -63 -24.5t-26 -61.5zM2083 1094q301 145 534 145q197 0 344 -86q179 -105 179 -287q0 -94 -101 -157q-88 -57 -188 -58q-313 0 -768 443z" />
<glyph unicode="&#xda;" horiz-adv-x="1771" d="M10 707q0 -141 96 -238q100 -96 242 -96q207 0 340 86l-6 12q-141 -80 -334 -80q-131 0 -227 90q-92 92 -92 226q0 203 190 378q217 199 543 199q162 0 264 -80q109 -90 109 -248q0 -78 -105 -221q-72 -98 -120 -165.5t-76 -106.5q-104 -152 -105 -285q0 -80 45 -143 q49 -72 123 -72q125 0 291 199q0 -199 121 -199q150 0 258 139v37q-115 -139 -228 -139q-31 0 -30 31q0 86 227 471q170 289 502 553q399 -424 813 -424q92 0 170 43q139 77 139 192q0 193 -182 301q-158 92 -361 93q-172 0 -270 -27q-84 -23 -301 -105q-70 53 -129 89 t-111 57q-113 41 -276 41h-94v-12h110q164 0 443 -199q-418 -270 -660 -658q-53 -86 -89 -145t-56 -92q-143 -223 -287 -223q-76 0 -76 92q0 90 99 225q66 90 110.5 150.5t71.5 95.5q41 57 65.5 91t32.5 48q35 66 35 150q0 221 -126 343t-347 122q-342 0 -559 -205 q-193 -180 -193 -391zM1675 1460h62l309 162q43 39 43 82q0 78 -90 78q-41 0 -82 -47zM2083 1094q301 145 534 145q197 0 344 -86q179 -105 179 -287q0 -94 -101 -157q-88 -57 -188 -58q-313 0 -768 443z" />
<glyph unicode="&#xdb;" horiz-adv-x="1771" d="M10 707q0 -141 96 -238q100 -96 242 -96q207 0 340 86l-6 12q-141 -80 -334 -80q-131 0 -227 90q-92 92 -92 226q0 203 190 378q217 199 543 199q162 0 264 -80q109 -90 109 -248q0 -78 -105 -221q-72 -98 -120 -165.5t-76 -106.5q-104 -152 -105 -285q0 -80 45 -143 q49 -72 123 -72q125 0 291 199q0 -199 121 -199q150 0 258 139v37q-115 -139 -228 -139q-31 0 -30 31q0 86 227 471q170 289 502 553q399 -424 813 -424q92 0 170 43q139 77 139 192q0 193 -182 301q-158 92 -361 93q-172 0 -270 -27q-84 -23 -301 -105q-70 53 -129 89 t-111 57q-113 41 -276 41h-94v-12h110q164 0 443 -199q-418 -270 -660 -658q-53 -86 -89 -145t-56 -92q-143 -223 -287 -223q-76 0 -76 92q0 90 99 225q66 90 110.5 150.5t71.5 95.5q41 57 65.5 91t32.5 48q35 66 35 150q0 221 -126 343t-347 122q-342 0 -559 -205 q-193 -180 -193 -391zM1466 1473h78l291 112l49 -112h39l-16 309zM2083 1094q301 145 534 145q197 0 344 -86q179 -105 179 -287q0 -94 -101 -157q-88 -57 -188 -58q-313 0 -768 443z" />
<glyph unicode="&#xdc;" horiz-adv-x="1771" d="M10 707q0 -141 96 -238q100 -96 242 -96q207 0 340 86l-6 12q-141 -80 -334 -80q-131 0 -227 90q-92 92 -92 226q0 203 190 378q217 199 543 199q162 0 264 -80q109 -90 109 -248q0 -78 -105 -221q-72 -98 -120 -165.5t-76 -106.5q-104 -152 -105 -285q0 -80 45 -143 q49 -72 123 -72q125 0 291 199q0 -199 121 -199q150 0 258 139v37q-115 -139 -228 -139q-31 0 -30 31q0 86 227 471q170 289 502 553q399 -424 813 -424q92 0 170 43q139 77 139 192q0 193 -182 301q-158 92 -361 93q-172 0 -270 -27q-84 -23 -301 -105q-70 53 -129 89 t-111 57q-113 41 -276 41h-94v-12h110q164 0 443 -199q-418 -270 -660 -658q-53 -86 -89 -145t-56 -92q-143 -223 -287 -223q-76 0 -76 92q0 90 99 225q66 90 110.5 150.5t71.5 95.5q41 57 65.5 91t32.5 48q35 66 35 150q0 221 -126 343t-347 122q-342 0 -559 -205 q-193 -180 -193 -391zM1534 1673q0 -92 78 -92q41 0 73.5 34t32.5 75q0 92 -76 92q-41 0 -74.5 -34t-33.5 -75zM1808 1673q0 -92 76 -92q41 0 75 34t34 75q0 92 -78 92q-41 0 -74 -34t-33 -75zM2083 1094q301 145 534 145q197 0 344 -86q179 -105 179 -287q0 -94 -101 -157 q-88 -57 -188 -58q-313 0 -768 443z" />
<glyph unicode="&#xdd;" horiz-adv-x="2148" d="M4 1251q0 -119 115 -196q100 -68 227 -68q96 0 170 27q70 25 163 70.5t212 115.5q0 -109 -14 -164q-41 -109 -66 -155l16 -4q84 139 84 288q0 33 -2 43q184 84 336 84q68 0 124 -22.5t97 -62.5t63.5 -96t22.5 -124q0 -113 -82 -237l-153 -240q-82 -125 -82 -279 q0 -100 39 -170q49 -84 143 -84q74 0 164 84q16 16 48 52.5t79 91.5q-63 -317 -98 -410q-16 -41 -43 -78q-66 59 -105 95t-53 49q-281 240 -596 239q-242 0 -428 -114q-215 -135 -215 -365q0 -229 217 -360q182 -113 426 -113q510 0 770 518q539 -508 1038 -508 q283 0 480 185q198 183 198 464q0 213 -139 371q-143 162 -360 162q-147 0 -254 -84q-113 -88 -113 -236q0 -125 80 -206q82 -82 209 -82q20 0 20 22q-281 37 -280 266q0 135 104 216q96 72 234 71q193 0 338 -153q137 -150 137 -347q0 -270 -190.5 -448t-463.5 -178 q-350 0 -716 244q-186 125 -312 262q10 23 21.5 45t21.5 45q78 184 130.5 308t80.5 194q156 381 377 663q309 395 612 395q293 0 328 -245l23 -13q0 86 -33 138q-86 137 -354 137q-483 0 -897 -670q-51 -80 -144 -285q-78 -170 -125 -241q-102 -158 -196 -158q-86 0 -86 119 q0 70 20 137q35 76 119 205q43 66 72.5 116t46.5 85q55 117 55 225q0 176 -123 297q-121 123 -297 123q-106 0 -192 -23l-146 -53q-49 160 -150.5 227.5t-273.5 67.5q-479 0 -479 -275zM18 1251q0 262 465 262q328 1 404 -290q-377 -217 -541 -217q-123 0 -217 61 q-111 70 -111 184zM209 -379q0 223 199 352q168 106 405 107q246 0 461 -141q53 -35 122.5 -95.5t157.5 -146.5q-78 -145 -190 -246q-231 -207 -551 -207q-203 0 -381 88q-223 106 -223 289zM2087 1460h61l310 162q43 39 43 82q0 78 -91 78q-41 0 -81 -47z" />
<glyph unicode="&#xdf;" horiz-adv-x="747" d="M-915 -524q0 -82 58 -133.5t144 -51.5q147 0 271 129q31 -94 151 -100q199 -10 357 125q162 135 170 332q2 45 1 77.5t-6 55.5q324 133 592 502l-16 16q-297 -377 -586 -498q-6 41 -51 95q90 23 199 133q133 137 143 288q4 61 -32 107.5t-97 50.5q-90 4 -166 -76 q45 100 98.5 199.5t112.5 198.5q168 276 217 276q35 0 35 -59q29 6 54.5 9t31.5 13q0 12 -9 24.5t-22.5 23t-28 16.5t-26.5 6q-127 0 -348 -285q-68 -88 -135.5 -190.5t-137.5 -218.5h-120l-21 -37h119q-100 -199 -174 -348.5t-121 -249.5q-121 -252 -135 -283 q-14 -16 -23.5 -34.5t-17.5 -37.5q-145 -238 -279 -237q-66 0 -116 39q-57 39 -58 104q0 45 31 105q33 68 76 67q43 0 43 -53q0 -25 -64 -33q31 -53 68 -53q43 0 77.5 26.5t34.5 69.5q0 41 -29.5 73t-70.5 32q-78 0 -137 -66q-57 -66 -57 -149zM-397 -567q0 27 8 45 q41 53 72.5 94t52.5 70q10 14 18 32l56 43q174 125 319 156q-6 -143 -147 -334q-154 -205 -285 -198q-39 2 -67.5 27.5t-26.5 64.5zM-182 -217q23 47 53.5 97t71.5 106l10 20q16 -12 57 -16t115 18q8 -31 6 -110q-86 -20 -163.5 -48t-149.5 -67zM-31 35l15 33q12 8 39 4 q45 -4 90 -43q-66 -27 -101 -23q-43 2 -43 29zM-6 88q59 123 97 198.5t54 104.5l9 17q82 90 131 88q76 -4 71 -76q-6 -80 -71.5 -203t-130.5 -170q-66 39 -129 43q-15 2 -31 -2z" />
<glyph unicode="&#xe0;" d="M-104 172q0 -199 135 -199q104 0 194 117q55 -117 156 -117q148 0 539 473l-17 15q-49 -59 -109.5 -125t-131.5 -137q-199 -199 -269 -199q-45 0 -45 41q0 29 35 94l268 504q-10 -4 -35 -29q-25 -27 -32 -26q-14 0 -43 6t-43 6q-18 0 -43 -31q-35 49 -105 49 q-174 0 -315 -135q-139 -133 -139 -307zM12 68q0 111 117 299q131 211 252 211q43 -1 43 -50q0 -37 -209 -393q-80 -135 -162 -135q-41 0 -41 68zM72 983q0 -43 43 -82l204 -153h54l-131 274q-37 47 -82 47q-37 0 -62.5 -24.5t-25.5 -61.5z" />
<glyph unicode="&#xe1;" d="M-104 172q0 -199 135 -199q104 0 194 117q55 -117 156 -117q148 0 539 473l-17 15q-49 -59 -109.5 -125t-131.5 -137q-199 -199 -269 -199q-45 0 -45 41q0 29 35 94l268 504q-10 -4 -35 -29q-25 -27 -32 -26q-14 0 -43 6t-43 6q-18 0 -43 -31q-35 49 -105 49 q-174 0 -315 -135q-139 -133 -139 -307zM12 68q0 111 117 299q131 211 252 211q43 -1 43 -50q0 -37 -209 -393q-80 -135 -162 -135q-41 0 -41 68zM354 748h62l309 161q43 39 43 82q0 78 -90 78q-41 0 -82 -47z" />
<glyph unicode="&#xe2;" d="M-104 172q0 -199 135 -199q104 0 194 117q55 -117 156 -117q148 0 539 473l-17 15q-49 -59 -109.5 -125t-131.5 -137q-199 -199 -269 -199q-45 0 -45 41q0 29 35 94l268 504q-10 -4 -35 -29q-25 -27 -32 -26q-14 0 -43 6t-43 6q-18 0 -43 -31q-35 49 -105 49 q-174 0 -315 -135q-139 -133 -139 -307zM12 68q0 111 117 299q131 211 252 211q43 -1 43 -50q0 -37 -209 -393q-80 -135 -162 -135q-41 0 -41 68zM145 739h78l291 113l49 -113h39l-16 310z" />
<glyph unicode="&#xe3;" d="M-104 172q0 -199 135 -199q104 0 194 117q55 -117 156 -117q148 0 539 473l-17 15q-49 -59 -109.5 -125t-131.5 -137q-199 -199 -269 -199q-45 0 -45 41q0 29 35 94l268 504q-10 -4 -35 -29q-25 -27 -32 -26q-14 0 -43 6t-43 6q-18 0 -43 -31q-35 49 -105 49 q-174 0 -315 -135q-139 -133 -139 -307zM12 68q0 111 117 299q131 211 252 211q43 -1 43 -50q0 -37 -209 -393q-80 -135 -162 -135q-41 0 -41 68zM195 762l34 -19q31 57 76 58q2 0 25.5 -5t68.5 -16q92 -18 111 -18q47 0 78 43l74 106l-35 21q-35 -55 -74 -55q-37 0 -107 18 q-68 20 -104 20q-39 0 -74 -47z" />
<glyph unicode="&#xe4;" d="M-104 172q0 -199 135 -199q104 0 194 117q55 -117 156 -117q148 0 539 473l-17 15q-49 -59 -109.5 -125t-131.5 -137q-199 -199 -269 -199q-45 0 -45 41q0 29 35 94l268 504q-10 -4 -35 -29q-25 -27 -32 -26q-14 0 -43 6t-43 6q-18 0 -43 -31q-35 49 -105 49 q-174 0 -315 -135q-139 -133 -139 -307zM12 68q0 111 117 299q131 211 252 211q43 -1 43 -50q0 -37 -209 -393q-80 -135 -162 -135q-41 0 -41 68zM205 840q0 -92 78 -92q41 0 73.5 33.5t32.5 74.5q0 92 -76 92q-41 0 -74.5 -33.5t-33.5 -74.5zM479 840q0 -92 76 -92 q41 0 75 33.5t34 74.5q0 92 -78 92q-41 0 -74 -33.5t-33 -74.5z" />
<glyph unicode="&#xe5;" d="M-104 172q0 -199 135 -199q104 0 194 117q55 -117 156 -117q148 0 539 473l-17 15q-49 -59 -109.5 -125t-131.5 -137q-199 -199 -269 -199q-45 0 -45 41q0 29 35 94l268 504q-10 -4 -35 -29q-25 -27 -32 -26q-14 0 -43 6t-43 6q-18 0 -43 -31q-35 49 -105 49 q-174 0 -315 -135q-139 -133 -139 -307zM12 68q0 111 117 299q131 211 252 211q43 -1 43 -50q0 -37 -209 -393q-80 -135 -162 -135q-41 0 -41 68zM326 885q0 -61 44 -104.5t105 -43.5q59 0 103.5 43t44.5 105q0 63 -43 106t-105 43q-61 0 -105 -43t-44 -106zM387 885 q0 37 25.5 62.5t62.5 25.5q35 0 60.5 -25.5t25.5 -62.5q0 -35 -25.5 -60.5t-60.5 -25.5q-37 0 -62.5 25.5t-25.5 60.5z" />
<glyph unicode="&#xe6;" horiz-adv-x="1009" d="M-104 172q0 -199 135 -199q104 0 194 117q18 -37 34.5 -61.5t37 -39t49.5 -20.5t72 -6q154 0 366 172q186 150 283 311l-16 15q-86 -141 -258 -289q-201 -170 -330 -170q-55 0 -55 76q0 63 36 143q125 0 265 78q160 88 159 203q0 47 -34.5 79.5t-81.5 32.5 q-63 0 -127 -24q-10 -10 -23 -10q-16 0 -52 8t-52 8q-18 0 -43 -31q-35 49 -105 49q-174 0 -315 -135q-139 -135 -139 -307zM12 68q0 123 123 311q129 199 246 199q43 -1 43 -50q0 -43 -209 -393q-80 -135 -162 -135q-41 0 -41 68zM465 270q160 317 258 318q43 0 43 -47 q0 -72 -113 -172q-115 -98 -188 -99z" />
<glyph unicode="&#xe7;" horiz-adv-x="720" d="M-129 -389l6 -23q117 29 211 93q129 82 129 178q0 57 -59 57q-37 0 -72 -26.5t-35 -61.5q0 -12 10.5 -38t10.5 -28q0 -45 -80 -96q-61 -35 -121 -55zM-104 154q0 -180 202 -181q211 0 424 148q175 122 320 325l-17 15q-137 -190 -315 -316q-213 -147 -412 -147 q-92 0 -92 74q0 115 125 313q131 209 223 209q70 0 70 -43q0 -18 -22.5 -43t-41.5 -25q-27 0 -59 27q-20 -27 -20 -70q0 -53 73 -53q47 0 85 37t38 84t-38 76.5t-85 29.5q-195 0 -325 -135q-133 -133 -133 -325z" />
<glyph unicode="&#xe8;" horiz-adv-x="630" d="M-104 154q0 -78 50 -129.5t126 -51.5q150 0 364 197q166 153 240 276l-17 15q-78 -129 -243 -275q-209 -184 -344 -184q-55 0 -56 76q0 63 37 143q94 0 238 66q186 86 186 215q0 47 -34.5 79.5t-82.5 32.5q-143 0 -292 -122q-172 -141 -172 -338zM72 983q0 -43 43 -82 l204 -153h54l-131 274q-37 47 -82 47q-37 0 -62.5 -24.5t-25.5 -61.5zM74 270q160 317 258 318q43 0 43 -47q0 -72 -113 -172q-115 -98 -188 -99z" />
<glyph unicode="&#xe9;" horiz-adv-x="630" d="M-104 154q0 -78 50 -129.5t126 -51.5q150 0 364 197q166 153 240 276l-17 15q-78 -129 -243 -275q-209 -184 -344 -184q-55 0 -56 76q0 63 37 143q94 0 238 66q186 86 186 215q0 47 -34.5 79.5t-82.5 32.5q-143 0 -292 -122q-172 -141 -172 -338zM74 270q160 317 258 318 q43 0 43 -47q0 -72 -113 -172q-115 -98 -188 -99zM395 748h62l309 161q43 39 43 82q0 78 -90 78q-41 0 -82 -47z" />
<glyph unicode="&#xea;" horiz-adv-x="630" d="M-104 154q0 -78 50 -129.5t126 -51.5q150 0 364 197q166 153 240 276l-17 15q-78 -129 -243 -275q-209 -184 -344 -184q-55 0 -56 76q0 63 37 143q94 0 238 66q186 86 186 215q0 47 -34.5 79.5t-82.5 32.5q-143 0 -292 -122q-172 -141 -172 -338zM74 270q160 317 258 318 q43 0 43 -47q0 -72 -113 -172q-115 -98 -188 -99zM104 739h78l291 113l49 -113h39l-16 310z" />
<glyph unicode="&#xeb;" horiz-adv-x="630" d="M-104 154q0 -78 50 -129.5t126 -51.5q150 0 364 197q166 153 240 276l-17 15q-78 -129 -243 -275q-209 -184 -344 -184q-55 0 -56 76q0 63 37 143q94 0 238 66q186 86 186 215q0 47 -34.5 79.5t-82.5 32.5q-143 0 -292 -122q-172 -141 -172 -338zM74 270q160 317 258 318 q43 0 43 -47q0 -72 -113 -172q-115 -98 -188 -99zM164 840q0 -92 78 -92q41 0 73.5 33.5t32.5 74.5q0 92 -76 92q-41 0 -74.5 -33.5t-33.5 -74.5zM438 840q0 -92 76 -92q41 0 75 33.5t34 74.5q0 92 -78 92q-41 0 -74 -33.5t-33 -74.5z" />
<glyph unicode="&#xec;" horiz-adv-x="483" d="M-135 92q0 -119 127 -119q133 0 536 473l-16 15q-80 -96 -227 -246q-201 -203 -248 -203q-45 0 -45 54q0 41 16 77l260 496q-12 -4 -40.5 -32.5t-37.5 -28.5q-2 0 -26.5 9t-42.5 9q-31 0 -55 -43q-45 -82 -77 -138.5t-48 -88.5q-76 -137 -76 -234zM-131 983q0 -43 43 -82 l203 -153h53l-131 274q-37 47 -80 47q-37 0 -62.5 -24.5t-25.5 -61.5z" />
<glyph unicode="&#xed;" horiz-adv-x="483" d="M-135 92q0 -119 127 -119q133 0 536 473l-16 15q-80 -96 -227 -246q-201 -203 -248 -203q-45 0 -45 54q0 41 16 77l260 496q-12 -4 -40.5 -32.5t-37.5 -28.5q-2 0 -26.5 9t-42.5 9q-31 0 -55 -43q-45 -82 -77 -138.5t-48 -88.5q-76 -137 -76 -234zM272 748h62l309 161 q43 39 43 82q0 78 -90 78q-41 0 -82 -47z" />
<glyph unicode="&#xee;" horiz-adv-x="483" d="M-135 92q0 -119 127 -119q133 0 536 473l-16 15q-80 -96 -227 -246q-201 -203 -248 -203q-45 0 -45 54q0 41 16 77l260 496q-12 -4 -40.5 -32.5t-37.5 -28.5q-2 0 -26.5 9t-42.5 9q-31 0 -55 -43q-45 -82 -77 -138.5t-48 -88.5q-76 -137 -76 -234zM-16 739h75l291 113 l49 -113h39l-16 310z" />
<glyph unicode="&#xef;" horiz-adv-x="483" d="M-135 92q0 -119 127 -119q133 0 536 473l-16 15q-80 -96 -227 -246q-201 -203 -248 -203q-45 0 -45 54q0 41 16 77l260 496q-12 -4 -40.5 -32.5t-37.5 -28.5q-2 0 -26.5 9t-42.5 9q-31 0 -55 -43q-45 -82 -77 -138.5t-48 -88.5q-76 -137 -76 -234zM0 840q0 -92 78 -92 q41 0 73.5 33.5t32.5 74.5q0 92 -75 92q-41 0 -75 -33.5t-34 -74.5zM274 840q0 -92 76 -92q41 0 75 33.5t34 74.5q0 92 -78 92q-41 0 -74 -33.5t-33 -74.5z" />
<glyph unicode="&#xf1;" horiz-adv-x="790" d="M-246 -51q57 57 76 57q10 0 37 -7t39 -7q31 0 67 67q33 61 51.5 97.5t24.5 46.5q31 53 69 105t83 106q125 143 205 143q31 0 30 -18q0 -16 -28 -62l-170 -260q-45 -70 -43 -125q6 -121 118 -121q96 0 207 121q141 158 220.5 246t95.5 108l-17 15l-301 -332 q-111 -123 -170 -123q-43 0 -43 37q0 10 37 70l190 297q39 59 39 110q0 94 -94 94q-111 0 -307 -172l104 197q-4 -2 -14 -10t-27 -23q-33 -27 -34 -26q-8 0 -34 8t-38 8q-35 0 -61 -49zM236 762l34 -19q31 57 76 58q2 0 25.5 -5t68.5 -16q92 -18 111 -18q47 0 78 43l73 106 l-34 21q-35 -55 -74 -55q-37 0 -107 18q-68 20 -104 20q-39 0 -74 -47z" />
<glyph unicode="&#xf2;" horiz-adv-x="755" d="M-100 160q0 -70 41 -127q47 -59 112 -60q115 0 234 76q106 74 172 178q61 18 92 31q180 100 252 188l-17 15q-137 -127 -247 -180q-23 -10 -38.5 -15.5t-23.5 -7.5q10 23 18.5 41t12.5 29q18 45 18 94q0 78 -45 135t-121 57q-174 0 -319 -139q-141 -139 -141 -315zM14 66 q0 109 119 309q125 215 221 215q49 0 49 -51q0 -106 -79 -275q-61 8 -78 62q55 6 55 41q0 43 -43 43q-63 0 -63 -66q0 -63 112 -100q-147 -244 -254 -244q-39 0 -39 66zM72 983q0 -43 43 -82l204 -153h54l-131 274q-37 47 -82 47q-37 0 -62.5 -24.5t-25.5 -61.5z" />
<glyph unicode="&#xf3;" horiz-adv-x="755" d="M-100 160q0 -70 41 -127q47 -59 112 -60q115 0 234 76q106 74 172 178q61 18 92 31q180 100 252 188l-17 15q-137 -127 -247 -180q-23 -10 -38.5 -15.5t-23.5 -7.5q10 23 18.5 41t12.5 29q18 45 18 94q0 78 -45 135t-121 57q-174 0 -319 -139q-141 -139 -141 -315zM14 66 q0 109 119 309q125 215 221 215q49 0 49 -51q0 -106 -79 -275q-61 8 -78 62q55 6 55 41q0 43 -43 43q-63 0 -63 -66q0 -63 112 -100q-147 -244 -254 -244q-39 0 -39 66zM395 748h62l309 161q43 39 43 82q0 78 -90 78q-41 0 -82 -47z" />
<glyph unicode="&#xf4;" horiz-adv-x="755" d="M-100 160q0 -70 41 -127q47 -59 112 -60q115 0 234 76q106 74 172 178q61 18 92 31q180 100 252 188l-17 15q-137 -127 -247 -180q-23 -10 -38.5 -15.5t-23.5 -7.5q10 23 18.5 41t12.5 29q18 45 18 94q0 78 -45 135t-121 57q-174 0 -319 -139q-141 -139 -141 -315zM14 66 q0 109 119 309q125 215 221 215q49 0 49 -51q0 -106 -79 -275q-61 8 -78 62q55 6 55 41q0 43 -43 43q-63 0 -63 -66q0 -63 112 -100q-147 -244 -254 -244q-39 0 -39 66zM104 739h78l291 113l49 -113h39l-16 310z" />
<glyph unicode="&#xf5;" horiz-adv-x="755" d="M-100 160q0 -70 41 -127q47 -59 112 -60q115 0 234 76q106 74 172 178q61 18 92 31q180 100 252 188l-17 15q-137 -127 -247 -180q-23 -10 -38.5 -15.5t-23.5 -7.5q10 23 18.5 41t12.5 29q18 45 18 94q0 78 -45 135t-121 57q-174 0 -319 -139q-141 -139 -141 -315zM14 66 q0 109 119 309q125 215 221 215q49 0 49 -51q0 -106 -79 -275q-61 8 -78 62q55 6 55 41q0 43 -43 43q-63 0 -63 -66q0 -63 112 -100q-147 -244 -254 -244q-39 0 -39 66zM195 762l34 -19q31 57 76 58q2 0 25.5 -5t68.5 -16q92 -18 111 -18q47 0 78 43l74 106l-35 21 q-35 -55 -74 -55q-37 0 -107 18q-68 20 -104 20q-39 0 -74 -47z" />
<glyph unicode="&#xf6;" horiz-adv-x="755" d="M-100 160q0 -70 41 -127q47 -59 112 -60q115 0 234 76q106 74 172 178q61 18 92 31q180 100 252 188l-17 15q-137 -127 -247 -180q-23 -10 -38.5 -15.5t-23.5 -7.5q10 23 18.5 41t12.5 29q18 45 18 94q0 78 -45 135t-121 57q-174 0 -319 -139q-141 -139 -141 -315zM14 66 q0 109 119 309q125 215 221 215q49 0 49 -51q0 -106 -79 -275q-61 8 -78 62q55 6 55 41q0 43 -43 43q-63 0 -63 -66q0 -63 112 -100q-147 -244 -254 -244q-39 0 -39 66zM164 840q0 -92 78 -92q41 0 73.5 33.5t32.5 74.5q0 92 -76 92q-41 0 -74.5 -33.5t-33.5 -74.5zM438 840 q0 -92 76 -92q41 0 75 33.5t34 74.5q0 92 -78 92q-41 0 -74 -33.5t-33 -74.5z" />
<glyph unicode="&#xf7;" horiz-adv-x="1128" d="M244 317h643v125h-643v-125zM479 102q0 -37 24.5 -61.5t59.5 -24.5t61.5 27t26.5 63q0 37 -25.5 63t-60.5 26t-60.5 -28t-25.5 -65zM479 651q0 -37 24.5 -61.5t59.5 -24.5t61.5 26.5t26.5 63.5t-25.5 62.5t-60.5 25.5t-60.5 -27.5t-25.5 -64.5z" />
<glyph unicode="&#xf8;" horiz-adv-x="1767" d="M160 246q0 -51 16.5 -96.5t46 -78t71.5 -52t91 -19.5q74 0 170 37l-8 22q-90 -37 -162 -36q-78 0 -127 63q-45 57 -45 137q0 121 94 197q96 78 215 78q104 0 355 -127q248 -125 368 -125q143 0 250 69q125 82 125 217q0 246 -297 246q-104 0 -182 -53q-90 -59 -90 -160 q0 -86 60 -139t146 -53q63 0 111.5 32.5t48.5 94.5q0 45 -30.5 75.5t-75.5 30.5q-39 0 -43 -53q70 -20 69 -72q0 -76 -100 -75q-68 0 -116 46t-48 113q0 88 82 144q76 47 166 47q98 0 166.5 -52.5t68.5 -150.5q0 -121 -94 -203t-217 -82q-111 0 -360 125q-250 127 -363 127 q-152 0 -246 -61q-117 -72 -116 -213z" />
<glyph unicode="&#xf9;" horiz-adv-x="851" d="M-143 72q0 -98 104 -99q70 0 123 37q16 14 48 46t77 85q14 -168 121 -168q141 0 336 189q59 59 116.5 128.5t114.5 155.5l-16 15q-92 -133 -217 -260q-176 -182 -267 -183q-53 0 -53 41q0 31 33 91l260 489q-10 -2 -39 -31q-27 -27 -35 -26q-10 0 -35.5 7t-38.5 7 q-33 0 -47 -27l-159 -284q-29 -51 -109 -154q-94 -119 -131 -119q-49 0 -49 54q0 51 33 114l243 459q-10 -4 -36.5 -30.5t-36.5 -26.5q-12 0 -36 7t-32 7q-39 0 -55 -29l-150 -278q-68 -127 -67 -217zM113 983q0 -43 43 -82l204 -153h54l-131 274q-37 47 -82 47 q-37 0 -62.5 -24.5t-25.5 -61.5z" />
<glyph unicode="&#xfa;" horiz-adv-x="851" d="M-143 72q0 -98 104 -99q70 0 123 37q16 14 48 46t77 85q14 -168 121 -168q141 0 336 189q59 59 116.5 128.5t114.5 155.5l-16 15q-92 -133 -217 -260q-176 -182 -267 -183q-53 0 -53 41q0 31 33 91l260 489q-10 -2 -39 -31q-27 -27 -35 -26q-10 0 -35.5 7t-38.5 7 q-33 0 -47 -27l-159 -284q-29 -51 -109 -154q-94 -119 -131 -119q-49 0 -49 54q0 51 33 114l243 459q-10 -4 -36.5 -30.5t-36.5 -26.5q-12 0 -36 7t-32 7q-39 0 -55 -29l-150 -278q-68 -127 -67 -217zM395 748h62l309 161q43 39 43 82q0 78 -90 78q-41 0 -82 -47z" />
<glyph unicode="&#xfb;" horiz-adv-x="851" d="M-143 72q0 -98 104 -99q70 0 123 37q16 14 48 46t77 85q14 -168 121 -168q141 0 336 189q59 59 116.5 128.5t114.5 155.5l-16 15q-92 -133 -217 -260q-176 -182 -267 -183q-53 0 -53 41q0 31 33 91l260 489q-10 -2 -39 -31q-27 -27 -35 -26q-10 0 -35.5 7t-38.5 7 q-33 0 -47 -27l-159 -284q-29 -51 -109 -154q-94 -119 -131 -119q-49 0 -49 54q0 51 33 114l243 459q-10 -4 -36.5 -30.5t-36.5 -26.5q-12 0 -36 7t-32 7q-39 0 -55 -29l-150 -278q-68 -127 -67 -217zM186 739h78l291 113l49 -113h39l-16 310z" />
<glyph unicode="&#xfc;" horiz-adv-x="851" d="M-143 72q0 -98 104 -99q70 0 123 37q16 14 48 46t77 85q14 -168 121 -168q141 0 336 189q59 59 116.5 128.5t114.5 155.5l-16 15q-92 -133 -217 -260q-176 -182 -267 -183q-53 0 -53 41q0 31 33 91l260 489q-10 -2 -39 -31q-27 -27 -35 -26q-10 0 -35.5 7t-38.5 7 q-33 0 -47 -27l-159 -284q-29 -51 -109 -154q-94 -119 -131 -119q-49 0 -49 54q0 51 33 114l243 459q-10 -4 -36.5 -30.5t-36.5 -26.5q-12 0 -36 7t-32 7q-39 0 -55 -29l-150 -278q-68 -127 -67 -217zM246 840q0 -92 78 -92q41 0 73.5 33.5t32.5 74.5q0 92 -76 92 q-41 0 -74.5 -33.5t-33.5 -74.5zM520 840q0 -92 76 -92q41 0 75 33.5t34 74.5q0 92 -78 92q-41 0 -74 -33.5t-33 -74.5z" />
<glyph unicode="&#xfd;" horiz-adv-x="784" d="M-406 -451q0 -70 48.5 -113.5t117.5 -43.5q111 0 207 96q33 35 68 86t74 121q8 16 36.5 72.5t79.5 156.5q125 70 185 123q53 51 91 86t58 55q202 190 270 258l-16 15l-270 -254l-142 -135q-82 -76 -157 -117q78 111 145.5 215t120.5 209l135 260q-12 -4 -39 -31 q-29 -29 -37 -28q-10 0 -34.5 8t-38.5 8q-31 0 -58 -49l-215 -385q-35 -66 -117 -111q-66 -37 -92 -37q-27 0 -26 58q0 39 30 100l250 467q-12 -4 -39 -31q-29 -29 -34 -28q-12 0 -39 8t-41 8q-31 0 -58 -49l-163 -311q-35 -66 -35 -127q0 -135 108 -136q66 0 199 99 l-86 -170q-221 -70 -328 -135q-158 -96 -158 -218zM-389 -449q0 111 149 199q41 23 119 56.5t195 74.5q-53 -90 -91 -150.5t-65 -95.5q-127 -170 -221 -170q-86 0 -86 86z" />
<glyph unicode="&#xff;" horiz-adv-x="784" d="M-406 -451q0 -70 48.5 -113.5t117.5 -43.5q111 0 207 96q33 35 68 86t74 121q8 16 36.5 72.5t79.5 156.5q125 70 185 123q53 51 91 86t58 55q202 190 270 258l-16 15l-270 -254l-142 -135q-82 -76 -157 -117q78 111 145.5 215t120.5 209l135 260q-12 -4 -39 -31 q-29 -29 -37 -28q-10 0 -34.5 8t-38.5 8q-31 0 -58 -49l-215 -385q-35 -66 -117 -111q-66 -37 -92 -37q-27 0 -26 58q0 39 30 100l250 467q-12 -4 -39 -31q-29 -29 -34 -28q-12 0 -39 8t-41 8q-31 0 -58 -49l-163 -311q-35 -66 -35 -127q0 -135 108 -136q66 0 199 99 l-86 -170q-221 -70 -328 -135q-158 -96 -158 -218zM-389 -449q0 111 149 199q41 23 119 56.5t195 74.5q-53 -90 -91 -150.5t-65 -95.5q-127 -170 -221 -170q-86 0 -86 86zM246 840q0 -92 78 -92q41 0 73.5 33.5t32.5 74.5q0 92 -76 92q-41 0 -74.5 -33.5t-33.5 -74.5z M520 840q0 -92 76 -92q41 0 75 33.5t34 74.5q0 92 -78 92q-41 0 -74 -33.5t-33 -74.5z" />
<glyph unicode="&#x153;" horiz-adv-x="1058" d="M-100 160q0 -70 41 -127q47 -59 112 -60q129 0 256 95l25 18q45 -113 168 -113q150 0 364 197q166 154 240 276l-16 15q-78 -129 -244 -275q-209 -184 -344 -184q-55 0 -56 76q0 63 37 143q94 0 238 66q186 86 186 215q0 47 -34.5 79.5t-81.5 32.5q-135 0 -279 -110 q-41 111 -152 110q-174 0 -319 -139q-141 -139 -141 -315zM14 66q0 109 119 309q125 215 221 215q49 0 49 -51q0 -106 -79 -275q-61 8 -78 62q55 6 55 41q0 43 -43 43q-63 0 -63 -66q0 -63 112 -100q-147 -244 -254 -244q-39 0 -39 66zM504 270q160 317 258 318q43 0 43 -47 q0 -51 -70 -127q-55 -47 -104 -80t-92 -53q-8 -4 -13.5 -6.5t-9.5 -4.5h-12z" />
<glyph unicode="&#x178;" horiz-adv-x="2148" d="M4 1251q0 -119 115 -196q100 -68 227 -68q96 0 170 27q70 25 163 70.5t212 115.5q0 -109 -14 -164q-41 -109 -66 -155l16 -4q84 139 84 288q0 33 -2 43q184 84 336 84q68 0 124 -22.5t97 -62.5t63.5 -96t22.5 -124q0 -113 -82 -237l-153 -240q-82 -125 -82 -279 q0 -100 39 -170q49 -84 143 -84q74 0 164 84q16 16 48 52.5t79 91.5q-63 -317 -98 -410q-16 -41 -43 -78q-66 59 -105 95t-53 49q-281 240 -596 239q-242 0 -428 -114q-215 -135 -215 -365q0 -229 217 -360q182 -113 426 -113q510 0 770 518q539 -508 1038 -508 q283 0 480 185q198 183 198 464q0 213 -139 371q-143 162 -360 162q-147 0 -254 -84q-113 -88 -113 -236q0 -125 80 -206q82 -82 209 -82q20 0 20 22q-281 37 -280 266q0 135 104 216q96 72 234 71q193 0 338 -153q137 -150 137 -347q0 -270 -190.5 -448t-463.5 -178 q-350 0 -716 244q-186 125 -312 262q10 23 21.5 45t21.5 45q78 184 130.5 308t80.5 194q156 381 377 663q309 395 612 395q293 0 328 -245l23 -13q0 86 -33 138q-86 137 -354 137q-483 0 -897 -670q-51 -80 -144 -285q-78 -170 -125 -241q-102 -158 -196 -158q-86 0 -86 119 q0 70 20 137q35 76 119 205q43 66 72.5 116t46.5 85q55 117 55 225q0 176 -123 297q-121 123 -297 123q-106 0 -192 -23l-146 -53q-49 160 -150.5 227.5t-273.5 67.5q-479 0 -479 -275zM18 1251q0 262 465 262q328 1 404 -290q-377 -217 -541 -217q-123 0 -217 61 q-111 70 -111 184zM209 -379q0 223 199 352q168 106 405 107q246 0 461 -141q53 -35 122.5 -95.5t157.5 -146.5q-78 -145 -190 -246q-231 -207 -551 -207q-203 0 -381 88q-223 106 -223 289zM1898 1673q0 -92 78 -92q41 0 74 34t33 75q0 92 -76 92q-41 0 -75 -34t-34 -75z M2173 1673q0 -92 76 -92q41 0 74.5 34t33.5 75q0 92 -78 92q-41 0 -73.5 -34t-32.5 -75z" />
<glyph unicode="&#x2c6;" horiz-adv-x="614" d="M104 739h78l291 113l49 -113h39l-16 310z" />
<glyph unicode="&#x2dc;" d="M113 762l34 -19q31 57 76 58q2 0 25.5 -5t68.5 -16q92 -18 111 -18q47 0 78 43l74 106l-35 21q-35 -55 -74 -55q-37 0 -106 18q-68 20 -105 20q-39 0 -74 -47z" />
<glyph unicode="&#x2000;" horiz-adv-x="952" />
<glyph unicode="&#x2001;" horiz-adv-x="1905" />
<glyph unicode="&#x2002;" horiz-adv-x="952" />
<glyph unicode="&#x2003;" horiz-adv-x="1905" />
<glyph unicode="&#x2004;" horiz-adv-x="635" />
<glyph unicode="&#x2005;" horiz-adv-x="476" />
<glyph unicode="&#x2006;" horiz-adv-x="317" />
<glyph unicode="&#x2007;" horiz-adv-x="317" />
<glyph unicode="&#x2008;" horiz-adv-x="238" />
<glyph unicode="&#x2009;" horiz-adv-x="381" />
<glyph unicode="&#x200a;" horiz-adv-x="105" />
<glyph unicode="&#x2010;" horiz-adv-x="548" d="M37 309q0 -12 12 -12q6 0 28.5 7t33.5 7q33 0 104 -12q35 -4 61.5 -7t42.5 -3q51 0 101 22q59 29 59 78q0 12 -8 12l-39 -6q-20 -4 -37.5 -6t-32.5 -2q-12 0 -33.5 2t-43 5l-43 6t-33.5 3q-47 0 -121 -43q-51 -31 -51 -51z" />
<glyph unicode="&#x2011;" horiz-adv-x="548" d="M37 309q0 -12 12 -12q6 0 28.5 7t33.5 7q33 0 104 -12q35 -4 61.5 -7t42.5 -3q51 0 101 22q59 29 59 78q0 12 -8 12l-39 -6q-20 -4 -37.5 -6t-32.5 -2q-12 0 -33.5 2t-43 5l-43 6t-33.5 3q-47 0 -121 -43q-51 -31 -51 -51z" />
<glyph unicode="&#x2012;" horiz-adv-x="548" d="M37 309q0 -12 12 -12q6 0 28.5 7t33.5 7q33 0 104 -12q35 -4 61.5 -7t42.5 -3q51 0 101 22q59 29 59 78q0 12 -8 12l-39 -6q-20 -4 -37.5 -6t-32.5 -2q-12 0 -33.5 2t-43 5l-43 6t-33.5 3q-47 0 -121 -43q-51 -31 -51 -51z" />
<glyph unicode="&#x2013;" horiz-adv-x="847" d="M8 315q0 -10 12 -10q104 29 201 29l328 -43q8 -2 16 -2h17h6q104 0 219 86q29 23 29 35q0 18 -23 18q-14 0 -41 -14q-47 -25 -102 -25q-47 0 -88 8q-115 20 -190 30.5t-113 10.5q-70 0 -181 -45q-90 -35 -90 -78z" />
<glyph unicode="&#x2014;" horiz-adv-x="1236" d="M49 315q0 -10 12 -10q127 35 201 29l598 -43q14 -2 23 -2h10h6q104 0 219 86q29 23 29 35q0 18 -23 18q-14 0 -41 -14q-47 -25 -102 -25q-47 0 -88 8.5t-120 14.5t-198 14q-207 12 -256 12q-70 0 -180 -45q-90 -35 -90 -78z" />
<glyph unicode="&#x2018;" horiz-adv-x="323" d="M313 1081q0 -37 28 -65.5t65 -28.5q47 0 80.5 39t33.5 86q0 59 -80 100q-14 6 -14 27q0 37 63 82l29 14q12 7 12 17t-18 14q-41 0 -94 -59q-104 -115 -105 -226z" />
<glyph unicode="&#x2019;" horiz-adv-x="323" d="M301 1008q0 -12 18 -15q41 0 95 60q104 112 104 225q0 39 -26.5 66.5t-65.5 27.5q-47 0 -81 -39t-34 -86q0 -61 80 -100q14 -6 15 -27q0 -37 -64 -82q-41 -23 -41 -30z" />
<glyph unicode="&#x201a;" horiz-adv-x="323" d="M301 -156q0 -12 18 -14q41 0 95 59q104 113 104 224q0 39 -26.5 66.5t-65.5 27.5q-47 0 -81 -39t-34 -86q0 -61 80 -98q14 -6 15 -27q0 -37 -64 -82q-41 -23 -41 -31z" />
<glyph unicode="&#x201c;" horiz-adv-x="446" d="M311 1081q0 -37 28 -65.5t64 -28.5q47 0 81 39t34 86q0 59 -80 100q-14 6 -14 27q0 37 63 82l29 14q12 7 12 17t-18 14q-41 0 -94 -59q-104 -115 -105 -226zM518 1081q0 -37 27.5 -65.5t64.5 -28.5q47 0 81 39t34 86q0 59 -80 100q-14 6 -14 27q0 37 63 82l29 14 q12 7 12 17t-18 14q-41 0 -94 -59q-104 -115 -105 -226z" />
<glyph unicode="&#x201d;" horiz-adv-x="446" d="M260 1008q0 -12 19 -15q41 0 94 60q104 112 104 225q0 39 -26.5 66.5t-65.5 27.5q-47 0 -81 -39t-34 -86q0 -61 80 -100q14 -6 15 -27q0 -37 -64 -82q-41 -23 -41 -30zM467 1008q0 -12 18 -15q41 0 95 60q104 112 104 225q0 39 -26.5 66.5t-65.5 27.5q-47 0 -81 -39 t-34 -86q0 -61 80 -100q14 -6 14 -27q0 -37 -63 -82q-41 -23 -41 -30z" />
<glyph unicode="&#x201e;" horiz-adv-x="446" d="M260 -156q0 -12 19 -14q41 0 94 59q104 113 104 224q0 39 -26.5 66.5t-65.5 27.5q-47 0 -81 -39t-34 -86q0 -61 80 -98q14 -6 15 -27q0 -37 -64 -82q-41 -23 -41 -31zM467 -156q0 -12 18 -14q41 0 95 59q104 113 104 224q0 39 -26.5 66.5t-65.5 27.5q-47 0 -81 -39 t-34 -86q0 -61 80 -98q14 -6 14 -27q0 -37 -63 -82q-41 -23 -41 -31z" />
<glyph unicode="&#x2022;" horiz-adv-x="524" d="M51 477q0 -55 38 -96t93 -41q115 0 211 129q90 121 90 240q0 113 -110 112q-106 0 -213 -119q-109 -121 -109 -225z" />
<glyph unicode="&#x2026;" horiz-adv-x="1228" d="M86 82q0 -98 86 -98q47 0 83 35.5t36 82.5q0 102 -86 103q-47 0 -83 -38t-36 -85zM496 82q0 -98 86 -98q47 0 82.5 35.5t35.5 82.5q0 102 -86 103q-47 0 -82.5 -38t-35.5 -85zM905 82q0 -98 86 -98q47 0 83 35.5t36 82.5q0 102 -86 103q-47 0 -83 -38t-36 -85z" />
<glyph unicode="&#x202f;" horiz-adv-x="381" />
<glyph unicode="&#x205f;" horiz-adv-x="476" />
<glyph unicode="&#x2122;" horiz-adv-x="1280" d="M55 1286h17q20 82 92 82h61v-399v-33q-4 -23 -20 -31q-6 -4 -37 -6v-22h209v22q-23 2 -34 5t-16 10.5t-6.5 19.5t-1.5 35v399h64q70 0 90 -82h19v103h-437v-103zM557 1368q68 -4 84 -63v-322q0 -76 -63 -84v-22h159v22q-61 8 -61 84v287h10l191 -393h4l190 395h10v-303 q2 -43 -6 -56q-27 -10 -51 -14v-22h209v22q-23 2 -34 5t-16 10.5t-6 19.5t-1 35v329q0 63 65 68v23h-139l-191 -402l-194 402h-160v-21z" />
<glyph unicode="&#x25fc;" horiz-adv-x="675" d="M0 0v676h676v-676h-676z" />
</font>
</defs>
</svg>
